<svg height="511pt" viewBox="0 0 511.99846 511" width="511pt" xmlns="http://www.w3.org/2000/svg"><path d="m385.015625 100.546875-129.015625-47.429687-129.015625 47.429687-81.523437 156.207031v205.742188h420.9375l.136718-205.742188zm0 0" fill="#ff6977"/><path d="m45.460938 256.753906 81.523437-156.207031 129.015625-47.429687 129.015625 47.429687 81.519531 156.207031 35.460938-18.507812-88.671875-169.910156-157.324219-57.835938-157.324219 57.835938-88.675781 169.910156zm0 0" fill="#fbc2c7"/><path d="m10 462.496094h491.996094v40h-491.996094zm0 0" fill="#d29976"/><path d="m144 258.496094h224v204h-224zm0 0" fill="#98a1b3"/><path d="m212 135.5h88v63.996094h-88zm0 0" fill="#f8a2aa"/><path d="m501.996094 452.496094h-25.59375l.128906-189.679688 30.09375-15.703125c4.894531-2.554687 6.792969-8.597656 4.238281-13.492187l-88.675781-169.910156c-1.148438-2.203126-3.078125-3.902344-5.414062-4.757813l-157.324219-57.839844c-2.226563-.820312-4.671875-.820312-6.898438 0l-157.324219 57.835938c-2.335937.859375-4.265624 2.558593-5.417968 4.761719l-88.671875 169.910156c-2.554688 4.898437-.65625 10.9375 4.238281 13.492187l30.085938 15.703125v189.679688h-25.460938c-5.519531 0-10 4.476562-10 10v40c0 5.523437 4.480469 10 10 10h206.128906c5.519532 0 10-4.476563 10-10 0-5.523438-4.480468-10-10-10h-196.128906v-20h471.996094v20h-195.871094c-5.523438 0-10 4.476562-10 10 0 5.523437 4.476562 10 10 10h205.871094c5.523437 0 10-4.476563 10-10v-40c0-5.523438-4.476563-10-10-10zm-396.242188-376.105469 150.246094-55.238281 150.246094 55.238281 82.261718 157.617187-17.730468 9.253907-76.898438-147.34375c-1.148437-2.203125-3.082031-3.898438-5.414062-4.757813l-129.015625-47.429687c-1.113281-.410157-2.28125-.613281-3.449219-.613281-1.171875 0-2.339844.203124-3.453125.613281l-129.015625 47.429687c-2.332031.859375-4.261719 2.554688-5.414062 4.757813l-76.894532 147.34375-17.726562-9.253907zm135.394532 284.105469-87.148438 79.367187v-158.734375zm14.851562 13.527344 86.167969 78.472656h-172.335938zm14.851562-13.527344 87.148438-79.367188v158.734375zm-14.851562-13.523438-86.167969-78.476562h172.335938zm122 105.523438v-194c0-5.523438-4.476562-10-10-10h-224c-5.523438 0-10 4.476562-10 10v194h-78.539062v-193.289063l78.601562-150.609375 121.9375-44.828125 121.9375 44.828125 78.597656 150.605469-.132812 193.292969zm0 0"/><path d="m300 125.5h-88c-5.523438 0-10 4.476562-10 10v63.996094c0 5.523437 4.476562 10 10 10h88c5.523438 0 10-4.476563 10-10v-63.996094c0-5.523438-4.476562-10-10-10zm-78 20h24.125v43.996094h-24.125zm68 43.996094h-23.875v-43.996094h23.875zm0 0"/><path d="m256 492.496094c-2.628906 0-5.210938 1.070312-7.070312 2.929687-1.859376 1.859375-2.929688 4.441407-2.929688 7.070313s1.070312 5.210937 2.929688 7.070312c1.859374 1.859375 4.441406 2.929688 7.070312 2.929688s5.210938-1.070313 7.070312-2.929688c1.859376-1.859375 2.929688-4.441406 2.929688-7.070312s-1.070312-5.210938-2.929688-7.070313c-1.859374-1.859375-4.441406-2.929687-7.070312-2.929687zm0 0"/></svg>