<svg height="512pt" viewBox="-54 0 512 512" width="512pt" xmlns="http://www.w3.org/2000/svg"><path d="m325.511719 96.65625 19.441406 19.441406c31.40625 31.40625 49.046875 73.996094 49.046875 118.40625v199.996094c0 37.277344-30.222656 67.5-67.5 67.5h-249c-37.277344 0-67.5-30.222656-67.5-67.5v-199.996094c0-44.410156 17.640625-87 49.042969-118.40625l19.441406-19.441406zm0 0" fill="#ffcb7c"/><path d="m341.488281 74 38.671875 56.054688-9.945312 9.945312c-13.277344 13.277344-34.804688 13.277344-48.082032 0-13.277343-13.277344-34.804687-13.277344-48.082031 0-13.277343 13.277344-34.804687 13.277344-48.082031 0-13.28125-13.277344-34.808594-13.277344-48.085938 0-13.277343 13.277344-34.804687 13.277344-48.082031 0-13.277343-13.277344-34.804687-13.277344-48.082031 0s-34.804688 13.277344-48.082031 0l-9.792969-9.792969.082031-.082031 38.589844-55.875zm0 0" fill="#d29976"/><g fill="#ffe6c0"><path d="m202 313.621094-53.425781 30.847656-53.425781-30.847656v-61.691406l53.425781-30.84375 53.425781 30.84375zm0 0"/><path d="m308.851562 313.621094-53.425781 30.847656-53.425781-30.847656v-61.691406l53.425781-30.84375 53.425781 30.84375zm0 0"/><path d="m255.425781 406.242188-53.425781 30.84375-53.425781-30.84375v-61.691407l53.425781-30.847656 53.425781 30.847656zm0 0"/></g><path d="m342.742188 10h-281.484376c-9.988281 0-18.082031 8.09375-18.082031 18.082031v28.085938c0 9.988281 8.09375 18.082031 18.082031 18.082031h281.484376c9.988281 0 18.082031-8.09375 18.082031-18.082031v-28.085938c0-9.988281-8.09375-18.082031-18.082031-18.082031zm0 0" fill="#dca98b"/><path d="m379.617188 144.742188 7.613281-7.617188c3.414062-3.410156 3.902343-8.777344 1.160156-12.75l-30.675781-44.46875c7.867187-4.976562 13.109375-13.753906 13.109375-23.738281v-28.085938c0-15.484375-12.597657-28.082031-28.082031-28.082031h-281.484376c-15.484374 0-28.082031 12.597656-28.082031 28.082031v28.085938c0 10.03125 5.292969 18.847656 13.222657 23.8125l-30.402344 44.023437c-3.113282 3.925782-2.851563 9.648438.773437 13.277344l7.558594 7.558594c-15.9375 27.191406-24.328125 58.011718-24.328125 89.664062v199.996094c0 42.734375 34.765625 77.5 77.5 77.5h84.628906c5.519532 0 10-4.476562 10-10s-4.480468-10-10-10h-84.628906c-31.707031 0-57.5-25.792969-57.5-57.5v-199.996094c0-27.472656 7.140625-54.230468 20.683594-77.964844 15.980468 6.664063 35.121094 3.515626 48.101562-9.464843 9.359375-9.355469 24.585938-9.359375 33.941406 0 17.15625 17.152343 45.070313 17.152343 62.226563-.003907 4.53125-4.53125 10.5625-7.027343 16.972656-7.027343 6.410157 0 12.4375 2.496093 16.96875 7.03125 8.578125 8.578125 19.847657 12.863281 31.113281 12.863281 11.265626 0 22.535157-4.289062 31.113282-12.867188 9.355468-9.355468 24.582031-9.355468 33.941406 0 13.015625 13.015626 32.21875 16.148438 48.222656 9.414063 13.566406 23.75 20.714844 50.523437 20.714844 78.019531v199.996094c0 31.707031-25.792969 57.5-57.5 57.5h-84.371094c-5.523437 0-10 4.476562-10 10s4.476563 10 10 10h84.371094c42.734375 0 77.5-34.765625 77.5-77.5v-199.996094c0-31.691406-8.410156-62.546875-24.382812-89.761718zm-326.441407-116.660157c0-4.457031 3.625-8.082031 8.082031-8.082031h281.484376c4.457031 0 8.082031 3.625 8.082031 8.082031v28.085938c0 4.203125-3.226563 7.664062-7.328125 8.042969-1.378906-.28125-2.8125-.277344-4.207032.039062h-278.03125c-4.457031 0-8.082031-3.625-8.082031-8.082031zm276.027344 104.847657c-17.15625-17.15625-45.070313-17.15625-62.226563 0-9.359374 9.355468-24.582031 9.355468-33.941406 0-8.308594-8.3125-19.359375-12.886719-31.113281-12.886719-11.75 0-22.800781 4.574219-31.109375 12.886719-9.359375 9.359374-24.585938 9.355468-33.941406 0-17.15625-17.15625-45.070313-17.15625-62.226563 0-9.359375 9.359374-24.585937 9.355468-33.941406 0l-3.882813-3.882813 30.9375-44.800781h268.652344l30.789063 44.628906-4.054688 4.054688c-9.359375 9.359374-24.582031 9.359374-33.941406 0zm0 0"/><path d="m143.574219 414.902344 53.425781 30.84375c1.546875.894531 3.273438 1.339844 5 1.339844s3.453125-.445313 5-1.339844l53.425781-30.84375c3.09375-1.789063 5-5.089844 5-8.660156v-56l48.425781-27.960938c3.09375-1.785156 5-5.085938 5-8.660156v-61.6875c0-3.574219-1.90625-6.875-5-8.660156l-53.425781-30.847657c-3.09375-1.785156-6.90625-1.785156-10 0l-48.425781 27.957031-48.425781-27.957031c-3.09375-1.785156-6.90625-1.785156-10 0l-53.425781 30.84375c-3.09375 1.789063-5 5.089844-5 8.660157v61.691406c0 3.574218 1.90625 6.875 5 8.660156l48.425781 27.957031v56c0 3.574219 1.90625 6.875 5 8.664063zm101.851562-14.433594-43.425781 25.070312-43.425781-25.070312v-50.144531l43.425781-25.074219 43.425781 25.074219zm10-167.835938 43.425781 25.070313v50.144531l-43.425781 25.074219-43.425781-25.074219v-50.144531zm-150.277343 25.070313 43.425781-25.070313 43.425781 25.070313v50.144531l-43.425781 25.074219-43.425781-25.074219zm0 0"/><path d="m202.128906 492c-2.640625 0-5.207031 1.070312-7.070312 2.929688-1.859375 1.859374-2.929688 4.441406-2.929688 7.070312s1.070313 5.210938 2.929688 7.070312c1.863281 1.859376 4.441406 2.929688 7.070312 2.929688 2.632813 0 5.199219-1.070312 7.070313-2.929688 1.859375-1.859374 2.929687-4.441406 2.929687-7.070312s-1.070312-5.210938-2.929687-7.070312c-1.871094-1.859376-4.4375-2.929688-7.070313-2.929688zm0 0"/></svg>