<svg height="512pt" viewBox="0 0 512 512.0004" width="512pt" xmlns="http://www.w3.org/2000/svg"><path d="m255.84375 501.96875c37.035156 0 69.925781-9.398438 94.054688-14.644531 29.632812-6.441407 60.503906-4.082031 88.714843 7.039062l12.800781 5.042969c12.921876 5.09375 27.609376 2.472656 37.972657-6.769531 15.863281-14.144531 16.472656-38.753907 1.328125-53.667969l-1.265625-1.246094c-30.847657-30.378906-48.21875-71.863281-48.21875-115.160156v-51.488281c0-75.101563-48.148438-141.746094-119.449219-165.332031h-131.875c-71.300781 23.585937-119.445312 90.226562-119.445312 165.328124v51.492188c0 43.296875-17.371094 84.78125-48.21875 115.160156l-1.269532 1.246094c-15.140625 14.914062-14.535156 39.523438 1.332032 53.667969 10.363281 9.242187 25.050781 11.859375 37.972656 6.769531l12.796875-5.046875c28.214843-11.117187 59.082031-13.476563 88.714843-7.035156 24.128907 5.246093 57.019532 14.644531 94.054688 14.644531zm0 0" fill="#dca98b"/><path d="m189.90625 105.742188-19.609375-40.261719-20.578125-42.25 7.988281-6.34375c11.484375-9.117188 27.730469-9.121094 39.214844-.003907l.121094.09375c11.5 9.128907 27.769531 9.113282 39.25-.03125 11.480469-9.144531 27.753906-9.160156 39.25-.035156l.128906.101563c11.480469 9.109375 27.722656 9.109375 39.203125 0l.125-.101563c11.496094-9.121094 27.765625-9.109375 39.25.035156l7.84375 6.246094-40.3125 82.550782zm0 0" fill="#e6b9a0"/><path d="m388.597656 83.878906-.289062-.292968c-12.074219-12.074219-31.652344-12.074219-43.726563 0l-22.152343 22.152343 22.152343 22.15625c12.074219 12.074219 31.652344 12.074219 43.726563 0l.289062-.292969c12.074219-12.074218 12.074219-31.648437 0-43.722656zm0 0" fill="#ffedd1"/><path d="m256.261719 83.878906.292969-.292968c12.074218-12.074219 31.648437-12.074219 43.722656 0l22.152344 22.152343-22.152344 22.15625c-12.074219 12.074219-31.648438 12.074219-43.722656 0l-.292969-.292969c-12.074219-12.074218-12.074219-31.648437 0-43.722656zm0 0" fill="#ffedd1"/><path d="m279.519531 369.800781c-11.050781 16.054688-2.847656 38.207031 15.992188 43.199219 23.96875 6.351562 50.820312.515625 69.5-17.652344 19.28125-18.75 25.855469-45.53125 19.714843-69.757812-4.867187-19.210938-27.226562-27.878906-43.75-16.9375l-.785156.519531c-5.863281 3.882813-9.933594 9.867187-11.707031 16.675781-4.007813 15.421875-16.28125 27.640625-31.730469 31.570313-6.714844 1.710937-12.625 5.691406-16.554687 11.398437zm0 0" fill="#ffcb7c"/><path d="m208.589844 209.550781c-16.054688-11.050781-38.210938-2.847656-43.199219 15.992188-6.351563 23.96875-.515625 50.820312 17.652344 69.5 18.75 19.28125 45.53125 25.851562 69.757812 19.714843 19.210938-4.867187 27.878907-27.226562 16.9375-43.75l-.519531-.785156c-3.882812-5.867187-9.871094-9.9375-16.679688-11.707031-15.421874-4.007813-27.636718-16.28125-31.570312-31.730469-1.707031-6.714844-5.6875-12.628906-11.394531-16.554687zm0 0" fill="#ffcb7c"/><path d="m497.730469 431.84375-1.269531-1.246094c-28.746094-28.308594-45.230469-67.6875-45.230469-108.035156v-51.492188c0-51.230468-20.988281-99.390624-57.988281-134.132812.726562-.632812 1.445312-1.28125 2.136718-1.972656l.289063-.292969c7.730469-7.726563 11.984375-18.003906 11.984375-28.933594 0-10.929687-4.253906-21.203125-11.984375-28.929687l-.289063-.292969c-11.796875-11.792969-29.054687-14.859375-43.699218-9.214844l19.398437-39.722656c2.054687-4.214844.910156-9.289063-2.757813-12.210937l-7.84375-6.246094c-15.207031-12.109375-36.464843-12.128906-51.6875-.042969l-.128906.101563c-7.882812 6.253906-18.894531 6.253906-26.773437 0l-.128907-.101563c-15.226562-12.085937-36.484374-12.066406-51.691406.046875-7.886718 6.28125-18.910156 6.289062-26.816406.015625l-.113281-.089844c-15.203125-12.070312-36.441407-12.066406-51.644531.003907l-7.992188 6.34375c-3.671875 2.917968-4.824219 7.992187-2.769531 12.210937l35.335937 72.546875c-69.601562 27.851562-115.605468 95.160156-115.605468 170.914062v51.492188c0 40.347656-16.488282 79.726562-45.234376 108.035156l-1.269531 1.25c-9.179687 9.039063-14.261719 21.609375-13.941406 34.492188.316406 12.878906 6.015625 25.183594 15.632813 33.761718 8.757812 7.808594 19.804687 11.898438 31.058593 11.898438 5.78125 0 11.621094-1.082031 17.234375-3.292969l12.796875-5.042969c26.316407-10.371093 54.988281-12.640624 82.925781-6.570312 4.019532.875 8.320313 1.875 12.867188 2.929688 22.90625 5.324218 51.410156 11.945312 83.3125 11.945312s60.40625-6.621094 83.3125-11.945312c4.546875-1.054688 8.847656-2.054688 12.867188-2.929688 27.9375-6.070312 56.609374-3.800781 82.925781 6.570312l12.800781 5.042969c16.527344 6.515625 35.03125 3.21875 48.292969-8.605469 9.617187-8.578124 15.3125-20.882812 15.632812-33.761718.316407-12.882813-4.765625-25.453125-13.945312-34.496094zm-116.492188-341.1875.292969.292969c8.15625 8.15625 8.15625 21.425781 0 29.582031l-.292969.292969c-8.15625 8.15625-21.429687 8.15625-29.582031 0l-15.085938-15.082031 15.085938-15.082032c8.152344-8.160156 21.425781-8.160156 29.582031-.003906zm-217.3125-65.941406c7.882813-6.257813 18.894531-6.261719 26.789063.003906l.113281.089844c15.230469 12.089844 36.488281 12.070312 51.695313-.042969 7.886718-6.28125 18.910156-6.292969 26.800781-.027344l.128906.105469c15.203125 12.058594 36.4375 12.058594 51.632813 0l.128906-.101562c7.894531-6.265626 18.917968-6.257813 26.804687.019531l1.566407 1.25-30.429688 62.3125-11.808594-11.808594c-15.953125-15.953125-41.910156-15.953125-57.859375-.003906l-.289062.289062c-.003907.003907-.003907.003907-.007813.007813-5.3125 5.3125-8.984375 11.828125-10.761718 18.933594h-42.269532l-33.9375-69.675782zm129.28125 96.109375c-8.15625 8.15625-21.425781 8.15625-29.589843-.007813l-.285157-.285156c-8.15625-8.15625-8.15625-21.421875-.003906-29.578125l.296875-.296875c8.15625-8.15625 21.425781-8.15625 29.582031 0l15.082031 15.082031zm189.527344 364.351562c-7.59375 6.769531-18.191406 8.65625-27.65625 4.925781l-12.796875-5.042968c-30.011719-11.828125-62.6875-14.421875-94.507812-7.503906-4.160157.90625-8.523438 1.917968-13.144532 2.992187-21.90625 5.089844-49.171875 11.425781-78.785156 11.425781-29.609375 0-56.875-6.335937-78.785156-11.425781-4.621094-1.074219-8.984375-2.085937-13.144532-2.992187-31.820312-6.917969-64.496093-4.324219-94.507812 7.503906l-12.796875 5.046875c-9.464844 3.730469-20.0625 1.839843-27.652344-4.929688-5.589843-4.984375-8.765625-11.847656-8.953125-19.332031-.183594-7.484375 2.652344-14.496094 7.984375-19.75l1.269531-1.25c32.535157-32.042969 51.199219-76.613281 51.199219-122.28125v-51.488281c0-70.40625 44.570313-132.628907 111.085938-155.335938h46.886719c1.777343 7.105469 5.449218 13.625 10.769531 18.941407l.285156.285156c7.726563 7.726562 18.003906 11.984375 28.929687 11.984375 3.875 0 7.667969-.546875 11.292969-1.582031v32.859374c0 5.523438 4.476563 10 10 10 5.519531 0 9.996094-4.476562 9.996094-10v-45.621093l12.726563-12.722657 7.539062 7.535157v85.390625c0 5.523437 4.476562 10 9.996094 10 5.523437 0 10-4.476563 10-10v-69.339844c5.234375 2.300781 10.855468 3.460938 16.480468 3.460938 2.433594 0 4.867188-.226563 7.269532-.65625 36.605468 31.261718 57.515625 76.503906 57.515625 124.796874v51.492188c0 45.667969 18.664062 90.238281 51.199219 122.28125l1.269531 1.25c5.332031 5.253906 8.167969 12.265625 7.980469 19.75-.183594 7.484375-3.359376 14.347656-8.945313 19.332031zm0 0"/><path d="m339.96875 264.367188c2.632812 0 5.210938-1.070313 7.070312-2.929688 1.859376-1.859375 2.929688-4.441406 2.929688-7.070312 0-2.628907-1.070312-5.207032-2.929688-7.066407-1.871093-1.863281-4.4375-2.929687-7.070312-2.929687-2.636719 0-5.207031 1.066406-7.078125 2.929687-1.859375 1.859375-2.929687 4.4375-2.929687 7.066407 0 2.628906 1.070312 5.210937 2.929687 7.070312s4.441406 2.929688 7.078125 2.929688zm0 0"/><path d="m370.8125 296.480469c-11.863281-4.585938-24.75-3.1875-35.355469 3.835937l-.785156.519532c-7.800781 5.164062-13.433594 13.15625-15.863281 22.496093-3.070313 11.8125-12.695313 21.386719-24.519532 24.394531-9.15625 2.332032-17.085937 7.804688-22.328124 15.417969l-.675782.984375c-7.035156 10.214844-8.664062 23.253906-4.359375 34.886719 4.304688 11.628906 14.035157 20.472656 26.027344 23.648437 7.136719 1.890626 14.402344 2.8125 21.605469 2.8125 21.328125 0 42.117187-8.074218 57.425781-22.960937 21.054687-20.476563 29.652344-50.894531 22.433594-79.382813-3.082031-12.164062-11.90625-22.128906-23.605469-26.652343zm-12.769531 91.699219c-15.472657 15.050781-38.449219 20.855468-59.96875 15.15625-5.796875-1.535157-10.3125-5.640626-12.394531-11.261719-2.078126-5.617188-1.324219-11.671875 2.074218-16.605469l.679688-.984375c2.492187-3.621094 6.324218-6.238281 10.785156-7.375 19.070312-4.851563 33.996094-19.695313 38.945312-38.746094 1.1875-4.558593 3.867188-8.417969 7.550782-10.855469l.78125-.519531c5.132812-3.398437 11.367187-4.074219 17.105468-1.855469 5.75 2.222657 9.917969 6.929688 11.433594 12.914063 5.46875 21.578125-1.042968 44.625-16.992187 60.132813zm0 0"/><path d="m281.910156 300.84375c4.585938-11.863281 3.1875-24.75-3.832031-35.351562l-.523437-.789063c-5.167969-7.800781-13.15625-13.433594-22.5-15.863281-11.8125-3.070313-21.386719-12.695313-24.394532-24.519532-2.328125-9.15625-7.804687-17.085937-15.417968-22.328124l-.984376-.675782c-10.210937-7.03125-23.253906-8.660156-34.882812-4.359375-11.632812 4.308594-20.476562 14.035157-23.652344 26.027344-7.488281 28.269531.230469 58.550781 20.148438 79.03125 15.6875 16.128906 37.203125 24.949219 59.222656 24.945313 6.722656 0 13.496094-.824219 20.160156-2.511719 12.167969-3.082031 22.132813-11.90625 26.65625-23.605469zm-18.652344-7.210938c-2.222656 5.75-6.929687 9.917969-12.914062 11.433594-21.578125 5.46875-44.621094-1.042968-60.132812-16.992187-15.050782-15.472657-20.855469-38.453125-15.15625-59.96875 1.535156-5.796875 5.640624-10.3125 11.261718-12.394531 2.085938-.769532 4.234375-1.152344 6.359375-1.152344 3.597657 0 7.144531 1.09375 10.246094 3.226562v.003906l.984375.675782c3.621094 2.492187 6.238281 6.324218 7.375 10.785156 4.851562 19.070312 19.699219 33.992188 38.746094 38.945312 4.5625 1.183594 8.417968 3.867188 10.851562 7.546876l.523438.785156c3.398437 5.132812 4.074218 11.363281 1.855468 17.105468zm0 0"/></svg>