<svg height="512pt" viewBox="0 0 512 512" width="512pt" xmlns="http://www.w3.org/2000/svg"><path d="m234.0625 429h43.875v73h-43.875zm0 0" fill="#ffcb7c"/><path d="m212 66v25.5c0 24.300781 19.699219 44 44 44s44-19.699219 44-44v-25.5zm0 0" fill="#f2d1a5"/><path d="m212 66v-12c0-24.300781 19.699219-44 44-44s44 19.699219 44 44v12zm0 0" fill="#dca98b"/><path d="m482 175.5h-45.765625v-40h45.765625c11.046875 0 20 8.953125 20 20s-8.953125 20-20 20zm0 0" fill="#f2d1a5"/><path d="m30 175.5h45.765625v-40h-45.765625c-11.046875 0-20 8.953125-20 20s8.953125 20 20 20zm0 0" fill="#f2d1a5"/><path d="m256 289h81.253906v-85.679688h98.980469v-67.820312h-360.46875v67.820312h98.980469v85.679688zm0 0" fill="#ff9d6c"/><path d="m328.128906 289v140h-72v-78 78h-72v-140zm0 0" fill="#dca98b"/><path d="m482 125.5h-184.089844c7.554688-9.289062 12.089844-21.121094 12.089844-34v-15.5h18.332031c5.523438 0 10-4.476562 10-10s-4.476562-10-10-10h-18.332031v-2c0-29.777344-24.226562-54-54-54s-54 24.222656-54 54v2h-18.332031c-5.523438 0-10 4.476562-10 10s4.476562 10 10 10h18.332031v15.5c0 12.878906 4.535156 24.710938 12.089844 34h-30.207032c-5.523437 0-10 4.476562-10 10s4.476563 10 10 10h18.117188v133.5h-17.253906v-75.679688c0-5.523437-4.480469-10-10-10h-88.980469v-47.820312h18.117187c5.519532 0 10-4.476562 10-10s-4.480468-10-10-10h-73.882812c-16.542969 0-30 13.457031-30 30s13.457031 30 30 30h35.765625v17.820312c0 5.523438 4.476563 10 10 10h88.980469v75.679688c0 5.3125 4.148437 9.648438 9.382812 9.96875v130.03125c0 5.523438 4.476563 10 10 10h39.933594v63c0 5.523438 4.480469 10 10 10h43.875c5.523438 0 10-4.476562 10-10v-63h40.191406c5.519532 0 10-4.476562 10-10v-130.042969c5.109375-.445312 9.125-4.726562 9.125-9.957031v-75.679688h88.980469c5.523437 0 10-4.476562 10-10v-17.820312h35.765625c16.542969 0 30-13.457031 30-30s-13.457031-30-30-30zm-452 40c-5.515625 0-10-4.484375-10-10s4.484375-10 10-10h35.765625v20zm192-111.5c0-18.746094 15.253906-34 34-34s34 15.253906 34 34v2h-68zm0 37.5v-15.5h68v15.5c0 18.746094-15.253906 34-34 34s-34-15.253906-34-34zm0 54h68v133.5h-68zm45.9375 346.5h-23.875v-53h23.875zm-1.808594-73v-68c0-5.523438-4.480468-10-10-10-5.523437 0-10 4.476562-10 10v68h-52v-120h124v120zm160.105469-225.679688h-88.980469c-5.519531 0-10 4.476563-10 10v75.679688h-17.253906v-133.5h116.234375zm55.765625-27.820312h-35.765625v-20h35.765625c5.515625 0 10 4.484375 10 10s-4.484375 10-10 10zm0 0"/><path d="m143.878906 145.5c2.632813 0 5.210938-1.070312 7.070313-2.929688 1.859375-1.859374 2.929687-4.441406 2.929687-7.070312s-1.070312-5.210938-2.929687-7.070312c-1.859375-1.859376-4.429688-2.929688-7.070313-2.929688-2.628906 0-5.207031 1.070312-7.070312 2.929688-1.859375 1.859374-2.929688 4.441406-2.929688 7.070312s1.070313 5.210938 2.929688 7.070312c1.863281 1.859376 4.441406 2.929688 7.070312 2.929688zm0 0"/></svg>