<svg height="512pt" viewBox="0 -40 512 512" width="512pt" xmlns="http://www.w3.org/2000/svg"><path d="m450 10c-28.71875 0-52 23.28125-52 52v360h104v-360c0-28.71875-23.28125-52-52-52zm0 0" fill="#d3d7df"/><path d="m346 10c-28.71875 0-52 23.28125-52 52v360h104v-360c0-28.71875-23.28125-52-52-52zm0 0" fill="#d3d7df"/><path d="m346 10c-28.71875 0-52 23.28125-52 52v24h104v-24c0-28.71875-23.28125-52-52-52zm0 0" fill="#eff3f3"/><path d="m450 10c-28.71875 0-52 23.28125-52 52v24h104v-24c0-28.71875-23.28125-52-52-52zm0 0" fill="#e1e3e9"/><path d="m280.949219 133.179688-102.949219-37.847657-102.949219 37.847657-65.050781 124.648437v164.171875h335.890625l.109375-164.171875zm0 0" fill="#ff6977"/><path d="m94 270h168v152h-168zm0 0" fill="#fff"/><path d="m134 159h88v64h-88zm0 0" fill="#f8a2aa"/><path d="m450 0c-21.765625 0-40.933594 11.285156-52 28.300781-11.066406-17.015625-30.234375-28.300781-52-28.300781-34.1875 0-62 27.8125-62 62v61.648438l-102.550781-37.703126c-2.226563-.816406-4.671875-.816406-6.898438 0l-102.949219 37.847657c-2.332031.859375-4.265624 2.554687-5.414062 4.757812l-65.050781 124.648438c-.746094 1.429687-1.136719 3.015625-1.136719 4.628906v48.171875c0 5.523438 4.476562 10 10 10s10-4.476562 10-10v-45.71875l62.128906-119.050781 95.871094-35.246094 95.871094 35.246094 11.328125 21.710937c.003906.007813.007812.011719.011719.019532l50.785156 97.316406-.101563 151.722656h-63.894531v-142c0-5.523438-4.476562-10-10-10h-168c-5.523438 0-10 4.476562-10 10v142h-64v-26c0-5.523438-4.476562-10-10-10s-10 4.476562-10 10v36c0 5.523438 4.476562 10 10 10h492c5.523438 0 10-4.476562 10-10v-360c0-34.1875-27.8125-62-62-62zm-272 332.515625-58.042969-52.515625h116.085938zm74-39.984375v106.9375l-59.09375-53.46875zm-88.90625 53.46875-59.09375 53.46875v-106.9375zm14.90625 13.484375 58.042969 52.515625h-116.085938zm272-339.484375c23.160156 0 42 18.839844 42 42v14h-84v-14c0-23.160156 18.839844-42 42-42zm-62 244v36h-32.027344l.023438-36zm-32.042969 56h32.042969v36h-32.066406zm-9.957031-300c23.160156 0 42 18.839844 42 42v14h-84v-14c0-23.160156 18.839844-42 42-42zm-42 135.734375v-59.734375h84v36h-42c-5.523438 0-10 4.476562-10 10s4.476562 10 10 10h42v36h-42c-5.523438 0-10 4.476562-10 10s4.476562 10 10 10h42v36h-37.9375zm51.921875 220.265625h32.078125v36h-32.105469zm52.078125 36v-316h84v36h-42c-5.523438 0-10 4.476562-10 10s4.476562 10 10 10h42v36h-42c-5.523438 0-10 4.476562-10 10s4.476562 10 10 10h42v36h-42c-5.523438 0-10 4.476562-10 10s4.476562 10 10 10h42v36h-42c-5.523438 0-10 4.476562-10 10s4.476562 10 10 10h42v36h-42c-5.523438 0-10 4.476562-10 10s4.476562 10 10 10h42v36zm0 0"/><path d="m222 233c5.523438 0 10-4.476562 10-10v-64c0-5.523438-4.476562-10-10-10h-88c-5.523438 0-10 4.476562-10 10v64c0 5.523438 4.476562 10 10 10zm-10-20h-23.871094v-44h23.871094zm-68-44h24.128906v44h-24.128906zm0 0"/><path d="m10 356c2.628906 0 5.210938-1.070312 7.070312-2.929688 1.859376-1.859374 2.929688-4.441406 2.929688-7.070312s-1.070312-5.210938-2.929688-7.070312c-1.859374-1.859376-4.441406-2.929688-7.070312-2.929688s-5.210938 1.070312-7.070312 2.929688c-1.859376 1.859374-2.929688 4.441406-2.929688 7.070312s1.070312 5.210938 2.929688 7.070312c1.859374 1.859376 4.441406 2.929688 7.070312 2.929688zm0 0"/></svg>