<svg height="512pt" viewBox="0 -40 512 512" width="512pt" xmlns="http://www.w3.org/2000/svg"><path d="m138 111h54v56h-54zm0 0" fill="#aac0c1"/><path d="m138 311.128906h54v56h-54zm0 0" fill="#aac0c1"/><path d="m320 111h54v56h-54zm0 0" fill="#aac0c1"/><path d="m320 311.128906h54v56h-54zm0 0" fill="#aac0c1"/><path d="m374 422h128v-349.332031l-64-62.667969-64 62.667969zm0 0" fill="#eff3f3"/><path d="m138 422h-128v-349.332031l64-62.667969 64 62.667969zm0 0" fill="#eff3f3"/><path d="m320 422h-128v-349.332031l64-62.667969 64 62.667969zm0 0" fill="#eff3f3"/><g fill="#fff"><path d="m276 139c0 11.046875-8.953125 20-20 20s-20-8.953125-20-20c0-11.042969 8.953125-20 20-20s20 8.957031 20 20zm0 0"/><path d="m276 339.128906c0 11.046875-8.953125 20-20 20s-20-8.953125-20-20 8.953125-20 20-20 20 8.953125 20 20zm0 0"/><path d="m94 139c0 11.046875-8.953125 20-20 20s-20-8.953125-20-20c0-11.042969 8.953125-20 20-20s20 8.957031 20 20zm0 0"/><path d="m94 339.128906c0 11.046875-8.953125 20-20 20s-20-8.953125-20-20 8.953125-20 20-20 20 8.953125 20 20zm0 0"/><path d="m458 139c0 11.046875-8.953125 20-20 20s-20-8.953125-20-20c0-11.042969 8.953125-20 20-20s20 8.957031 20 20zm0 0"/><path d="m458 339.128906c0 11.046875-8.953125 20-20 20s-20-8.953125-20-20 8.953125-20 20-20 20 8.953125 20 20zm0 0"/></g><path d="m508.996094 65.523438-64-62.667969c-3.886719-3.808594-10.105469-3.808594-13.992188 0l-64 62.667969c-1.921875 1.878906-3.003906 4.457031-3.003906 7.144531v28.332031h-34v-28.332031c0-2.6875-1.082031-5.265625-3.003906-7.144531l-64-62.667969c-3.886719-3.804688-10.105469-3.804688-13.992188 0l-64 62.667969c-1.921875 1.878906-3.003906 4.457031-3.003906 7.144531v28.332031h-34v-28.332031c0-2.6875-1.082031-5.265625-3.003906-7.144531l-64-62.667969c-3.886719-3.804688-10.105469-3.804688-13.992188 0l-64 62.667969c-1.921875 1.878906-3.003906 4.457031-3.003906 7.144531v349.332031c0 5.523438 4.476562 10 10 10h128c5.523438 0 10-4.476562 10-10v-44.871094h34v44.871094c0 5.523438 4.476562 10 10 10h128c5.523438 0 10-4.476562 10-10v-44.871094h34v44.871094c0 5.523438 4.476562 10 10 10h128c5.523438 0 10-4.476562 10-10v-166c0-5.523438-4.476562-10-10-10s-10 4.476562-10 10v156h-108v-335.128906l54-52.875 54 52.875v99.128906c0 5.523438 4.476562 10 10 10s10-4.476562 10-10v-103.332031c0-2.6875-1.082031-5.265625-3.003906-7.144531zm-178.996094 111.476562h34v124.128906h-34zm34-56v36h-34v-36zm-216 56h34v124.128906h-34zm34-56v36h-34v-36zm-54 291h-108v-335.128906l54-52.875 54 52.875zm20-54.871094v-36h34v36zm162 54.871094h-108v-335.128906l54-52.875 54 52.875zm20-54.871094v-36h34v36zm0 0"/><path d="m256 109c-16.542969 0-30 13.460938-30 30 0 16.542969 13.457031 30 30 30s30-13.457031 30-30c0-16.539062-13.457031-30-30-30zm0 40c-5.515625 0-10-4.484375-10-10 0-5.511719 4.484375-10 10-10s10 4.488281 10 10c0 5.515625-4.484375 10-10 10zm0 0"/><path d="m256 309.128906c-16.542969 0-30 13.457032-30 30 0 16.542969 13.457031 30 30 30s30-13.457031 30-30c0-16.542968-13.457031-30-30-30zm0 40c-5.515625 0-10-4.484375-10-10 0-5.511718 4.484375-10 10-10s10 4.488282 10 10c0 5.515625-4.484375 10-10 10zm0 0"/><path d="m74 109c-16.542969 0-30 13.460938-30 30 0 16.542969 13.457031 30 30 30s30-13.457031 30-30c0-16.539062-13.457031-30-30-30zm0 40c-5.515625 0-10-4.484375-10-10 0-5.511719 4.484375-10 10-10s10 4.488281 10 10c0 5.515625-4.484375 10-10 10zm0 0"/><path d="m74 309.128906c-16.542969 0-30 13.457032-30 30 0 16.542969 13.457031 30 30 30s30-13.457031 30-30c0-16.542968-13.457031-30-30-30zm0 40c-5.515625 0-10-4.484375-10-10 0-5.511718 4.484375-10 10-10s10 4.488282 10 10c0 5.515625-4.484375 10-10 10zm0 0"/><path d="m438 109c-16.542969 0-30 13.460938-30 30 0 16.542969 13.457031 30 30 30s30-13.457031 30-30c0-16.539062-13.457031-30-30-30zm0 40c-5.515625 0-10-4.484375-10-10 0-5.511719 4.484375-10 10-10s10 4.488281 10 10c0 5.515625-4.484375 10-10 10zm0 0"/><path d="m438 309.128906c-16.542969 0-30 13.457032-30 30 0 16.542969 13.457031 30 30 30s30-13.457031 30-30c0-16.542968-13.457031-30-30-30zm0 40c-5.515625 0-10-4.484375-10-10 0-5.511718 4.484375-10 10-10s10 4.488282 10 10c0 5.515625-4.484375 10-10 10zm0 0"/><path d="m502 206c-2.628906 0-5.210938 1.070312-7.070312 2.929688-1.859376 1.863281-2.929688 4.441406-2.929688 7.070312 0 2.632812 1.070312 5.210938 2.929688 7.070312 1.859374 1.859376 4.441406 2.929688 7.070312 2.929688s5.210938-1.070312 7.070312-2.929688c1.859376-1.859374 2.929688-4.4375 2.929688-7.070312 0-2.628906-1.070312-5.207031-2.929688-7.070312-1.859374-1.859376-4.441406-2.929688-7.070312-2.929688zm0 0"/></svg>