<svg height="512pt" viewBox="-11 0 511 512" width="512pt" xmlns="http://www.w3.org/2000/svg"><path d="m394.601562 129.957031-99.339843-99.339843c-27.488281-27.488282-72.058594-27.488282-99.550781 0l-99.335938 99.339843zm0 0" fill="#ffe6c0"/><path d="m412.621094 129.957031h-333.597656c-12.230469 0-19.5 13.660157-12.664063 23.804688l33.792969 50.167969h292.769531l32.53125-50.421876c6.558594-10.164062-.738281-23.550781-12.832031-23.550781zm0 0" fill="#e6b9a0"/><path d="m395.984375 203.929688 8.4375 15.964843c31.261719 59.167969 47.605469 125.074219 47.605469 191.992188l16.65625 17.519531c16.027344 16.851562 15.691406 43.410156-.753906 59.855469-10.226563 10.230469-24.921876 14.609375-39.082032 11.652343l-21.558594-4.503906c-10.765624-2.25-21.820312-2.800781-32.761718-1.636718l-7.191406.765624c-81.003907 8.628907-162.691407 8.628907-243.695313 0l-7.195313-.765624c-10.9375-1.164063-21.992187-.613282-32.761718 1.636718l-22.472656 4.695313c-13.585938 2.839843-27.6875-1.363281-37.503907-11.179688l-.578125-.578125c-16.527344-16.527344-16.859375-43.089844-.835937-59.945312 9.015625-9.480469 16.652343-17.511719 16.652343-17.511719 0-66.917969 16.34375-132.824219 47.609376-191.992187l8.4375-15.964844h300.992187zm0 0" fill="#d29976"/><g fill="#ffcb7c"><path d="m306.710938 330.675781v.011719c.125.078125 27.085937 19.347656 28.515624 44.980469 1.421876 25.640625-22.351562 47.894531-22.457031 47.996093v.007813-.011719.003906l-.003906-.007812c-.222656-.160156-28.195313-19.320312-29.621094-44.910156-1.429687-25.695313 23.566407-48.070313 23.566407-48.070313zm0 0"/><path d="m266.195312 395.699219c25.589844 1.425781 44.746094 29.398437 44.910157 29.621093h.007812-.007812l.011719.003907h-.007813c-.097656.101562-22.355469 23.878906-47.996094 22.457031-25.628906-1.429688-44.902343-28.390625-44.976562-28.515625h-.015625s22.378906-25 48.074218-23.566406zm0 0"/><path d="m264.234375 288.199219v.011719c.125.074218 27.085937 19.347656 28.515625 44.980468 1.421875 25.640625-22.351562 47.894532-22.457031 47.996094v.003906-.007812.003906-.007812c-.226563-.160157-28.199219-19.320313-29.625-44.910157-1.429688-25.691406 23.566406-48.070312 23.566406-48.070312zm0 0"/><path d="m223.71875 353.222656c25.589844 1.425782 44.746094 29.398438 44.910156 29.625h.007813-.007813.011719-.007813c-.097656.101563-22.355468 23.878906-47.996093 22.457032-25.628907-1.429688-44.902344-28.390626-44.976563-28.515626h-.015625c0-.003906 22.378907-25 48.074219-23.566406zm0 0"/><path d="m221.78125 245.746094.003906.015625c.121094.074219 27.085938 19.347656 28.515625 44.976562 1.421875 25.640625-22.355469 47.898438-22.457031 47.996094v.007813l-.003906-.011719v.007812-.007812c-.222656-.164063-28.195313-19.320313-29.621094-44.910157-1.433594-25.695312 23.5625-48.074218 23.5625-48.074218zm0 0"/><path d="m181.265625 310.773438c25.589844 1.425781 44.75 29.398437 44.910156 29.621093h.007813-.003906.007812-.003906c-.101563.105469-22.355469 23.882813-47.996094 22.457031-25.632812-1.425781-44.90625-28.390624-44.980469-28.515624h-.011719s22.375-24.996094 48.070313-23.5625zm0 0"/></g><path d="m475.929688 422.515625-13.921876-14.644531c-.648437-66.929688-17.46875-133.453125-48.746093-192.648438l-7.082031-13.402344 27.675781-42.890624c5.019531-7.78125 5.386719-17.664063.957031-25.792969-4.429688-8.128907-12.933594-13.179688-22.191406-13.179688h-13.878906l-96.410157-96.410156c-15.183593-15.183594-35.371093-23.546875-56.84375-23.546875-21.476562 0-41.664062 8.363281-56.847656 23.546875l-96.410156 96.410156h-13.207031c-9.363282 0-17.910157 5.136719-22.308594 13.398438-4.398438 8.265625-3.882813 18.226562 1.347656 25.992187l27.558594 40.90625-7.910156 14.96875c-31.277344 59.191406-48.097657 125.714844-48.746094 192.648438l-13.917969 14.640625c-9.5625 10.058593-14.730469 23.242187-14.542969 37.121093.1875 13.878907 5.710938 26.941407 15.550782 36.78125l.582031.582032c12.242187 12.246094 29.671875 17.4375 46.621093 13.898437l22.472657-4.695312c9.761719-2.039063 19.742187-2.539063 29.65625-1.480469l7.191406.765625c40.785156 4.34375 81.839844 6.515625 122.910156 6.515625 41.058594 0 82.132813-2.171875 122.90625-6.515625l7.191407-.765625c9.914062-1.058594 19.894531-.558594 29.65625 1.480469l21.558593 4.503906c17.515625 3.660156 35.539063-1.710937 48.199219-14.371094 9.808594-9.808593 15.304688-22.847656 15.480469-36.71875.175781-13.871093-4.992188-27.046875-14.550781-37.097656zm-273.144532-384.828125c11.40625-11.40625 26.570313-17.6875 42.703125-17.6875 16.128907 0 31.296875 6.28125 42.703125 17.6875l82.265625 82.269531h-249.941406zm258.074219 444.503906c-7.871094 7.871094-19.070313 11.207032-29.96875 8.933594l-21.554687-4.503906c-11.808594-2.464844-23.875-3.066406-35.867188-1.789063l-7.191406.765625c-80.148438 8.539063-161.429688 8.535156-241.578125 0l-7.191407-.765625c-11.992187-1.28125-24.0625-.675781-35.867187 1.789063l-22.472656 4.695312c-10.324219 2.15625-20.933594-1.007812-28.386719-8.457031l-.582031-.585937c-12.757813-12.753907-13.046875-32.953126-.65625-45.980469l16.652343-17.515625c1.769532-1.859375 2.753907-4.324219 2.753907-6.890625 0-65.039063 16.0625-129.8125 46.445312-187.320313l5.621094-10.636718h104.488281c5.523438 0 10-4.476563 10-10 0-5.523438-4.476562-10-10-10h-100.03125l-30.820312-45.757813c-1.597656-2.367187-.730469-4.578125-.28125-5.417969.445312-.839844 1.796875-2.796875 4.652344-2.796875h333.597656c2.828125 0 4.179687 1.921875 4.628906 2.75.453125.828125 1.332031 3.003907-.199219 5.378907l-29.578125 45.84375h-101.996094c-5.523437 0-10 4.476562-10 10 0 5.523437 4.476563 10 10 10h54.972657v34.1875c0 5.523437 4.476562 10 10 10 5.523437 0 10-4.476563 10-10v-34.1875h22.46875v96.785156c0 5.523437 4.480469 10 10.003906 10 5.519531 0 10-4.476563 10-10v-71.503906c25.617187 53.75 39.105469 113.101562 39.105469 172.675781 0 2.566406.984375 5.035156 2.753906 6.894531l16.65625 17.515625c12.382812 13.027344 12.128906 33.183594-.578125 45.894531zm0 0"/><path d="m227.144531 51.667969c-3.90625-3.90625-10.238281-3.90625-14.144531 0-3.902344 3.90625-3.902344 10.238281 0 14.144531l3.453125 3.453125c1.953125 1.949219 4.511719 2.925781 7.070313 2.925781 2.5625 0 5.121093-.976562 7.074218-2.929687 3.902344-3.902344 3.902344-10.234375-.003906-14.140625zm0 0"/><path d="m197.257812 83.347656h-3.625c-5.519531 0-10 4.476563-10 10 0 5.523438 4.480469 10 10 10h3.625c5.519532 0 10-4.476562 10-10 0-5.523437-4.476562-10-10-10zm0 0"/><path d="m325.835938 424.292969c8.035156-9.503907 20.554687-27.894531 19.375-49.183594-1.5-26.894531-25.492188-47.027344-31.800782-51.859375-.855468-.773438-1.855468-1.402344-2.960937-1.847656-3.125-1.261719-6.644531-.847656-9.378907 1.023437-5.828124-21.714843-24.660156-37.464843-30.144531-41.65625-.855469-.773437-1.855469-1.40625-2.964843-1.851562-3.117188-1.25-6.621094-.839844-9.355469 1.019531-5.835938-21.699219-24.648438-37.429688-30.128907-41.621094-.859374-.773437-1.859374-1.402344-2.96875-1.851562-3.53125-1.417969-7.5625-.707032-10.394531 1.832031-1.167969 1.042969-28.5625 25.929687-26.878906 56.078125.140625 2.539062.496094 5.019531 1.019531 7.429688-2.414062-.519532-4.890625-.875-7.433594-1.019532-30.132812-1.691406-55.03125 25.710938-56.078124 26.878906-2.539063 2.835938-3.238282 6.867188-1.820313 10.398438.40625 1.015625.972656 1.9375 1.65625 2.746094 3.84375 5.160156 19.507813 24.472656 41.789063 30.375-1.84375 2.726562-2.242188 6.21875-.996094 9.328125.410156 1.015625.972656 1.9375 1.660156 2.746093 3.84375 5.164063 19.523438 24.5 41.824219 30.386719-1.890625 2.785157-2.269531 6.367188-.933594 9.523438.433594 1.015625 1.019531 1.9375 1.730469 2.734375 4.753906 6.230468 24.910156 30.355468 51.90625 31.859375.945312.054687 1.878906.078125 2.8125.078125 20.039062 0 37.222656-11.742188 46.3125-19.410156l19.589844 19.589843c1.953124 1.953125 4.511718 2.925781 7.070312 2.925781s5.121094-.972656 7.070312-2.925781c3.90625-3.90625 3.90625-10.238281 0-14.144531zm-18.351563-79.894531c7.492187 7.183593 17.050781 19.132812 17.757813 31.824218.746093 13.433594-7.59375 26.320313-13.558594 33.730469-8.222656-7.5-17.863282-19.398437-18.550782-31.761719-.75-13.433594 8.105469-26.402344 14.351563-33.792968zm-42.476563-42.472657c7.492188 7.179688 17.050782 19.128907 17.757813 31.820313.746094 13.433594-7.597656 26.328125-13.558594 33.734375-8.226562-7.503907-17.863281-19.398438-18.550781-31.765625-.304688-5.421875.972656-10.761719 2.996094-15.695313.578125-1.1875 1.128906-2.410156 1.65625-3.660156 2.890625-5.761719 6.613281-10.78125 9.699218-14.433594zm-42.449218-42.453125c7.492187 7.179688 17.046875 19.128906 17.757812 31.820313.742188 13.433593-7.59375 26.320312-13.558594 33.730469-8.226562-7.503907-17.863281-19.402344-18.554687-31.761719-.746094-13.433594 8.109375-26.398438 14.355469-33.789063zm-75.625 75.652344c7.417968-6.238281 20.417968-15.109375 33.777344-14.367188 11.5625.644532 22.710937 9.113282 30.242187 16.933594.027344.027344.046875.050782.070313.078125l.089843.085938c.464844.488281.921875.976562 1.359375 1.457031-7.402344 5.960938-20.316406 14.292969-33.730468 13.554688-12.683594-.707032-24.625-10.25-31.808594-17.742188zm42.453125 42.453125c3.769531-3.171875 8.980469-7.015625 14.945312-9.941406.863281-.371094 1.707031-.761719 2.539063-1.15625 5.109375-2.183594 10.664062-3.585938 16.289062-3.273438 10.519532.585938 20.6875 7.648438 28.109375 14.804688l2.292969 2.296875c.46875.488281.925781.972656 1.363281 1.453125-7.40625 5.960937-20.28125 14.300781-33.730469 13.554687-12.683593-.707031-24.625-10.25-31.808593-17.738281zm108.015625 46.660156c-7.40625 5.960938-20.289063 14.296875-33.730469 13.558594-12.695313-.710937-24.644531-10.265625-31.824219-17.757813 3.804688-3.214843 9.09375-7.113281 15.15625-10.046874.75-.324219 1.488282-.664063 2.21875-1.007813 5.132813-2.199219 10.730469-3.613281 16.414063-3.300781 10.492187.585937 20.628906 7.605468 28.046875 14.742187l2.390625 2.394531c.457031.476563.902343.949219 1.328125 1.417969zm0 0"/><path d="m245.824219 213.933594c2.628906 0 5.210937-1.070313 7.070312-2.929688 1.859375-1.867187 2.929688-4.4375 2.929688-7.078125 0-2.632812-1.070313-5.199219-2.929688-7.070312-1.859375-1.859375-4.441406-2.929688-7.070312-2.929688-2.628907 0-5.210938 1.070313-7.070313 2.929688s-2.929687 4.4375-2.929687 7.070312c0 2.640625 1.066406 5.21875 2.929687 7.078125 1.859375 1.859375 4.441406 2.929688 7.070313 2.929688zm0 0"/></svg>