<svg height="512pt" viewBox="0 0 512 512" width="512pt" xmlns="http://www.w3.org/2000/svg"><path d="m10 334h492v168h-492zm0 0" fill="#ffedd1"/><path d="m502 52-42-42-42 42v282h84zm0 0" fill="#e1e3e9"/><path d="m418 52-42-42-42 42v282h84zm0 0" fill="#e5ecec"/><path d="m418 200-204.058594-130-203.941406 130v134h408zm0 0" fill="#ffd89e"/><path d="m94 206h240v128h-240zm0 0" fill="#c6c4c8"/><g fill="#ffcb7c"><path d="m134 254h80v80h-80zm0 0"/><path d="m214 254h80v80h-80zm0 0"/><path d="m448 446c0 30.925781-25.070312 56-56 56s-56-25.074219-56-56c0-30.929688 25.070312-56 56-56s56 25.070312 56 56zm0 0"/></g><path d="m412 446c0 11.046875-8.953125 20-20 20s-20-8.953125-20-20 8.953125-20 20-20 20 8.953125 20 20zm0 0" fill="#ffe6c0"/><path d="m219.667969 390c0 30.925781-25.074219 56-56 56-30.929688 0-56-25.074219-56-56 0-30.929688 25.070312-56 56-56 30.925781 0 56 25.070312 56 56zm0 0" fill="#ffcb7c"/><path d="m183.667969 390c0 11.046875-8.957031 20-20 20-11.046875 0-20-8.953125-20-20s8.953125-20 20-20c11.042969 0 20 8.953125 20 20zm0 0" fill="#ffe6c0"/><path d="m502 344c5.523438 0 10-4.476562 10-10v-282c0-2.652344-1.054688-5.195312-2.929688-7.070312l-42-42c-3.90625-3.90625-10.234374-3.90625-14.140624 0l-34.929688 34.929687-34.929688-34.929687c-3.90625-3.90625-10.234374-3.90625-14.140624 0l-42 42c-1.875 1.875-2.929688 4.417968-2.929688 7.070312v76.257812l-104.683594-66.691406c-3.28125-2.089844-7.46875-2.089844-10.75 0l-72.542968 46.242188c-4.65625 2.96875-6.023438 9.148437-3.054688 13.808594 2.96875 4.65625 9.148438 6.027343 13.804688 3.058593l67.171874-42.816406 194.054688 123.628906v118.511719h-64v-118c0-5.523438-4.476562-10-10-10h-240c-5.523438 0-10 4.476562-10 10v118h-64v-118.515625l59.308594-37.804687c4.65625-2.96875 6.027344-9.152344 3.058594-13.808594-2.96875-4.660156-9.152344-6.023438-13.808594-3.058594l-63.933594 40.753906c-2.882812 1.835938-4.625 5.015625-4.625 8.433594v134c0 5.523438 4.476562 10 10 10h106.402344c-9.378906 9.632812-15.859375 22.105469-17.980469 36h-88.421875c-5.523438 0-10 4.476562-10 10s4.476562 10 10 10h88.425781c2.121094 13.894531 8.597657 26.363281 17.976563 36h-106.402344c-5.523438 0-10 4.476562-10 10s4.476562 10 10 10h316.757812c2.121094 13.894531 8.597657 26.363281 17.976563 36h-334.734375c-5.523438 0-10 4.476562-10 10s4.476562 10 10 10h492c5.523438 0 10-4.476562 10-10s-4.476562-10-10-10h-62.734375c9.378906-9.636719 15.855469-22.105469 17.976563-36h44.757812c5.523438 0 10-4.476562 10-10s-4.476562-10-10-10h-44.757812c-2.121094-13.894531-8.597657-26.367188-17.976563-36h62.734375c5.523438 0 10-4.476562 10-10s-4.476562-10-10-10h-273.089844c-2.121094-13.894531-8.597656-26.367188-17.980468-36zm-278-80h45.855469l-45.855469 45.859375zm-65.855469 60 45.855469-45.855469v45.855469zm-14.144531-14.140625v-45.859375h45.855469zm94.144531 14.140625 45.855469-45.855469v45.855469zm221.855469-299.859375 32 32v267.859375h-64v-267.859375zm-116 116.859375v-84.859375l32-32 32 32v125.632813zm-240 75h220v108h-20v-70c0-5.523438-4.476562-10-10-10h-160c-5.523438 0-10 4.476562-10 10v70h-20zm124.910156 184h115.824219c-9.378906 9.632812-15.855469 22.105469-17.976563 36h-115.828124c9.378906-9.636719 15.859374-22.105469 17.980468-36zm209.089844 46c0 25.363281-20.636719 46-46 46s-46-20.636719-46-46 20.636719-46 46-46 46 20.636719 46 46zm-228.332031-56c0 25.363281-20.636719 46-46 46-25.359375 0-45.992188-20.628906-46-45.988281 0-.003907 0-.007813 0-.011719s0-.007812 0-.011719c.007812-25.359375 20.640625-45.988281 46-45.988281 25.363281 0 46 20.636719 46 46zm0 0"/><path d="m392 476c16.542969 0 30-13.457031 30-30s-13.457031-30-30-30-30 13.457031-30 30 13.457031 30 30 30zm0-40c5.515625 0 10 4.484375 10 10s-4.484375 10-10 10-10-4.484375-10-10 4.484375-10 10-10zm0 0"/><path d="m163.667969 420c16.542969 0 30-13.457031 30-30s-13.457031-30-30-30-30 13.457031-30 30 13.457031 30 30 30zm0-40c5.511719 0 10 4.484375 10 10s-4.488281 10-10 10c-5.515625 0-10-4.484375-10-10s4.484375-10 10-10zm0 0"/><path d="m107.671875 147.738281c2.628906 0 5.207031-1.058593 7.066406-2.917969 1.863281-1.871093 2.933594-4.441406 2.933594-7.082031 0-2.628906-1.070313-5.207031-2.933594-7.070312-1.859375-1.859375-4.4375-2.929688-7.066406-2.929688-2.640625 0-5.210937 1.070313-7.082031 2.929688-1.859375 1.863281-2.917969 4.441406-2.917969 7.070312 0 2.640625 1.058594 5.222657 2.917969 7.082031 1.859375 1.859376 4.441406 2.917969 7.082031 2.917969zm0 0"/></svg>