<svg height="512pt" viewBox="0 -20 512 512" width="512pt" xmlns="http://www.w3.org/2000/svg"><path d="m256 10c-33.324219 10.464844-56 41.351562-56 76.28125v78.730469h112v-78.730469c0-34.929688-22.675781-65.816406-56-76.28125zm0 0" fill="#ffcb7c"/><path d="m244.25 255.671875h14.316406c29.511719 0 53.433594-23.921875 53.433594-53.429687v-90.523438c-38.976562 5.988281-67.75 39.523438-67.75 78.953125zm0 0" fill="#cbe558"/><path d="m253.433594 255.671875c-29.511719 0-53.433594-23.921875-53.433594-53.429687v-90.523438c38.976562 5.988281 67.75 39.523438 67.75 78.953125v50.683594c0 7.910156-6.410156 14.316406-14.316406 14.316406zm0 0" fill="#cbe558"/><path d="m90 42.949219c-33.324219 10.464843-56 41.351562-56 76.28125v78.730469h112v-78.730469c0-34.929688-22.675781-65.816407-56-76.28125zm0 0" fill="#ffcb7c"/><path d="m78.25 288.625h14.316406c29.511719 0 53.433594-23.921875 53.433594-53.433594v-90.523437c-38.976562 5.988281-67.75 39.523437-67.75 78.953125zm0 0" fill="#cbe558"/><path d="m87.433594 288.625c-29.511719 0-53.433594-23.921875-53.433594-53.433594v-90.523437c38.976562 5.988281 67.75 39.523437 67.75 78.953125v50.683594c0 7.910156-6.410156 14.320312-14.316406 14.320312zm0 0" fill="#cbe558"/><path d="m422 42.949219c33.324219 10.464843 56 41.351562 56 76.28125v78.730469h-112v-78.730469c0-34.929688 22.675781-65.816407 56-76.28125zm0 0" fill="#ffcb7c"/><path d="m433.75 288.625h-14.316406c-29.511719 0-53.433594-23.921875-53.433594-53.433594v-90.523437c38.976562 5.988281 67.75 39.523437 67.75 78.953125zm0 0" fill="#cbe558"/><path d="m424.566406 288.625c29.511719 0 53.433594-23.921875 53.433594-53.433594v-90.523437c-38.976562 5.988281-67.75 39.523437-67.75 78.953125v50.683594c0 7.910156 6.410156 14.320312 14.316406 14.320312zm0 0" fill="#cbe558"/><path d="m256 452c-2.628906 0-5.210938 1.066406-7.070312 2.929688-1.859376 1.859374-2.929688 4.4375-2.929688 7.070312 0 2.628906 1.070312 5.210938 2.929688 7.066406 1.859374 1.863282 4.441406 2.933594 7.070312 2.933594s5.210938-1.070312 7.070312-2.933594c1.859376-1.855468 2.929688-4.4375 2.929688-7.066406 0-2.632812-1.070312-5.210938-2.929688-7.070312-1.859374-1.859376-4.441406-2.929688-7.070312-2.929688zm0 0"/><path d="m266.5 69h4.5c5.523438 0 10-4.476562 10-10s-4.476562-10-10-10h-4.5c-5.523438 0-10 4.476562-10 10s4.476562 10 10 10zm0 0"/><path d="m231.625 93h4.5c5.523438 0 10-4.476562 10-10s-4.476562-10-10-10h-4.5c-5.523438 0-10 4.476562-10 10s4.476562 10 10 10zm0 0"/><path d="m346 314c0-5.523438-4.476562-10-10-10-28.246094 0-53.488281 13.082031-70 33.5v-72.484375l3.636719-.34375c.3125-.03125.628906-.074219.941406-.136719 29.796875-5.714844 51.421875-31.914062 51.421875-62.292968v-115.960938c0-39.496094-25.320312-73.988281-63.003906-85.820312-1.949219-.613282-4.042969-.613282-5.992188 0-37.683594 11.832031-63.003906 46.320312-63.003906 85.820312v115.960938c0 32.460937 24.515625 59.289062 56 62.980468v72.277344c-16.511719-20.417969-41.753906-33.5-70-33.5-5.523438 0-10 4.476562-10 10 0 5.519531 4.476562 10 10 10 38.597656 0 70 31.402344 70 70v28c0 5.519531 4.476562 10 10 10s10-4.480469 10-10v-28c0-38.597656 31.402344-70 70-70 5.523438 0 10-4.480469 10-10zm-44-111.757812c0 16.855468-9.71875 31.824218-24.25 38.984374v-50.550781c0-14.441406-3.5-28.566406-10.035156-41.230469 8.597656-11.765624 20.574218-20.492187 34.285156-25.058593zm-46-181.6875c27.644531 10.042968 46 36.070312 46 65.726562v17.285156c-17.957031 4.554688-33.984375 14.503906-46.003906 28.484375-12.074219-14.035156-28.175782-23.945312-45.996094-28.476562v-17.292969c0-29.65625 18.355469-55.683594 46-65.726562zm-46 181.6875v-77.878907c15.53125 5.121094 28.40625 15.371094 36.859375 28.660157.34375.777343.792969 1.503906 1.328125 2.179687 6.101562 10.417969 9.5625 22.546875 9.5625 35.46875v50.683594c0 2.382812-1.9375 4.316406-4.316406 4.316406-23.949219.003906-43.433594-19.480469-43.433594-43.429687zm0 0"/><path d="m100.496094 101.949219h4.5c5.523437 0 10-4.476563 10-10 0-5.523438-4.476563-10-10-10h-4.5c-5.523438 0-10 4.476562-10 10 0 5.523437 4.476562 10 10 10zm0 0"/><path d="m65.621094 125.949219h4.5c5.523437 0 10-4.476563 10-10 0-5.523438-4.476563-10-10-10h-4.5c-5.523438 0-10 4.476562-10 10 0 5.523437 4.476562 10 10 10zm0 0"/><path d="m170 356c-28.246094 0-53.488281 13.082031-70 33.5v-91.535156l3.636719-.34375c.3125-.027344.628906-.074219.941406-.132813 29.796875-5.71875 51.421875-31.917969 51.421875-62.296875v-115.957031c0-39.5-25.320312-73.992187-63.003906-85.824219-1.949219-.613281-4.042969-.613281-5.992188 0-37.683594 11.832032-63.003906 46.324219-63.003906 85.824219v115.957031c0 32.460938 24.515625 59.289063 56 62.984375v91.324219c-16.511719-20.417969-41.753906-33.5-70-33.5-5.523438 0-10 4.476562-10 10 0 5.519531 4.476562 10 10 10 38.597656 0 70 31.402344 70 70v16c0 5.519531 4.476562 10 10 10s10-4.480469 10-10v-16c0-38.597656 31.402344-70 70-70 5.523438 0 10-4.480469 10-10 0-5.523438-4.476562-10-10-10zm-34-120.808594c0 16.855469-9.71875 31.828125-24.25 38.984375v-50.550781c0-14.4375-3.5-28.566406-10.035156-41.226562 8.597656-11.769532 20.574218-20.496094 34.285156-25.0625zm-46-181.6875c27.644531 10.042969 46 36.070313 46 65.730469v17.28125c-17.957031 4.554687-33.984375 14.503906-46.003906 28.484375-12.078125-14.035156-28.175782-23.945312-45.996094-28.476562v-17.292969c0-29.65625 18.355469-55.683594 46-65.726563zm-46 181.6875v-77.878906c15.53125 5.121094 28.40625 15.371094 36.859375 28.660156.34375.777344.792969 1.507813 1.328125 2.179688 6.101562 10.417968 9.5625 22.546875 9.5625 35.46875v50.683594c0 2.382812-1.9375 4.316406-4.316406 4.316406-23.949219.003906-43.433594-19.480469-43.433594-43.429688zm0 0"/><path d="m432.5 101.949219h4.5c5.523438 0 10-4.476563 10-10 0-5.523438-4.476562-10-10-10h-4.5c-5.523438 0-10 4.476562-10 10 0 5.523437 4.476562 10 10 10zm0 0"/><path d="m397.625 125.949219h4.5c5.523438 0 10-4.476563 10-10 0-5.523438-4.476562-10-10-10h-4.5c-5.523438 0-10 4.476562-10 10 0 5.523437 4.476562 10 10 10zm0 0"/><path d="m502 356c-28.246094 0-53.488281 13.082031-70 33.5v-91.324219c31.484375-3.695312 56-30.523437 56-62.984375v-115.957031c0-39.5-25.320312-73.992187-63.003906-85.824219-1.949219-.613281-4.042969-.613281-5.992188 0-37.683594 11.832032-63.003906 46.324219-63.003906 85.824219v115.957031c0 30.378906 21.625 56.578125 51.421875 62.296875.3125.058594.625.105469.941406.132813l3.636719.34375v91.535156c-16.511719-20.417969-41.753906-33.5-70-33.5-5.523438 0-10 4.476562-10 10 0 5.519531 4.476562 10 10 10 38.597656 0 70 31.402344 70 70v16c0 5.519531 4.476562 10 10 10s10-4.480469 10-10v-16c0-38.597656 31.402344-70 70-70 5.523438 0 10-4.480469 10-10 0-5.523438-4.476562-10-10-10zm-34-120.808594c0 23.949219-19.484375 43.433594-43.433594 43.433594-2.378906 0-4.316406-1.9375-4.316406-4.316406v-50.683594c0-12.925781 3.460938-25.054688 9.5625-35.472656.535156-.671875.984375-1.402344 1.328125-2.179688 8.453125-13.289062 21.328125-23.539062 36.859375-28.660156zm-46-181.6875c27.644531 10.042969 46 36.070313 46 65.730469v17.289063c-17.820312 4.53125-33.917969 14.441406-45.996094 28.480468-12.019531-13.980468-28.046875-23.933594-46.003906-28.488281v-17.28125c0-29.660156 18.355469-55.6875 46-65.730469zm-46 181.6875v-77.855468c13.710938 4.566406 25.6875 13.292968 34.285156 25.0625-6.535156 12.660156-10.035156 26.789062-10.035156 41.226562v50.550781c-14.53125-7.15625-24.25-22.128906-24.25-38.984375zm0 0"/></svg>