<svg height="511pt" viewBox="1 -27 511.99818 511" width="511pt" xmlns="http://www.w3.org/2000/svg"><path d="m295.3125 133.105469c-12.644531 0-24.195312 4.636719-33.074219 12.285156-4.664062-35.582031-35.09375-63.054687-71.949219-63.054687-37.003906 0-67.535156 27.691406-72.011718 63.480468-6.351563-3.601562-13.683594-5.667968-21.503906-5.667968-24.121094 0-43.671876 19.554687-43.671876 43.671874h292.925782c0-28.011718-22.707032-50.714843-50.714844-50.714843zm0 0" fill="#dca98b"/><path d="m482.03125 141.863281h-52.78125v-39.960937h52.78125c11.035156 0 19.980469 8.945312 19.980469 19.980468 0 11.035157-8.945313 19.980469-19.980469 19.980469zm0 0" fill="#ff6977"/><path d="m336.519531 343.660156h-234.402343c-10.574219 0-20.332032-5.691406-25.539063-14.894531l-63.738281-112.667969c-8.15625-14.417968 2.261718-32.277344 18.824218-32.277344h347.636719zm0 0" fill="#9bc6ff"/><path d="m98.664062 403.597656c0 24.484375-19.84375 44.332032-44.328124 44.332032-24.484376 0-44.332032-19.847657-44.332032-44.332032 0-24.480468 19.847656-44.328125 44.332032-44.328125 24.484374 0 44.328124 19.847657 44.328124 44.328125zm0 0" fill="#98a1b3"/><path d="m207.457031 26.476562c-13.738281 13.738282-18.601562 32.972657-14.621093 50.621094 17.648437 3.980469 36.882812-.882812 50.621093-14.621094 13.738281-13.738281 18.601563-32.976562 14.621094-50.621093-17.644531-3.980469-36.882813.882812-50.621094 14.621093zm0 0" fill="#cbe558"/><path d="m175.523438 26.476562c13.734374 13.738282 18.597656 32.972657 14.621093 50.621094-17.648437 3.980469-36.886719-.882812-50.621093-14.621094-13.738282-13.738281-18.601563-32.976562-14.621094-50.621093 17.644531-3.980469 36.882812.882812 50.621094 14.621093zm0 0" fill="#cbe558"/><path d="m482.03125 91.914062h-52.78125c-5.515625 0-9.988281 4.472657-9.988281 9.988282v9.988281h-7.988281c-13.253907 0-24.953126 8.929687-28.453126 21.714844l-11.019531 40.257812c-.21875-.015625-.4375-.035156-.660156-.035156h-15.960937c-4.777344-28.734375-29.796876-50.714844-59.867188-50.714844-9.261719 0-18.332031 2.125-26.542969 6.121094-6.492187-19.816406-20.261719-36.195313-37.964843-46.210937 7.226562-3.175782 13.925781-7.691407 19.714843-13.484376 15.742188-15.742187 22.210938-38.125 17.304688-59.882812-.847657-3.761719-3.785157-6.699219-7.546875-7.546875-21.757813-4.90625-44.140625 1.5625-59.882813 17.300781-3.414062 3.414063-6.386719 7.136719-8.90625 11.097656-2.515625-3.960937-5.492187-7.683593-8.902343-11.097656-15.742188-15.738281-38.128907-22.210937-59.882813-17.300781-3.761719.847656-6.699219 3.785156-7.546875 7.546875-4.90625 21.757812 1.558594 44.144531 17.300781 59.882812 5.429688 5.429688 11.648438 9.75 18.359375 12.886719-19.070312 10.40625-33.714844 28.132813-39.890625 49.636719-4.59375-1.257812-9.359375-1.902344-14.152343-1.902344-26.175782 0-48.015626 18.839844-52.714844 43.667969h-12.394532c-11.371093 0-21.582031 5.867187-27.3125 15.691406-5.726562 9.824219-5.804687 21.597657-.207031 31.496094l63.738281 112.667969c4.546876 8.035156 11.71875 14.066406 20.078126 17.300781l-5.503907 6.15625c-8.207031-4.988281-17.835937-7.859375-28.121093-7.859375-29.953126 0-54.320313 24.367188-54.320313 54.320312 0 29.949219 24.367187 54.320313 54.320313 54.320313 29.953124 0 54.320312-24.371094 54.320312-54.320313 0-12.464843-4.230469-23.953124-11.316406-33.128906l15.035156-16.824218h70.101562l47.777344 93.097656c3.582032 6.980468 10.683594 11.316406 18.53125 11.316406s14.949219-4.335938 18.53125-11.320312l47.777344-93.09375h20.582031c4.503907 0 8.449219-3.007813 9.636719-7.351563l56.773438-207.414063c1.132812-4.128906 4.90625-7.007812 9.1875-7.007812h7.984374v9.988281c0 5.515625 4.472657 9.988281 9.992188 9.988281h52.777344c16.527344 0 29.972656-13.441406 29.972656-29.96875 0-16.523437-13.445312-29.96875-29.96875-29.96875zm-267.507812-58.375c9.285156-9.285156 21.933593-13.902343 34.796874-12.925781.972657 12.867188-3.640624 25.511719-12.925781 34.796875-9.289062 9.289063-21.933593 13.902344-34.796875 12.925782-.058594-.796876-.097656-1.589844-.117187-2.382813.011719-.535156.011719-1.074219.007812-1.609375.15625-11.457031 4.707031-22.480469 13.035157-30.804688zm-80.863282-12.925781c12.859375-.972656 25.511719 3.636719 34.796875 12.925781 8.328125 8.328126 12.878907 19.351563 13.035157 30.8125-.003907.53125-.003907 1.066407.007812 1.601563-.019531.792969-.058594 1.589844-.117188 2.386719-12.863281.96875-25.507812-3.640625-34.796874-12.925782-9.289063-9.289062-13.898438-21.933593-12.925782-34.800781zm-79.324218 417.324219c-18.9375 0-34.339844-15.402344-34.339844-34.339844 0-18.933594 15.402344-34.339844 34.339844-34.339844 18.933593 0 34.339843 15.40625 34.339843 34.339844 0 18.9375-15.40625 34.339844-34.339843 34.339844zm195.207031-.316406c-.085938.171875-.238281.460937-.757813.460937-.519531 0-.667968-.289062-.753906-.460937l-43.09375-83.972656h87.699219zm78.511719-103.953125h-225.9375c-6.960938 0-13.417969-3.765625-16.847657-9.824219l-63.734375-112.664062c-2.96875-5.253907-.9375-9.859376.078125-11.59375 1.011719-1.738282 4.019531-5.777344 10.050781-5.777344h118.664063c5.519531 0 9.992187-4.472656 9.992187-9.988282 0-5.519531-4.472656-9.992187-9.992187-9.992187h-85.722656c4.265625-13.707031 17.070312-23.6875 32.167969-23.6875 5.804687 0 11.539062 1.507813 16.574218 4.367187 2.902344 1.644532 6.433594 1.730469 9.410156.238282 2.980469-1.496094 5.019532-4.378906 5.433594-7.6875 3.902344-31.203125 30.597656-54.734375 62.097656-54.734375 31.308594 0 57.980469 23.375 62.042969 54.367187.476563 3.640625 2.910157 6.722656 6.34375 8.035156 3.429688 1.308594 7.300781.632813 10.082031-1.765624 7.382813-6.363282 16.816407-9.867188 26.554688-9.867188 19.011719 0 35.015625 13.09375 39.480469 30.738281h-104.542969c-5.519531 0-9.992188 4.472657-9.992188 9.988281 0 5.519532 4.472657 9.992188 9.992188 9.992188h136.089844zm153.976562-201.796875h-42.789062v-19.980469h42.789062c5.507812 0 9.988281 4.484375 9.988281 9.992187 0 5.507813-4.480469 9.988282-9.988281 9.988282zm0 0"/><path d="m190.285156 173.828125c-2.628906 0-5.207031 1.070313-7.0625 2.925781-1.859375 1.859375-2.929687 4.4375-2.929687 7.0625 0 2.628906 1.070312 5.207032 2.929687 7.066406 1.867188 1.867188 4.433594 2.925782 7.0625 2.925782 2.636719 0 5.203125-1.058594 7.0625-2.925782 1.867188-1.859374 2.925782-4.4375 2.925782-7.066406 0-2.625-1.058594-5.203125-2.925782-7.0625-1.859375-1.855468-4.425781-2.925781-7.0625-2.925781zm0 0"/><path d="m54.339844 393.605469c-2.636719 0-5.203125 1.070312-7.070313 2.929687-1.859375 1.855469-2.929687 4.433594-2.929687 7.0625 0 2.625 1.070312 5.203125 2.929687 7.0625 1.867188 1.859375 4.433594 2.925782 7.070313 2.925782 2.628906 0 5.195312-1.066407 7.0625-2.925782 1.859375-1.859375 2.917968-4.4375 2.917968-7.0625 0-2.628906-1.058593-5.207031-2.917968-7.0625-1.867188-1.859375-4.433594-2.929687-7.0625-2.929687zm0 0"/></svg>