<svg height="512pt" viewBox="0 0 512 512.00034" width="512pt" xmlns="http://www.w3.org/2000/svg"><path d="m501.992188 430h-111.617188c-30.042969 0-57.71875 15.363281-74.535156 40.257812-12.941406 19.152344-34.851563 31.742188-59.703125 31.742188-24.855469 0-46.765625-12.589844-59.703125-31.742188-16.820313-24.894531-44.496094-40.257812-74.539063-40.257812h-111.894531v72h491.992188zm0 0" fill="#dca98b"/><path d="m305.046875 256.003906h-61.617187c-40.703126 0-79.730469-16.199218-108.46875-45.019531h-124.960938v-133.25l121.65625.003906 15.21875-15.261719c21.503906-21.570312 48.953125-36.238281 78.835938-42.128906l50.125-9.882812c13.078124-2.582032 25.722656 6.085937 28.039062 19.214844 2.175781 12.34375-5.597656 24.257812-17.769531 27.242187l-25.695313 6.296875c-3.9375.96875-3.238281 6.765625.816406 6.765625h155.492188c12.859375 0 23.285156 10.421875 23.285156 23.28125s-10.421875 23.285156-23.285156 23.285156h-105.457031l8.285156-.082031h119.164063c12.859374 0 23.28125 10.425781 23.28125 23.285156 0 12.855469-10.421876 23.28125-23.28125 23.28125h-127.449219l8.285156-.082031h97.171875c12.859375 0 23.285156 10.425781 23.285156 23.285156s-10.421875 23.28125-23.285156 23.28125h-105.457031l8.285156-.082031h72.84375c12.859375 0 23.285156 10.425781 23.285156 23.285156s-10.425781 23.285156-23.285156 23.285156h-122.269531 34.925781zm0 0" fill="#f2d1a5"/><path d="m278.710938 360.152344c-9.035157 13.121094-2.328126 31.226562 13.070312 35.304687 19.585938 5.1875 41.53125.421875 56.796875-14.425781 15.757813-15.324219 21.128906-37.210938 16.113281-57.011719-3.976562-15.699219-22.25-22.78125-35.753906-13.84375l-.640625.425781c-4.792969 3.175782-8.121094 8.066407-9.566406 13.628907-3.277344 12.605469-13.308594 22.589843-25.933594 25.800781-5.488281 1.398438-10.320313 4.652344-13.53125 9.316406zm0 0" fill="#ffcb7c"/><path d="m220.742188 222.6875c-13.121094-9.035156-31.226563-2.328125-35.304688 13.070312-5.191406 19.585938-.421875 41.53125 14.425781 56.800782 15.324219 15.753906 37.210938 21.125 57.011719 16.109375 15.695312-3.976563 22.78125-22.25 13.839844-35.753907l-.425782-.640624c-3.171874-4.792969-8.0625-8.121094-13.628906-9.566407-12.601562-3.277343-22.585937-13.304687-25.800781-25.933593-1.394531-5.488282-4.648437-10.320313-9.3125-13.53125zm0 0" fill="#ffcb7c"/><path d="m10 220.984375h120.886719c12.5625 11.972656 26.851562 21.785156 42.542969 29.234375-.285157 18.285156 6.503906 36.191406 19.265624 49.308594 13.167969 13.542968 31.226563 20.941406 49.710938 20.941406 5.640625 0 11.328125-.691406 16.925781-2.105469 10.515625-2.664062 19.125-10.292969 23.035157-20.410156 3.910156-10.101563 2.667968-21.527344-3.3125-30.5625l-.425782-.640625c-.167968-.253906-.34375-.5-.519531-.746094h114.28125c18.351563 0 33.285156-14.933594 33.285156-33.285156 0-4.902344-1.074219-9.554688-2.984375-13.746094 15.511719-2.824218 27.3125-16.425781 27.3125-32.738281 0-5.078125-1.148437-9.894531-3.191406-14.203125 14.449219-3.628906 25.179688-16.722656 25.179688-32.28125s-10.730469-28.652344-25.179688-32.28125c2.042969-4.3125 3.191406-9.125 3.191406-14.203125 0-18.351563-14.929687-33.285156-33.285156-33.285156h-114.925781c9.183593-7.527344 14.109375-19.664063 11.929687-32.042969-1.589844-9.015625-6.625-16.832031-14.179687-22.007812-7.554688-5.175782-16.660157-7.050782-25.644531-5.277344l-50.121094 9.882812c-31.949219 6.300782-60.992188 21.820313-83.984375 44.878906l-12.285157 12.324219-77.507812-.003906c-5.523438 0-10 4.480469-10 10 0 5.523437 4.476562 10 10 10l81.65625.003906c2.65625 0 5.207031-1.058593 7.082031-2.941406l15.21875-15.261719c20.175781-20.234375 45.65625-33.851562 73.691407-39.378906l50.121093-9.882812c3.667969-.722657 7.386719.042968 10.46875 2.15625 3.082031 2.109374 5.136719 5.300781 5.789063 8.984374 1.257812 7.132813-3.269532 14.070313-10.304688 15.792969l-25.691406 6.300781c-6.703125 1.640626-10.964844 7.804688-10.136719 14.652344.824219 6.851563 6.433594 11.820313 13.332031 11.820313h155.492188c7.328125 0 13.285156 5.960937 13.285156 13.285156 0 6.835937-5.191406 12.476563-11.839844 13.199219h-98.617187c-.414063 0-.820313.035156-1.222656.082031h-7.0625c-5.523438 0-10 4.480469-10 10 0 5.523437 4.476562 10 10 10h105.457031c.746094 0 1.484375-.03125 2.21875-.082031h19.773438c7.324218 0 13.28125 5.960937 13.28125 13.285156s-5.957032 13.285156-13.28125 13.285156h-19.773438c-.734375-.050781-1.472656-.082031-2.21875-.082031h-97.171875c-.414063 0-.820313.03125-1.222656.082031h-7.0625c-5.523438 0-10 4.476563-10 10 0 5.523438 4.476562 10 10 10h106.898437c6.648438.71875 11.84375 6.363282 11.84375 13.199219 0 7.324219-5.960937 13.285156-13.285156 13.285156h-22.113281c-.730469-.050781-1.46875-.082031-2.214844-.082031h-72.847656c-.414063 0-.820313.03125-1.222657.082031h-7.0625c-5.519531 0-10 4.476563-10 10 0 5.523438 4.480469 10 10 10h82.574219c6.648438.722657 11.839844 6.363281 11.839844 13.199219 0 7.328125-5.957031 13.285156-13.285156 13.285156h-145.199219c-3.160156-3.230468-5.507812-7.257812-6.636719-11.695312-2.011719-7.914063-6.746093-14.769532-13.332031-19.300782l-.804688-.558593c-8.835937-6.082031-20.121093-7.492188-30.183593-3.765625-8.878907 3.285156-15.875 10.226562-19.285157 18.941406-12.875-6.742188-24.589843-15.359375-34.902343-25.699219-1.875-1.882812-4.425781-2.941406-7.082031-2.941406h-124.960938c-5.523438 0-10 4.476563-10 10s4.476562 10 10 10zm185.101562 17.335937c1.101563-4.15625 4.042969-7.390624 8.070313-8.882812 1.496094-.554688 3.035156-.824219 4.558594-.824219 2.578125 0 5.117187.78125 7.339843 2.3125l.804688.554688c2.597656 1.785156 4.476562 4.542969 5.292969 7.757812 4.128906 16.230469 16.765625 28.933594 32.976562 33.144531 3.292969.855469 6.066407 2.777344 7.808594 5.410157l.425781.644531c2.445313 3.691406 2.933594 8.175781 1.335938 12.308594-1.601563 4.136718-4.988282 7.136718-9.296875 8.230468-17.007813 4.304688-35.164063-.824218-47.386719-13.390624-11.851562-12.1875-16.425781-30.300782-11.929688-47.265626zm0 0"/><path d="m501.992188 420h-111.617188c-32.96875 0-63.933594 16.695312-82.824219 44.660156-11.5625 17.117188-30.785156 27.339844-51.414062 27.339844-20.628907 0-39.851563-10.222656-51.417969-27.339844-18.890625-27.964844-49.851562-44.660156-82.820312-44.660156h-111.898438c-5.523438 0-10 4.480469-10 10 0 5.523438 4.476562 10 10 10h111.898438c26.316406 0 51.082031 13.402344 66.25 35.855469 15.289062 22.632812 40.707031 36.144531 67.988281 36.144531s52.699219-13.511719 67.988281-36.144531c15.167969-22.449219 39.933594-35.855469 66.25-35.855469h111.621094c5.519531 0 10-4.476562 10-10 0-5.519531-4.480469-10-10.003906-10zm0 0"/><path d="m353.976562 298.527344c-10.105468-3.910156-21.53125-2.667969-30.558593 3.3125l-.644531.425781c-6.75 4.46875-11.625 11.375-13.722657 19.449219-2.34375 9.019531-9.691406 16.332031-18.722656 18.628906-7.914063 2.011719-14.765625 6.746094-19.300781 13.332031l-.554688.804688c-6.082031 8.835937-7.492187 20.117187-3.769531 30.183593 3.722656 10.0625 12.140625 17.710938 22.515625 20.460938 5.988281 1.585938 12.078125 2.359375 18.125 2.359375 17.898438-.003906 35.351562-6.78125 48.207031-19.285156 17.675781-17.1875 24.890625-42.722657 18.832031-66.636719-2.664062-10.515625-10.292968-19.128906-20.40625-23.035156zm-12.367187 75.335937c-12.1875 11.851563-30.300781 16.425781-47.269531 11.929688-4.152344-1.101563-7.386719-4.042969-8.878906-8.070313-1.488282-4.027344-.949219-8.363281 1.484374-11.898437l.554688-.804688c1.785156-2.597656 4.542969-4.476562 7.757812-5.292969 16.234376-4.128906 28.933594-16.765624 33.148438-32.976562.855469-3.292969 2.777344-6.066406 5.40625-7.808594l.644531-.425781c2.261719-1.5 4.820313-2.261719 7.410157-2.261719 1.640624 0 3.296874.304688 4.898437.925782 4.140625 1.601562 7.140625 4.988281 8.230469 9.296874 4.308594 17.007813-.820313 35.164063-13.386719 47.386719zm0 0"/><path d="m10 87.738281c-5.511719 0-9.984375-4.460937-10-9.976562-.015625-5.519531 4.449219-10.007813 9.972656-10.023438h.1875c5.539063-.023437 10.011719 4.449219 10.027344 9.972657.015625 5.523437-4.449219 10.011718-9.972656 10.027343h-.1875c-.007813 0-.019532 0-.027344 0zm0 0"/></svg>