<svg height="512pt" viewBox="-26 0 512 512" width="512pt" xmlns="http://www.w3.org/2000/svg"><path d="m151.648438 153.246094h-16.527344c-18.292969 0-33.121094-14.832032-33.121094-33.125 0-18.292969 14.828125-33.121094 33.121094-33.121094h189.757812c18.292969 0 33.121094 14.828125 33.121094 33.121094 0 18.292968-14.828125 33.125-33.121094 33.125zm0 0" fill="#ffb48e"/><path d="m274 281.054688 135.65625 27.378906c23.46875 4.734375 40.34375 25.355468 40.34375 49.296875v144.269531h-440v-144.242188c0-23.953124 16.890625-44.582031 40.371094-49.304687l136.191406-27.398437v-35.371094h87.4375zm0 0" fill="#ffcb7c"/><path d="m274 278.707031c0 24.144531-19.574219 43.71875-43.71875 43.71875s-43.71875-19.574219-43.71875-43.71875v-33.023437h87.4375zm0 0" fill="#f2d1a5"/><path d="m313.933594 288.359375v121.132813h-168.492188v-120.332032l-63.207031 14.671875v198.167969h294.90625v-198.167969zm0 0" fill="#79b2ff"/><path d="m150 143.710938v48.410156c0 44.183594 35.816406 80 80 80s80-35.816406 80-80v-48.410156c0-10.886719-8.824219-19.710938-19.710938-19.710938h-120.578124c-10.886719 0-19.710938 8.824219-19.710938 19.710938zm0 0" fill="#f2d1a5"/><path d="m276.007812 10h-92.015624c-17.863282 0-32.34375 14.480469-32.34375 32.34375v44.65625h156.703124v-44.65625c0-17.863281-14.480468-32.34375-32.34375-32.34375zm0 0" fill="#ffc15a"/><path d="m411.636719 298.628906-127.636719-25.757812v-8.796875c21.847656-16.433594 36-42.570313 36-71.953125v-28.875h4.878906c23.777344 0 43.121094-19.34375 43.121094-43.125 0-23.777344-19.34375-43.121094-43.121094-43.121094h-6.527344v-34.65625c0-23.347656-18.996093-42.34375-42.34375-42.34375h-92.019531c-23.347656 0-42.339843 18.996094-42.339843 42.34375v34.65625h-6.527344c-23.777344 0-43.121094 19.34375-43.121094 43.121094 0 23.78125 19.34375 43.125 43.121094 43.125h4.878906v28.875c0 29.632812 14.398438 55.964844 36.5625 72.371094v8.371093l-128.164062 25.785157c-28.042969 5.644531-48.398438 30.5-48.398438 59.109374v144.242188c0 5.523438 4.476562 10 10 10h440c5.523438 0 10-4.476562 10-10v-144.269531c0-28.589844-20.339844-53.445313-48.363281-59.101563zm-44.496094 100.863282h-43.207031v-98.15625l43.207031 8.71875zm-170.578125-123.816407c10.34375 4.15625 21.628906 6.445313 33.4375 6.445313 12.027344 0 23.503906-2.375 34-6.675782v3.261719c0 18.59375-15.125 33.71875-33.71875 33.71875s-33.71875-15.125-33.71875-33.71875zm-34.914062-233.332031c0-12.320312 10.023437-22.34375 22.339843-22.34375h92.019531c12.320313 0 22.34375 10.023438 22.34375 22.34375v34.65625h-136.703124zm-49.648438 77.777344c0-12.75 10.371094-23.121094 23.121094-23.121094h189.753906c12.753906 0 23.125 10.371094 23.125 23.121094s-10.371094 23.125-23.121094 23.125h-4.890625c-.25-16.167969-13.472656-29.246094-29.699219-29.246094h-120.578124c-16.226563 0-29.449219 13.078125-29.699219 29.246094h-4.890625c-12.75 0-23.121094-10.375-23.121094-23.125zm48 72v-48.410156c0-5.355469 4.355469-9.710938 9.710938-9.710938h120.578124c5.355469 0 9.710938 4.355469 9.710938 9.710938v48.410156c0 38.601562-31.402344 70-70 70s-70-31.402344-70-70zm-24.558594 207.371094h-43.207031v-89.261719l43.207031-8.691407zm-115.441406-41.734376c0-19.117187 13.601562-35.730468 32.34375-39.5l19.894531-4.003906v177.746094h-52.238281zm72.234375 134.242188v-72.507812h97.453125c5.523438 0 10-4.480469 10-10 0-5.523438-4.476562-10-10-10h-34.246094v-101.976563l23.03125-4.632813c6.238282 22.761719 27.09375 39.542969 51.808594 39.542969 24.710938 0 45.566406-16.777343 51.804688-39.539062l21.847656 4.410156v102.195313h-34.246094c-5.523438 0-10 4.476562-10 10 0 5.519531 4.476562 10 10 10h97.453125v72.507812zm347.765625 0h-52.859375v-177.910156l20.539063 4.144531c18.726562 3.78125 32.320312 20.390625 32.320312 39.496094zm0 0"/><path d="m230.296875 233.09375c7.730469 0 15.464844-2.945312 21.351563-8.832031 3.90625-3.902344 3.90625-10.234375 0-14.140625-3.902344-3.90625-10.234376-3.90625-14.140626 0-3.976562 3.976562-10.449218 3.976562-14.425781 0-3.90625-3.90625-10.238281-3.90625-14.144531 0-3.902344 3.90625-3.902344 10.238281 0 14.140625 5.890625 5.886719 13.625 8.832031 21.359375 8.832031zm0 0"/><path d="m106.769531 381.398438c1.859375 1.871093 4.441407 2.929687 7.070313 2.929687s5.210937-1.058594 7.070312-2.929687c1.859375-1.859376 2.929688-4.429688 2.929688-7.070313 0-2.628906-1.070313-5.207031-2.929688-7.066406-1.859375-1.863281-4.441406-2.933594-7.070312-2.933594s-5.210938 1.070313-7.070313 2.933594c-1.859375 1.859375-2.929687 4.4375-2.929687 7.066406 0 2.640625 1.070312 5.210937 2.929687 7.070313zm0 0"/><path d="m338.46875 381.398438c1.859375 1.871093 4.429688 2.929687 7.070312 2.929687 2.632813 0 5.210938-1.058594 7.070313-2.929687 1.859375-1.859376 2.929687-4.4375 2.929687-7.070313 0-2.628906-1.070312-5.207031-2.929687-7.066406-1.859375-1.863281-4.4375-2.933594-7.070313-2.933594-2.628906 0-5.210937 1.070313-7.070312 2.933594-1.859375 1.859375-2.929688 4.4375-2.929688 7.066406 0 2.640625 1.070313 5.210937 2.929688 7.070313zm0 0"/><path d="m195.238281 178.328125c2.632813 0 5.210938-1.058594 7.070313-2.917969 1.863281-1.871094 2.929687-4.449218 2.929687-7.082031 0-2.628906-1.066406-5.207031-2.929687-7.066406-1.859375-1.863281-4.4375-2.933594-7.070313-2.933594-2.628906 0-5.207031 1.070313-7.066406 2.933594-1.863281 1.859375-2.933594 4.4375-2.933594 7.066406 0 2.640625 1.070313 5.210937 2.933594 7.082031 1.859375 1.859375 4.4375 2.917969 7.066406 2.917969zm0 0"/><path d="m264.109375 178.328125c2.628906 0 5.199219-1.058594 7.070313-2.917969 1.859374-1.871094 2.929687-4.441406 2.929687-7.082031 0-2.628906-1.070313-5.207031-2.929687-7.066406-1.871094-1.863281-4.441407-2.933594-7.070313-2.933594-2.640625 0-5.210937 1.070313-7.078125 2.933594-1.859375 1.859375-2.929688 4.4375-2.929688 7.066406 0 2.640625 1.070313 5.210937 2.929688 7.082031 1.867188 1.859375 4.449219 2.917969 7.078125 2.917969zm0 0"/><path d="m230.28125 399.488281c-2.632812 0-5.210938 1.070313-7.070312 2.933594-1.859376 1.859375-2.929688 4.4375-2.929688 7.066406 0 2.632813 1.070312 5.210938 2.929688 7.070313 1.859374 1.859375 4.4375 2.929687 7.070312 2.929687 2.628906 0 5.207031-1.066406 7.070312-2.929687 1.859376-1.859375 2.929688-4.4375 2.929688-7.070313 0-2.628906-1.070312-5.207031-2.929688-7.066406-1.863281-1.863281-4.429687-2.933594-7.070312-2.933594zm0 0"/></svg>