<svg height="512pt" viewBox="-27 0 512 512" width="512pt" xmlns="http://www.w3.org/2000/svg"><path d="m126 10h322v48h-322zm0 0" fill="#ffcb7c"/><path d="m126 358h322v48h-322zm0 0" fill="#ffcb7c"/><path d="m448 58h-322l28.953125 38.75v221.75l-28.953125 39.5h322l-28.867188-39.5v-221.75zm0 0" fill="#ffd89e"/><path d="m10 106h322v48h-322zm0 0" fill="#ffcb7c"/><path d="m10 454h322v48h-322zm0 0" fill="#ffcb7c"/><path d="m332 154h-322l28.953125 38.75v221.75l-28.953125 39.5h322l-28.867188-39.5v-221.75zm0 0" fill="#ffd89e"/><path d="m254 297.175781c-9.765625 0-18.933594-4.675781-24.695312-12.558593-.117188-.160157-.238282-.316407-.355469-.476563-.183594-.242187-.210938-.566406-.066407-.832031l12.992188-24.460938c-8.671875-4.605468-19.4375-1.308594-24.046875 7.363282l-2.898437 5.148437c-7.605469-4.65625-16.546876-7.34375-26.117188-7.34375h-49.722656c-27.664063 0-50.089844 22.425781-50.089844 50.085937 0 9.792969 3.773438 18.398438 7.667969 26.640626 7.433593 15.730468 12.765625 48.042968 12.765625 48.042968h28.777344l-5.527344-9.183594 3.066406-16.753906c3.714844.878906 7.585938 1.34375 11.566406 1.34375h31.445313c1.089843 0 2.167969-.039062 3.238281-.105468 2.78125 12.421874 4.328125 24.699218 4.328125 24.699218h30.597656s-3.316406-7.777344-5.527343-9.183594l4.246093-23.199218c9.308594-5.917969 16.527344-14.828125 20.316407-25.371094h13.214843c2.664063 0 4.824219-2.160156 4.824219-4.820312zm0 0" fill="#f8a2aa"/><path d="m458 10c0-5.523438-4.476562-10-10-10h-322c-5.523438 0-10 4.476562-10 10v48c0 2.246094.75 4.308594 1.996094 5.980469 0 0-.003906.003906-.007813.003906l23.921875 32.015625h-131.910156c-5.523438 0-10 4.476562-10 10v48c0 2.242188.746094 4.308594 1.996094 5.976562-.003906.003907-.003906.003907-.007813.007813l26.964844 36.089844v215.152343l-27.019531 36.859376c.003906.003906.007812.003906.011718.007812-1.21875 1.65625-1.945312 3.695312-1.945312 5.90625v48c0 5.523438 4.476562 10 10 10h121c5.523438 0 10-4.476562 10-10s-4.476562-10-10-10h-111v-28h302v28h-111c-5.523438 0-10 4.476562-10 10s4.476562 10 10 10h121c5.523438 0 10-4.476562 10-10v-48c0-2.203125-.722656-4.234375-1.929688-5.890625 0-.003906 0-.003906.003907-.007813l-23.460938-32.101562h131.386719c5.523438 0 10-4.476562 10-10v-48c0-2.207031-.722656-4.238281-1.933594-5.894531.003906 0 .003906-.003907.007813-.007813l-26.941407-36.863281v-215.167969l26.886719-36.09375s-.003906-.003906-.007812-.003906c1.242187-1.667969 1.988281-3.730469 1.988281-5.96875zm-322 10h302v28h-302zm26.964844 70.765625-17.011719-22.765625h282.125l-16.96875 22.777344c-1.285156 1.726562-1.976563 3.820312-1.976563 5.972656v221.75c0 2.121094.671876 4.1875 1.925782 5.898438l17.246094 23.601562h-115.171876v-151.933594l26.886719-36.09375s-.003906-.003906-.007812-.007812c1.246093-1.667969 1.988281-3.726563 1.988281-5.964844v-48c0-5.523438-4.476562-10-10-10h-167.078125c-.140625-1.890625-.816406-3.707031-1.957031-5.234375zm-142.964844 25.234375h302v28h-302zm9.730469 328 17.289062-23.589844c1.253907-1.714844 1.933594-3.785156 1.933594-5.910156v-221.75c0-2.15625-.695313-4.257812-1.988281-5.984375l-17.011719-22.765625h282.125l-16.96875 22.777344c-1.285156 1.726562-1.976563 3.820312-1.976563 5.972656v221.75c0 2.121094.671876 4.1875 1.925782 5.898438l17.246094 23.601562zm408.269531-48h-124.867188v-28h124.867188zm0 0"/><path d="m254 287.175781c-4.882812 0-9.585938-1.765625-13.265625-4.863281l9.972656-18.773438c1.242188-2.339843 1.507813-5.082031.730469-7.617187s-2.527344-4.660156-4.871094-5.90625c-12.382812-6.578125-27.550781-2.8125-35.542968 8.25-7.03125-2.796875-14.5625-4.25-22.214844-4.25h-49.71875c-13.996094 0-26.875 4.820313-37.101563 12.871094-.222656.152343-.445312.308593-.660156.480469-1.648437 1.339843-4.4375 2.878906-8.363281 2.566406-2.015625-.15625-3.847656-1.089844-5.160156-2.625-1.308594-1.535156-1.941407-3.492188-1.78125-5.507813.175781-2.242187 2.152343-3.933593 4.390624-3.746093 5.507813.421874 10.316407-3.6875 10.746094-9.191407.433594-5.503906-3.683594-10.316406-9.1875-10.75-13.222656-1.023437-24.832031 8.878907-25.886718 22.101563-.585938 7.34375 1.726562 14.476562 6.511718 20.078125 3.285156 3.847656 7.460938 6.65625 12.136719 8.226562-3.671875 7.765625-5.734375 16.4375-5.734375 25.582031 0 11.683594 4.261719 21.675782 8.628906 30.914063 5.59375 11.84375 10.515625 36.785156 11.9375 45.398437.796875 4.828126 4.972656 8.371094 9.867188 8.371094h28.773437c3.605469 0 6.929688-1.941406 8.703125-5.078125 1.773438-3.136719 1.726563-6.988281-.132812-10.078125l-3.535156-5.875.703124-3.5625h29.917969c1.625 8.65625 2.53125 15.753906 2.542969 15.847656.632812 4.996094 4.886719 8.746094 9.921875 8.746094h30.59375c3.359375 0 6.492187-1.6875 8.34375-4.488281s2.171875-6.34375.855469-9.433594c-1.476563-3.464843-2.84375-6.039062-4.0625-7.960937l2.679687-14.636719c7.484375-5.601563 13.601563-12.910156 17.789063-21.234375h6.648437c8.175781 0 14.824219-6.648438 14.824219-14.824219v-29.03125c0-5.523437-4.476562-10-10-10zm-10 33.855469h-8.039062c-4.21875 0-7.984376 2.648438-9.410157 6.621094-2.992187 8.328125-8.773437 15.542968-16.269531 20.3125-2.351562 1.492187-3.972656 3.898437-4.472656 6.636718l-4.246094 23.199219c-.058594.328125-.101562.65625-.128906.984375h-6.46875c-.753906-4.6875-1.832032-10.742187-3.207032-16.886718-1.074218-4.800782-5.46875-8.113282-10.394531-7.792969-.894531.054687-1.769531.085937-2.601562.085937h-31.527344c-.679687-3.972656-3.734375-7.300781-7.921875-8.128906-5.421875-1.066406-10.675781 2.453125-11.75 7.871094l-4.6875 23.726562c-.074219.375-.125.75-.15625 1.125h-4.953125c-2.171875-11.089844-6.496094-30.554687-12.054687-42.316406-3.671876-7.765625-6.710938-14.8125-6.710938-22.367188 0-22.105468 17.984375-40.089843 40.089844-40.089843h49.722656c7.394531 0 14.617188 2.03125 20.894531 5.875 2.316407 1.417969 5.109375 1.832031 7.738281 1.152343.648438-.167968 1.277344-.402343 1.871094-.691406-1.0625 3.296875-.480468 6.984375 1.644532 9.808594l.269531.363281c5.613281 7.675781 13.734375 13.074219 22.769531 15.390625zm0 0"/><path d="m213.671875 294c-2.632813 0-5.210937 1.070312-7.070313 2.929688-1.871093 1.859374-2.929687 4.441406-2.929687 7.070312s1.058594 5.210938 2.929687 7.070312c1.859376 1.859376 4.429688 2.929688 7.070313 2.929688 2.628906 0 5.207031-1.070312 7.066406-2.929688 1.859375-1.859374 2.933594-4.441406 2.933594-7.070312s-1.070313-5.210938-2.933594-7.070312c-1.859375-1.859376-4.4375-2.929688-7.066406-2.929688zm0 0"/><path d="m171 492c-2.628906 0-5.210938 1.070312-7.070312 2.929688-1.859376 1.859374-2.929688 4.441406-2.929688 7.070312s1.070312 5.210938 2.929688 7.070312c1.859374 1.859376 4.441406 2.929688 7.070312 2.929688s5.210938-1.070312 7.070312-2.929688c1.859376-1.859374 2.929688-4.441406 2.929688-7.070312s-1.070312-5.210938-2.929688-7.070312c-1.859374-1.859376-4.441406-2.929688-7.070312-2.929688zm0 0"/></svg>