<svg height="512pt" viewBox="-95 0 512 512" width="512pt" xmlns="http://www.w3.org/2000/svg"><path d="m153.089844 190.664062-69.28125 257.335938h154.5l-69.28125-257.339844" fill="#fff"/><path d="m282.726562 502h-243.335937v-22.5c0-17.398438 14.105469-31.5 31.5-31.5h180.335937c17.394532 0 31.5 14.101562 31.5 31.5zm0 0" fill="#b5bcc9"/><path d="m193.058594 159.667969c0 17.671875-14.324219 32-32 32-17.671875 0-32-14.328125-32-32 0-17.675781 14.328125-32 32-32 17.675781 0 32 14.324219 32 32zm0 0" fill="#8690a6"/><g fill="#ffd89e"><path d="m182.976562 182.976562 88.664063 88.664063 40.476563-70.105469-120.515626-32.292968zm0 0"/><path d="m129.828125 152.691406-119.828125-32.109375 40.476562-70.105469 87.277344 87.277344zm0 0"/><path d="m168.992188 190.667969 32.542968 121.449219h-80.953125l32.542969-121.441407zm0 0"/><path d="m169.6875 128.855469 31.847656-118.855469h-80.953125l31.847657 118.855469zm0 0"/><path d="m130.515625 169.242188-120.515625 32.292968 40.476562 70.105469 88.667969-88.667969zm0 0"/><path d="m184.367188 137.753906 87.273437-87.277344 40.476563 70.105469-119.058594 31.902344zm0 0"/></g><path d="m314.707031 191.875-111.710937-29.933594c.03125-.589844.042968-1.183594.050781-1.78125l111.660156-29.917968c3-.804688 5.460938-2.960938 6.648438-5.832032 1.191406-2.875.976562-6.136718-.578125-8.828125l-40.476563-70.105469c-1.554687-2.695312-4.269531-4.511718-7.351562-4.917968-3.085938-.40625-6.179688.644531-8.378907 2.84375l-80.898437 80.898437c-.679687-.4375-1.371094-.855469-2.074219-1.253906l29.597656-110.460937c.804688-3.003907.164063-6.207032-1.726562-8.675782-1.890625-2.464844-4.824219-3.910156-7.933594-3.910156h-80.953125c-3.109375 0-6.039062 1.445312-7.933593 3.914062-1.890626 2.464844-2.527344 5.671876-1.726563 8.675782l29.597656 110.460937c-.703125.398438-1.394531.816407-2.074219 1.253907l-80.898437-80.898438c-2.199219-2.199219-5.292969-3.25-8.375-2.84375s-5.800781 2.222656-7.355469 4.914062l-40.476562 70.109376c-1.554688 2.691406-1.769532 5.953124-.578125 8.824218 1.191406 2.875 3.648437 5.027344 6.652343 5.832032l111.65625 29.921874c.007813.597657.019532 1.191407.050782 1.78125l-111.707032 29.933594c-3.003906.804688-5.460937 2.960938-6.652343 5.832032-1.1875 2.871093-.976563 6.132812.578125 8.828124l40.476562 70.105469c1.554688 2.691407 4.273438 4.507813 7.355469 4.914063.433594.058594.871094.085937 1.304687.085937 2.632813 0 5.183594-1.042969 7.070313-2.929687l82.628906-82.628906c.332031.191406.660157.382812.992188.566406l-30.246094 112.878906v.003906l-34.765625 128.464844h-5.265625c-22.882813 0-41.5 18.617188-41.5 41.5v22.5c0 5.523438 4.480469 10 10 10h81.667969c5.523437 0 10-4.476562 10-10s-4.476563-10-10-10h-71.667969v-12.5c0-11.855469 9.648437-21.5 21.5-21.5h180.335937c11.855469 0 21.5 9.644531 21.5 21.5v12.5h-71.667968c-5.519532 0-10 4.476562-10 10s4.480468 10 10 10h81.667968c5.523438 0 10-4.476562 10-10v-22.5c0-22.882812-18.617187-41.5-41.5-41.5h-5.265624l-22.101563-81.664062c-.109375-1.054688-.390625-2.058594-.804687-2.988282l-11.859376-43.8125c0-.003906 0-.003906 0-.003906l-30.246093-112.882812c.335937-.179688.660156-.375.992187-.566407l82.628906 82.628907c1.886719 1.890624 4.4375 2.929687 7.070313 2.929687.433594 0 .871094-.027344 1.308594-.085937 3.082031-.40625 5.796875-2.222657 7.351562-4.914063l40.476563-70.105469c1.554687-2.691406 1.769531-5.957031.578125-8.828125-1.1875-2.871093-3.648438-5.027343-6.648438-5.832031zm-153.648437-54.207031c12.132812 0 22 9.867187 22 22 0 12.128906-9.867188 22-22 22-12.128906 0-22-9.871094-22-22 0-12.132813 9.871094-22 22-22zm108.4375-70.90625 27.445312 47.535156-98.441406 26.378906c-.324219-.640625-.667969-1.273437-1.023438-1.890625zm-135.878906-46.761719h54.886718l-26.175781 97.699219c-.421875-.011719-.84375-.03125-1.269531-.03125-.421875 0-.84375.019531-1.265625.03125zm-80.996094 46.761719 72.019531 72.023437c-.355469.617188-.695313 1.25-1.023437 1.890625l-98.4375-26.378906zm0 188.59375-27.441406-47.535157 99.773437-26.734374c.238281.402343.488281.800781.742187 1.195312zm141.261718 66.761719 6.84375 25.292968h-79.335937l6.84375-25.292968zm-77.90625 45.292968h90.164063l6.84375 25.296875h-103.851563zm-19.101562 70.589844 6.84375-25.292969h114.679688l6.84375 25.292969zm91.628906-135.882812h-54.890625l26.921875-100.464844c.175782.003906.347656.011718.523438.011718.175781 0 .347656-.007812.523437-.011718zm80.992188-46.761719-73.074219-73.074219c.253906-.394531.503906-.792969.746094-1.195312l99.773437 26.734374zm0 0"/><path d="m161.058594 169.671875c2.628906 0 5.210937-1.070313 7.070312-2.933594 1.859375-1.859375 2.929688-4.4375 2.929688-7.066406 0-2.640625-1.070313-5.210937-2.929688-7.070313-1.859375-1.871093-4.441406-2.929687-7.070312-2.929687s-5.210938 1.058594-7.070313 2.929687c-1.859375 1.859376-2.929687 4.429688-2.929687 7.070313 0 2.628906 1.070312 5.207031 2.929687 7.066406 1.863281 1.863281 4.441407 2.933594 7.070313 2.933594zm0 0"/><path d="m161.058594 492c-2.628906 0-5.210938 1.070312-7.070313 2.929688-1.859375 1.859374-2.929687 4.441406-2.929687 7.070312s1.070312 5.210938 2.929687 7.070312c1.859375 1.859376 4.441407 2.929688 7.070313 2.929688s5.210937-1.070312 7.070312-2.929688c1.859375-1.859374 2.929688-4.441406 2.929688-7.070312s-1.070313-5.210938-2.929688-7.070312c-1.859375-1.859376-4.441406-2.929688-7.070312-2.929688zm0 0"/></svg>