<svg height="512pt" viewBox="0 0 512 512.001" width="512pt" xmlns="http://www.w3.org/2000/svg"><path d="m501.960938 502.003906v-492.003906c-11.878907 13.867188-29.503907 22.667969-49.195313 22.667969s-37.316406-8.800781-49.195313-22.667969c-11.878906 13.867188-29.503906 22.667969-49.195312 22.667969s-37.320312-8.800781-49.199219-22.667969c-11.878906 13.867188-29.503906 22.667969-49.195312 22.667969-19.691407 0-37.316407-8.800781-49.195313-22.667969-11.878906 13.867188-29.503906 22.667969-49.195312 22.667969s-37.316406-8.800781-49.199219-22.667969c-11.875 13.867188-29.503906 22.667969-49.195313 22.667969-19.691406 0-37.316406-8.800781-49.195312-22.667969v492.003906zm0 0" fill="#dff6fc"/><g fill="#79b2ff"><path d="m169.035156 296.285156.007813.003906c22.078125-8.589843 46.09375-13.304687 71.207031-13.304687 42.9375 0 82.652344 13.777344 114.980469 37.140625l12.511719-12.511719c-33.308594-40.851562-84.023438-66.941406-140.84375-66.941406-28.765626 0-55.96875 6.6875-80.140626 18.59375v.003906zm0 0"/><path d="m306.695312 490.484375 48.839844 10c11.71875 2.398437 22.691406-6.554687 22.691406-18.519531v-34.855469zm0 0"/><path d="m451.277344 392.492188c26.691406-4.78125 46.761718-33.25 48.792968-60.292969l1.890626-25.164063c-47.195313 0-85.457032 38.261719-85.457032 85.457032 0 47.199218 38.261719 85.457031 85.457032 85.457031l-1.890626-25.164063c-2.03125-27.039062-22.101562-55.507812-48.792968-60.292968zm0 0"/></g><path d="m240.25 282.984375c-77.292969 0-144.152344 44.625-176.253906 109.507813 32.101562 64.886718 98.960937 109.511718 176.253906 109.511718s144.152344-44.625 176.253906-109.511718c-32.101562-64.882813-98.960937-109.507813-176.253906-109.507813zm0 0" fill="#b0e7f8"/><path d="m63.996094 392.492188c15.273437 30.871093 38.417968 57.152343 66.808594 76.226562 21.179687-18.578125 34.554687-45.839844 34.554687-76.226562 0-30.386719-13.375-57.644532-34.554687-76.222657-28.390626 19.074219-51.535157 45.351563-66.808594 76.222657zm0 0" fill="#cff1fb"/><path d="m187.417969 452.261719c-12.691407 0-22.980469-10.289063-22.980469-22.976563v-22.980468h22.980469c12.6875 0 22.976562 10.289062 22.976562 22.980468 0 12.6875-10.289062 22.976563-22.976562 22.976563zm0 0" fill="#79b2ff"/><path d="m49.996094 307.035156c0 11.046875-8.953125 20-19.996094 20-11.046875 0-20-8.953125-20-20 0-11.042968 8.953125-19.996094 20-19.996094 11.042969 0 19.996094 8.953126 19.996094 19.996094zm0 0" fill="#b0e7f8"/><path d="m103.992188 236.003906c0 11.042969-8.953126 20-19.996094 20-11.046875 0-20-8.957031-20-20 0-11.046875 8.953125-20 20-20 11.042968 0 19.996094 8.953125 19.996094 20zm0 0" fill="#b0e7f8"/><path d="m49.996094 164.871094c0 11.046875-8.953125 20-19.996094 20-11.046875 0-20-8.953125-20-20 0-11.042969 8.953125-19.996094 20-19.996094 11.042969 0 19.996094 8.953125 19.996094 19.996094zm0 0" fill="#b0e7f8"/><path d="m129.070312 378.382812c1.871094-1.859374 2.9375-4.441406 2.9375-7.070312s-1.066406-5.210938-2.9375-7.070312c-1.851562-1.859376-4.429687-2.929688-7.058593-2.929688-2.640625 0-5.210938 1.070312-7.082031 2.929688-1.859376 1.859374-2.917969 4.441406-2.917969 7.070312s1.058593 5.210938 2.917969 7.070312c1.871093 1.859376 4.449218 2.929688 7.082031 2.929688 2.628906 0 5.199219-1.070312 7.058593-2.929688zm0 0"/><path d="m510.042969 332.949219 1.890625-25.164063c.207031-2.773437-.75-5.511718-2.640625-7.546875-1.894531-2.042969-4.550781-3.199219-7.332031-3.199219-42.484376 0-78.570313 27.902344-90.910157 66.34375-11.328125-16.640624-25.046875-31.53125-40.699219-44.238281l4.460938-4.460937c3.625-3.625 3.921875-9.414063.679688-13.390625-27.050782-33.175781-64.8125-56.59375-106.335938-65.941407-5.386719-1.210937-10.738281 2.171876-11.949219 7.558594-1.214843 5.386719 2.171875 10.738282 7.558594 11.953125 34.257813 7.710938 65.664063 26.128907 89.347656 52.238281l-.074219.074219c-1.117187-.742187-2.226562-1.496093-3.359374-2.214843-32.996094-20.917969-71.183594-31.976563-110.429688-31.976563-22.933594 0-45.503906 3.785156-66.890625 11.097656l-12.246094-20.351562c9.035157-3.75 18.386719-6.722657 27.921875-8.867188 5.386719-1.214843 8.769532-6.566406 7.558594-11.953125-1.214844-5.386718-6.554688-8.769531-11.949219-7.558594-14.617187 3.289063-28.851562 8.320313-42.304687 14.945313-4.484375 2.207031-6.648438 7.390625-5.066406 12.132813.230468.695312.539062 1.367187.917968 1.996093l16.339844 27.152344c-8.496094 3.878906-16.753906 8.339844-24.707031 13.382813-32.101563 20.351562-57.960938 49.085937-74.789063 83.097656-1.382812 2.792968-1.382812 6.074218 0 8.867187 16.828125 34.011719 42.6875 62.746094 74.789063 83.097657 32.996093 20.921874 71.179687 31.976562 110.429687 31.976562 23.015625 0 45.664063-3.808594 67.117188-11.171875l46.160156 9.453125c1.941406.394531 3.894531.59375 5.835938.59375 6.589843 0 13.015624-2.257812 18.230468-6.515625 6.757813-5.511719 10.632813-13.675781 10.632813-22.394531v-32.4375c8.394531-8.621094 16.039062-17.960938 22.824219-27.921875 12.335937 38.441406 48.421874 66.34375 90.910156 66.34375 2.78125 0 5.4375-1.160157 7.328125-3.199219 1.894531-2.039062 2.851562-4.773438 2.640625-7.550781l-1.890625-25.164063c-1.632813-21.753906-13.996094-45.972656-33.566407-59.542968 19.566407-13.570313 31.933594-37.789063 33.566407-59.542969zm-430.6875 66.925781c4.539062-.699219 9.128906-1.054688 13.71875-1.054688 5.523437 0 10-4.480468 10-10 0-5.523437-4.476563-10-10-10-3.394531 0-6.792969.160157-10.171875.476563 12.234375-19.28125 27.617187-35.855469 45.324218-49.164063 17.292969 16.113282 27.132813 38.609376 27.132813 62.359376s-9.839844 46.246093-27.132813 62.363281c-19.464843-14.628907-36.121093-33.199219-48.871093-54.980469zm95.082031 16.429688h12.976562c7.15625 0 12.980469 5.820312 12.980469 12.976562s-5.824219 12.980469-12.980469 12.980469-12.976562-5.824219-12.976562-12.980469zm190.515625 72.558593c-1.222656 1-3.808594 2.566407-7.414063 1.824219l-18.539062-3.796875c3.957031-2.15625 7.855469-4.441406 11.679688-6.867187 6.078124-3.855469 11.933593-8.011719 17.546874-12.449219v14.390625c0 3.679687-2.050781 5.902344-3.273437 6.898437zm-60.523437-8.113281c-.769532.179688-1.507813.449219-2.203126.796875-19.53125 6.820313-40.417968 10.453125-61.976562 10.453125-34.292969 0-66.878906-9.1875-95.015625-25.808594 5.621094-5.726562 10.53125-12.027344 14.660156-18.769531 5.90625 8.929687 16.035157 14.839844 27.519531 14.839844 18.1875 0 32.980469-14.796875 32.980469-32.980469s-14.796875-32.976562-32.980469-32.976562h-12.132812c.042969-1.265626.074219-2.539063.074219-3.8125 0-27.742188-10.875-54.09375-30.121094-73.699219 8.351563-4.933594 17.085937-9.222657 26.148437-12.800781.765626-.183594 1.507813-.46875 2.234376-.84375 20.855468-7.914063 43.347656-12.164063 66.632812-12.164063 39.421875 0 76.597656 12.125 107.339844 33.753906.160156.179688.316406.363281.488281.539063.957031.957031 2.0625 1.675781 3.242187 2.164062 22.046876 16.351563 40.585938 37.695313 53.957032 63.050782-22.042969 41.800781-58.101563 72.71875-100.847656 88.257812zm145.082031-78.414062c23.003906 4.121093 38.980469 29.785156 40.589843 51.199218l1.023438 13.640625c-36.492188-5.273437-64.621094-36.753906-64.621094-74.683593 0-37.929688 28.128906-69.410157 64.621094-74.679688l-1.023438 13.636719c-1.609374 21.414062-17.585937 47.078125-40.589843 51.199219-4.765625.855468-8.234375 5-8.234375 9.84375s3.46875 8.988281 8.234375 9.84375zm0 0"/><path d="m59.195312 42.667969c18.226563 0 35.652344-6.636719 49.195313-18.488281 13.546875 11.851562 30.972656 18.488281 49.195313 18.488281 18.226562 0 35.652343-6.636719 49.199218-18.488281 13.542969 11.851562 30.96875 18.488281 49.195313 18.488281 18.226562 0 35.652343-6.636719 49.195312-18.488281 13.546875 11.851562 30.972657 18.488281 49.195313 18.488281 18.226562 0 35.652344-6.636719 49.195312-18.488281 13.546875 11.851562 30.972656 18.488281 49.195313 18.488281 21.851562 0 42.550781-9.535157 56.792969-26.164063 3.59375-4.191406 3.105468-10.503906-1.089844-14.097656-4.195313-3.59375-10.507813-3.105469-14.097656 1.089844-10.4375 12.183594-25.601563 19.171875-41.605469 19.171875-16 0-31.164063-6.988281-41.601563-19.171875-1.898437-2.21875-4.671875-3.496094-7.59375-3.496094-2.917968 0-5.695312 1.277344-7.59375 3.496094-10.4375 12.183594-25.597656 19.171875-41.601562 19.171875-16 0-31.164063-6.988281-41.601563-19.171875-1.898437-2.21875-4.671875-3.496094-7.59375-3.496094-2.917969 0-5.691406 1.277344-7.59375 3.496094-10.4375 12.183594-25.601562 19.171875-41.601562 19.171875s-31.164063-6.988281-41.601563-19.171875c-1.902344-2.21875-4.675781-3.496094-7.59375-3.496094-2.921875 0-5.695312 1.277344-7.59375 3.496094-10.4375 12.183594-25.601562 19.171875-41.605468 19.171875-16 0-31.164063-6.988281-41.597657-19.171875-1.898437-2.21875-4.675781-3.496094-7.597656-3.496094-2.917969 0-5.691406 1.277344-7.59375 3.496094-10.4375 12.183594-25.597656 19.171875-41.601563 19.171875-16 0-31.164062-6.988281-41.601562-19.171875-3.59375-4.195313-9.902344-4.683594-14.097656-1.089844-4.195313 3.59375-4.683594 9.90625-1.089844 14.097656 14.242188 16.628906 34.941406 26.164063 56.789062 26.164063zm0 0"/><path d="m305.175781 125.320312c18.226563 0 35.652344-6.632812 49.195313-18.484374 13.546875 11.851562 30.972656 18.484374 49.199218 18.484374 21.847657 0 42.546876-9.535156 56.789063-26.160156 3.59375-4.195312 3.105469-10.507812-1.089844-14.101562-4.195312-3.589844-10.507812-3.101563-14.097656 1.089844-10.4375 12.183593-25.601563 19.171874-41.601563 19.171874-16.003906 0-31.167968-6.988281-41.605468-19.171874-1.898438-2.21875-4.671875-3.496094-7.59375-3.496094-2.917969 0-5.691406 1.277344-7.59375 3.496094-10.4375 12.183593-25.597656 19.171874-41.601563 19.171874-16 0-31.164062-6.988281-41.601562-19.171874-1.898438-2.21875-4.671875-3.496094-7.59375-3.496094-2.917969 0-5.691407 1.277344-7.59375 3.496094-10.4375 12.183593-25.601563 19.171874-41.601563 19.171874s-31.164062-6.988281-41.601562-19.171874c-1.898438-2.21875-4.675782-3.496094-7.59375-3.496094-2.921875 0-5.695313 1.277344-7.59375 3.496094-10.4375 12.183593-25.601563 19.171874-41.601563 19.171874s-31.167969-6.988281-41.605469-19.171874c-3.59375-4.195313-9.902343-4.683594-14.097656-1.089844-4.195312 3.59375-4.683594 9.90625-1.089844 14.101562 14.242188 16.625 34.941407 26.160156 56.789063 26.160156 18.226563 0 35.652344-6.632812 49.195313-18.484374 13.546874 11.851562 30.972656 18.484374 49.199218 18.484374 18.222656 0 35.648438-6.632812 49.195313-18.484374 13.546875 11.847656 30.972656 18.484374 49.195312 18.484374zm0 0"/><path d="m30 277.039062c-16.542969 0-30 13.457032-30 29.996094 0 16.542969 13.457031 30 30 30 16.539062 0 29.996094-13.457031 29.996094-30 0-16.539062-13.457032-29.996094-29.996094-29.996094zm0 39.996094c-5.515625 0-10-4.484375-10-10 0-5.511718 4.484375-9.996094 10-9.996094 5.511719 0 9.996094 4.484376 9.996094 9.996094 0 5.515625-4.484375 10-9.996094 10zm0 0"/><path d="m83.996094 206.007812c-16.542969 0-30 13.453126-30 29.996094 0 16.539063 13.457031 29.996094 30 29.996094 16.539062 0 29.996094-13.457031 29.996094-29.996094 0-16.542968-13.457032-29.996094-29.996094-29.996094zm0 39.996094c-5.515625 0-10-4.488281-10-10 0-5.515625 4.484375-10 10-10 5.511718 0 9.996094 4.484375 9.996094 10 0 5.511719-4.484376 10-9.996094 10zm0 0"/><path d="m30 194.871094c16.539062 0 29.996094-13.457032 29.996094-30 0-16.539063-13.457032-29.996094-29.996094-29.996094-16.542969 0-30 13.457031-30 29.996094 0 16.542968 13.457031 30 30 30zm0-40c5.511719 0 9.996094 4.488281 9.996094 10 0 5.515625-4.484375 10-9.996094 10-5.515625 0-10-4.484375-10-10 0-5.511719 4.484375-10 10-10zm0 0"/><path d="m219.824219 233.601562c-1.859375 1.859376-2.929688 4.441407-2.929688 7.070313s1.070313 5.210937 2.929688 7.070313c1.871093 1.859374 4.4375 2.929687 7.078125 2.929687 2.621094 0 5.199218-1.070313 7.070312-2.929687 1.859375-1.859376 2.929688-4.441407 2.929688-7.070313s-1.070313-5.210937-2.929688-7.070313c-1.871094-1.859374-4.441406-2.929687-7.070312-2.929687-2.640625 0-5.21875 1.070313-7.078125 2.929687zm0 0"/></svg>