<svg height="512pt" viewBox="-76 0 512 512" width="512pt" xmlns="http://www.w3.org/2000/svg"><path d="m36.300781 452h288v50h-288zm0 0" fill="#8690a6"/><path d="m296.121094 179.90625-115.820313-115.820312-115.820312 115.820312v272.09375h231.640625zm0 0" fill="#ff6977"/><path d="m132.300781 324h96v128h-96zm0 0" fill="#b5bcc9"/><path d="m210.457031 180.488281c0 16.65625-13.5 30.15625-30.15625 30.15625-16.652343 0-30.15625-13.5-30.15625-30.15625 0-16.652343 13.503907-30.152343 30.15625-30.152343 16.65625 0 30.15625 13.5 30.15625 30.152343zm0 0" fill="#fff"/><path d="m210.457031 180.488281c0 16.65625-13.5 30.15625-30.15625 30.15625-16.652343 0-30.15625-13.5-30.15625-30.15625 0-16.652343 13.503907-30.152343 30.15625-30.152343 16.65625 0 30.15625 13.5 30.15625 30.152343zm0 0" fill="#b5bcc9"/><g fill="#eff3f3"><path d="m142.363281 100.101562-85.863281-85.859374c-5.65625-5.65625-14.824219-5.65625-20.480469 0l-21.777343 21.777343c-5.65625 5.65625-5.65625 14.824219 0 20.480469l85.863281 85.863281c5.65625 5.65625 14.824219 5.65625 20.480469 0l21.777343-21.777343c5.65625-5.65625 5.65625-14.828126 0-20.484376zm0 0"/><path d="m218.238281 100.101562 85.863281-85.859374c5.65625-5.65625 14.824219-5.65625 20.480469 0l21.777344 21.777343c5.65625 5.65625 5.65625 14.824219 0 20.480469l-85.863281 85.863281c-5.652344 5.65625-14.824219 5.65625-20.480469 0l-21.777344-21.777343c-5.652343-5.65625-5.652343-14.828126 0-20.484376zm0 0"/><path d="m142.363281 260.875-85.863281 85.859375c-5.65625 5.65625-14.824219 5.65625-20.480469 0l-21.777343-21.777344c-5.65625-5.65625-5.65625-14.824219 0-20.480469l85.863281-85.863281c5.65625-5.652343 14.824219-5.652343 20.480469 0l21.777343 21.78125c5.65625 5.65625 5.65625 14.824219 0 20.480469zm0 0"/><path d="m218.238281 260.875 85.863281 85.859375c5.65625 5.65625 14.824219 5.65625 20.480469 0l21.777344-21.777344c5.65625-5.65625 5.65625-14.824219 0-20.480469l-85.863281-85.863281c-5.652344-5.652343-14.824219-5.652343-20.480469 0l-21.777344 21.78125c-5.652343 5.65625-5.652343 14.824219 0 20.480469zm0 0"/></g><path d="m187.371094 187.558594c1.859375-1.859375 2.929687-4.4375 2.929687-7.070313 0-2.628906-1.070312-5.207031-2.929687-7.066406-1.859375-1.863281-4.441406-2.933594-7.070313-2.933594-2.628906 0-5.210937 1.070313-7.070312 2.933594-1.859375 1.859375-2.929688 4.4375-2.929688 7.066406 0 2.632813 1.070313 5.210938 2.929688 7.070313 1.859375 1.863281 4.441406 2.929687 7.070312 2.929687 2.628907 0 5.210938-1.066406 7.070313-2.929687zm0 0"/><path d="m306.121094 250.097656v-70.191406c0-2.652344-1.054688-5.195312-2.929688-7.070312l-29.511718-29.511719 79.75-79.75c4.625-4.625 7.171874-10.773438 7.171874-17.3125 0-6.539063-2.546874-12.6875-7.171874-17.3125l-21.777344-21.777344c-4.625-4.625-10.769532-7.171875-17.3125-7.171875-6.539063 0-12.6875 2.546875-17.3125 7.171875l-79.75 79.75-29.90625-29.910156c-3.90625-3.902344-10.234375-3.902344-14.140625 0l-29.910157 29.910156-79.75-79.75c-4.621093-4.625-10.769531-7.171875-17.308593-7.171875-6.539063 0-12.6875 2.546875-17.3125 7.171875l-21.777344 21.777344c-4.625 4.621093-7.171875 10.769531-7.171875 17.3125 0 6.539062 2.546875 12.6875 7.171875 17.308593l79.75 79.75-29.515625 29.515626c-1.875 1.875-2.925781 4.417968-2.925781 7.070312v70.191406l-47.308594 47.308594c-9.546875 9.542969-9.546875 25.078125 0 34.621094l21.777344 21.78125c4.773437 4.769531 11.042969 7.15625 17.3125 7.15625 2.785156 0 5.5625-.496094 8.21875-1.441406v82.476562h-18.179688c-5.523437 0-10 4.476562-10 10v50c0 5.523438 4.476563 10 10 10h104.253907c5.523437 0 10-4.476562 10-10s-4.476563-10-10-10h-94.253907v-30h268v30h-93.753906c-5.519531 0-10 4.476562-10 10s4.480469 10 10 10h103.753906c5.523438 0 10-4.476562 10-10v-50c0-5.523438-4.476562-10-10-10h-18.179687v-82.476562c2.65625.945312 5.433594 1.441406 8.21875 1.441406 6.269531 0 12.539062-2.386719 17.3125-7.15625l21.777344-21.78125c9.546874-9.542969 9.546874-25.078125 0-34.621094zm-20-20-18.550782-18.554687c-4.625-4.625-10.773437-7.171875-17.3125-7.171875-6.539062 0-12.6875 2.546875-17.3125 7.171875l-3.816406 3.820312-14.339844-14.339843c3.59375-6.011719 5.667969-13.035157 5.667969-20.535157s-2.074219-14.523437-5.667969-20.535156l14.339844-14.339844 3.816406 3.820313c4.625 4.625 10.773438 7.167968 17.3125 7.167968 2.515626 0 4.976563-.378906 7.3125-1.109374l28.550782 28.554687zm-125.976563-49.609375c0-11.113281 9.042969-20.152343 20.15625-20.152343s20.15625 9.039062 20.15625 20.152343-9.042969 20.15625-20.15625 20.15625-20.15625-9.042969-20.15625-20.15625zm151.027344-159.175781c1.140625-1.140625 2.476563-1.3125 3.167969-1.3125.695312 0 2.027344.171875 3.171875 1.3125l21.777343 21.78125c1.140626 1.140625 1.3125 2.472656 1.3125 3.167969 0 .691406-.171874 2.023437-1.3125 3.167969l-85.859374 85.859374c-1.144532 1.144532-2.476563 1.316407-3.171876 1.316407-.691406 0-2.027343-.171875-3.167968-1.316407l-21.777344-21.777343c-1.144531-1.140625-1.316406-2.476563-1.316406-3.167969s.171875-2.027344 1.316406-3.167969zm-130.871094 56.914062 24.804688 24.804688c-.726563 2.335938-1.109375 4.792969-1.109375 7.3125 0 6.539062 2.546875 12.6875 7.171875 17.3125l3.816406 3.816406-14.386719 14.390625c-5.960937-3.507812-12.894531-5.527343-20.296875-5.527343-7.402343 0-14.335937 2.019531-20.296875 5.527343l-14.386718-14.390625 3.816406-3.816406c4.625-4.625 7.171875-10.773438 7.171875-17.3125 0-2.515625-.382813-4.976562-1.109375-7.3125zm-160.300781-31.964843c0-.695313.171875-2.027344 1.3125-3.171875l21.777344-21.777344c1.144531-1.140625 2.476562-1.3125 3.171875-1.3125.691406 0 2.027343.171875 3.167969 1.3125l85.859374 85.863281h.003907c1.140625 1.140625 1.3125 2.472657 1.3125 3.167969 0 .691406-.171875 2.027344-1.3125 3.167969l-21.777344 21.777343c-1.144531 1.144532-2.476563 1.3125-3.171875 1.3125-.691406 0-2.027344-.167968-3.167969-1.3125l-85.863281-85.859374c-1.140625-1.144532-1.3125-2.476563-1.3125-3.167969zm54.480469 137.785156 28.554687-28.550781c2.335938.726562 4.792969 1.109375 7.308594 1.109375 6.539062 0 12.6875-2.546875 17.3125-7.171875l3.820312-3.820313 14.335938 14.339844c-3.59375 6.011719-5.664062 13.035156-5.664062 20.535156s2.070312 14.523438 5.664062 20.535157l-14.335938 14.339843-3.820312-3.820312c-4.621094-4.621094-10.769531-7.167969-17.308594-7.167969-6.542968 0-12.691406 2.546875-17.3125 7.167969l-18.554687 18.554687zm-31.386719 155.617187-21.78125-21.777343c-1.746094-1.746094-1.746094-4.589844 0-6.339844l85.863281-85.859375c1.140625-1.144531 2.476563-1.316406 3.167969-1.316406s2.027344.171875 3.171875 1.316406l21.777344 21.777344c1.140625 1.140625 1.3125 2.476562 1.3125 3.167968 0 .691407-.171875 2.027344-1.3125 3.167969h-.003907l-85.859374 85.863281c-1.746094 1.75-4.589844 1.75-6.335938 0zm99.207031 102.335938v-108h76v108zm96 0v-118c0-5.523438-4.476562-10-10-10h-96c-5.523437 0-10 4.476562-10 10v118h-47.820312v-99.101562l74.953125-74.953126c4.625-4.625 7.171875-10.769531 7.171875-17.3125 0-6.539062-2.546875-12.6875-7.171875-17.3125l-3.816406-3.816406 14.386718-14.390625c5.960938 3.507813 12.894532 5.53125 20.296875 5.53125 7.402344 0 14.339844-2.023437 20.296875-5.53125l14.390625 14.390625-3.816406 3.816406c-4.625 4.625-7.175781 10.773438-7.175781 17.3125 0 6.539063 2.550781 12.6875 7.175781 17.3125h-.003906l74.953125 74.953126v99.101562zm100.988281-124.113281-21.777343 21.777343c-1.75 1.75-4.59375 1.75-6.339844 0l-7.976563-7.976562s-.003906-.003906-.003906-.003906l-77.878906-77.878906s-.003906 0-.003906-.003907c-1.140625-1.140625-1.3125-2.472656-1.3125-3.167969 0-.691406.171875-2.027343 1.3125-3.167968l21.777344-21.777344c1.144531-1.144531 2.476562-1.3125 3.171874-1.3125.691407 0 2.027344.167969 3.167969 1.3125l85.859375 85.859375c1.75 1.75 1.75 4.59375.003906 6.339844zm0 0"/><path d="m180.300781 492c-2.628906 0-5.210937 1.070312-7.070312 2.929688-1.859375 1.859374-2.929688 4.429687-2.929688 7.070312 0 2.628906 1.070313 5.210938 2.929688 7.070312 1.859375 1.859376 4.441406 2.929688 7.070312 2.929688 2.628907 0 5.210938-1.070312 7.070313-2.929688 1.859375-1.859374 2.929687-4.441406 2.929687-7.070312s-1.070312-5.210938-2.929687-7.070312c-1.859375-1.859376-4.441406-2.929688-7.070313-2.929688zm0 0"/></svg>