<svg height="512pt" viewBox="0 0 512 512" width="512pt" xmlns="http://www.w3.org/2000/svg"><path d="m383.773438 255.773438c0 70.570312-57.207032 127.777343-127.773438 127.777343s-127.773438-57.207031-127.773438-127.777343c0-70.566407 57.207032-127.773438 127.773438-127.773438s127.773438 57.207031 127.773438 127.773438zm0 0" fill="#ffcb7c"/><path d="m175.011719 502c0-136.34375 110.53125-246.871094 246.875-246.871094h80.113281v246.871094zm0 0" fill="#d8ec84"/><path d="m255.011719 502c0-92.015625 74.859375-166.871094 166.875-166.871094h80.113281v166.871094zm0 0" fill="#e2f1a1"/><path d="m335.011719 502c0-47.902344 38.972656-86.871094 86.875-86.871094h80.113281v86.871094zm0 0" fill="#f0f7cd"/><path d="m336.988281 502c0-136.34375-110.53125-246.871094-246.875-246.871094h-80.113281v246.871094zm0 0" fill="#cbe558"/><path d="m256.988281 502c0-92.015625-74.859375-166.871094-166.875-166.871094h-80.113281v166.871094zm0 0" fill="#d8ec84"/><path d="m176.988281 502c0-47.902344-38.972656-86.871094-86.875-86.871094h-80.113281v86.871094zm0 0" fill="#e2f1a1"/><path d="m90.113281 325.128906h-80.113281c-5.523438 0-10 4.476563-10 10 0 5.519532 4.476562 10 10 10h80.113281c86.5 0 156.875 70.371094 156.875 156.871094 0 5.523438 4.476563 10 10 10 5.523438 0 10-4.476562 10-10 0-97.527344-79.347656-176.871094-176.875-176.871094zm0 0"/><path d="m90.113281 405.128906h-80.113281c-5.523438 0-10 4.476563-10 10 0 5.519532 4.476562 10 10 10h80.113281c42.390625 0 76.875 34.484375 76.875 76.871094 0 5.523438 4.476563 10 10 10 5.523438 0 10-4.476562 10-10 0-53.414062-43.457031-96.871094-96.875-96.871094zm0 0"/><path d="m423.859375 345.128906h78.140625c5.523438 0 10-4.480468 10-10 0-5.523437-4.476562-10-10-10h-78.140625c-42.472656 0-82.765625 14.96875-114.789063 42.398438-10.429687-16.910156-22.890624-32.730469-37.292968-47.132813 42.59375-35.714843 96.1875-55.265625 152.082031-55.265625h78.140625c5.523438 0 10-4.480468 10-10 0-5.523437-4.476562-10-10-10h-78.140625c-10.214844 0-20.363281.605469-30.390625 1.792969-3.558594-55.941406-40.550781-104.320313-94.339844-122.035156-5.246094-1.726563-10.898437 1.125-12.625 6.371093-1.730468 5.246094 1.125 10.898438 6.367188 12.625 46.578125 15.339844 78.429687 57.578126 80.753906 106.1875-42.882812 8.519532-82.992188 27.878907-116.621094 56.644532-34.175781-29.296875-74.859375-48.792969-118.601562-57.066406 2.488281-48.433594 34.285156-90.46875 80.726562-105.765626 5.246094-1.726562 8.097656-7.378906 6.367188-12.625-1.726563-5.246093-7.378906-8.097656-12.625-6.371093-53.714844 17.691406-90.683594 65.960937-94.324219 121.804687-9.375-1.027344-18.863281-1.5625-28.433594-1.5625h-80.113281c-5.523438 0-10 4.476563-10 10 0 5.519532 4.476562 10 10 10h80.113281c130.613281 0 236.875 106.257813 236.875 236.871094 0 .691406.070313 1.363281.203125 2.015625.929688 4.554687 4.960938 7.984375 9.796875 7.984375 5.523438 0 10-4.476562 10-10 0-42.386719 34.484375-76.871094 76.871094-76.871094h78.140625c5.523438 0 10-4.480468 10-10 0-5.523437-4.476562-10-10-10h-78.140625c-34.503906 0-64.851563 18.136719-82.015625 45.375-4.601562-22.742187-12.253906-44.625-22.746094-65.164062 28.863282-25.984375 65.777344-40.210938 104.761719-40.210938zm0 0"/><path d="m256 85.167969c5.523438 0 10-4.476563 10-10v-65.167969c0-5.523438-4.476562-10-10-10s-10 4.476562-10 10v65.167969c0 5.523437 4.476562 10 10 10zm0 0"/><path d="m157.242188 103.839844c1.851562 3.210937 5.214843 5.003906 8.667968 5.003906 1.699219 0 3.417969-.433594 4.992188-1.34375 4.785156-2.761719 6.421875-8.875 3.660156-13.660156l-32.582031-56.4375c-2.761719-4.78125-8.878907-6.421875-13.660157-3.660156-4.785156 2.761718-6.421874 8.878906-3.660156 13.660156zm0 0"/><path d="m38.277344 140.46875 56.4375 32.582031c1.574218.910157 3.292968 1.34375 4.988281 1.34375 3.457031 0 6.820313-1.792969 8.671875-5.003906 2.761719-4.78125 1.121094-10.898437-3.660156-13.660156l-56.4375-32.582031c-4.78125-2.761719-10.898438-1.121094-13.660156 3.660156-2.761719 4.78125-1.121094 10.898437 3.660156 13.660156zm0 0"/><path d="m341.097656 107.5c1.574219.910156 3.292969 1.34375 4.992188 1.34375 3.453125 0 6.816406-1.792969 8.667968-5.003906l32.582032-56.4375c2.761718-4.78125 1.125-10.898438-3.660156-13.660156-4.78125-2.757813-10.898438-1.121094-13.660157 3.660156l-32.582031 56.4375c-2.761719 4.785156-1.125 10.898437 3.660156 13.660156zm0 0"/><path d="m412.296875 174.394531c1.695313 0 3.414063-.433593 4.988281-1.34375l56.4375-32.582031c4.785156-2.761719 6.421875-8.878906 3.660156-13.660156-2.761718-4.785156-8.878906-6.421875-13.660156-3.660156l-56.4375 32.582031c-4.78125 2.761719-6.421875 8.878906-3.660156 13.660156 1.851562 3.210937 5.214844 5.003906 8.671875 5.003906zm0 0"/><path d="m256 138c2.628906 0 5.210938-1.070312 7.070312-2.929688 1.859376-1.859374 2.929688-4.441406 2.929688-7.070312s-1.070312-5.210938-2.929688-7.070312c-1.859374-1.859376-4.441406-2.929688-7.070312-2.929688s-5.210938 1.070312-7.070312 2.929688c-1.859376 1.859374-2.929688 4.441406-2.929688 7.070312s1.070312 5.210938 2.929688 7.070312c1.859374 1.859376 4.441406 2.929688 7.070312 2.929688zm0 0"/></svg>