<svg height="512pt" viewBox="0 0 512.00143 512" width="512pt" xmlns="http://www.w3.org/2000/svg"><path d="m331.664062 153.988281h-151.324218c-9.019532 0-16.332032-7.3125-16.332032-16.332031v-71.328125c0-9.019531 7.3125-16.332031 16.332032-16.332031h151.324218c9.019532 0 16.332032 7.3125 16.332032 16.332031v71.328125c0 9.023438-7.3125 16.332031-16.332032 16.332031zm0 0" fill="#dff6fc"/><path d="m481.988281 121.851562h-132.742187v-39.996093h132.742187c11.042969 0 19.996094 8.953125 19.996094 20 0 11.042969-8.953125 19.996093-19.996094 19.996093zm0 0" fill="#91def5"/><path d="m30.015625 121.851562h132.742187v-39.996093h-132.742187c-11.042969 0-19.996094 8.953125-19.996094 20 0 11.042969 8.953125 19.996093 19.996094 19.996093zm0 0" fill="#91def5"/><path d="m459.988281 121.859375h-43.996093v18c0 12.148437 9.847656 21.996094 21.996093 21.996094 12.152344 0 22-9.847657 22-21.996094zm0 0" fill="#60a4ff"/><path d="m302.75 193.988281h-93.496094l-17.496094-40h128.488282zm0 0" fill="#60a4ff"/><path d="m53.183594 121.859375h43.996094v18c0 12.148437-9.847657 21.996094-21.996094 21.996094-12.152344 0-22-9.847657-22-21.996094zm0 0" fill="#60a4ff"/><g fill="#cbe558"><path d="m94 449.972656c-13.75 13.75-18.621094 33.003906-14.636719 50.667969 17.664063 3.984375 36.917969-.886719 50.667969-14.636719s18.621094-33.003906 14.636719-50.667968c-17.660157-3.984376-36.917969.886718-50.667969 14.636718zm0 0"/><path d="m62.035156 449.972656c13.75 13.75 18.617188 33.003906 14.632813 50.667969-17.664063 3.984375-36.917969-.886719-50.667969-14.636719s-18.617188-33.003906-14.636719-50.667968c17.664063-3.984376 36.921875.886718 50.671875 14.636718zm0 0"/><path d="m271.984375 449.972656c-13.75 13.75-18.617187 33.003906-14.632813 50.667969 17.660157 3.984375 36.917969-.886719 50.667969-14.636719s18.617188-33.003906 14.632813-50.667968c-17.660156-3.984376-36.917969.886718-50.667969 14.636718zm0 0"/><path d="m240.019531 449.972656c13.75 13.75 18.617188 33.003906 14.632813 50.667969-17.660156 3.984375-36.917969-.886719-50.667969-14.636719s-18.617187-33.003906-14.632813-50.667968c17.660157-3.984376 36.917969.886718 50.667969 14.636718zm0 0"/><path d="m449.96875 449.972656c-13.75 13.75-18.617188 33.003906-14.632812 50.667969 17.660156 3.984375 36.917968-.886719 50.667968-14.636719s18.617188-33.003906 14.632813-50.667968c-17.660157-3.984376-36.917969.886718-50.667969 14.636718zm0 0"/><path d="m418.003906 449.972656c13.75 13.75 18.617188 33.003906 14.636719 50.667969-17.664063 3.984375-36.921875-.886719-50.671875-14.636719s-18.617188-33.003906-14.632812-50.667968c17.664062-3.984376 36.917968.886718 50.667968 14.636718zm0 0"/></g><path d="m309.976562 101.992188v-.136719c0-5.523438-4.476562-10-9.996093-10-5.523438 0-10 4.476562-10 10v.136719c0 5.523437 4.476562 10 10 10 5.519531 0 9.996093-4.476563 9.996093-10zm0 0"/><path d="m256.003906 91.855469c-5.523437 0-10 4.476562-10 10v.136719c0 5.523437 4.476563 10 10 10 5.519532 0 10-4.476563 10-10v-.136719c0-5.523438-4.480468-10-10-10zm0 0"/><path d="m202.027344 101.855469v.136719c0 5.523437 4.476562 10 10 10 5.519531 0 10-4.476563 10-10v-.136719c0-5.523438-4.480469-10-10-10-5.523438 0-10 4.476562-10 10zm0 0"/><path d="m30.015625 71.855469c-16.539063 0-29.9960938 13.457031-29.9960938 30 0 16.539062 13.4570308 29.996093 29.9960938 29.996093h13.167969v8.007813c0 17.644531 14.355468 31.996094 32 31.996094 17.640625 0 31.996094-14.351563 31.996094-31.996094v-8.007813h46.828124v5.804688c0 12.210938 8.351563 22.5 19.640626 25.46875l-8.59375 8.597656c-1.875 1.875-2.929688 4.417969-2.929688 7.070313v31.183593c0 5.519532 4.476562 9.996094 10 9.996094 5.519531 0 9.996094-4.476562 9.996094-9.996094v-27.039062l7.921875-7.921875 10.050781 22.980469c1.59375 3.636718 5.1875 5.988281 9.160156 5.988281h93.496094c3.972656 0 7.566406-2.351563 9.160156-5.988281l10.050782-22.980469 7.917968 7.921875v27.039062c0 5.519532 4.480469 9.996094 10 9.996094 5.523438 0 10-4.476562 10-9.996094v-31.183593c0-2.652344-1.054687-5.195313-2.929687-7.070313l-8.597657-8.597656c11.292969-2.96875 19.644532-13.257812 19.644532-25.46875v-5.804688h47.996094v8.007813c0 17.644531 14.355468 31.996094 31.996093 31.996094 17.644531 0 32-14.351563 32-31.996094v-8.007813h12c16.539063 0 29.996094-13.457031 29.996094-29.996093 0-16.542969-13.457031-30-29.996094-30h-34v-51.855469h53.996094c5.523437 0 10-4.476562 10-10s-4.476563-10-10-10h-127.992187c-5.519532 0-9.996094 4.476562-9.996094 10s4.476562 10 9.996094 10h54v51.855469h-69.996094v-5.527344c0-14.519531-11.8125-26.328125-26.332032-26.328125h-35.664062c-5.523438 0-10 4.476562-10 9.996094 0 5.523437 4.476562 10 10 10h35.664062c3.492188 0 6.332032 2.839844 6.332032 6.332031v71.332031c0 3.488282-2.839844 6.332032-6.332032 6.332032h-151.324218c-3.492188 0-6.332032-2.84375-6.332032-6.332032v-71.332031c0-3.492187 2.839844-6.332031 6.332032-6.332031h35.664062c5.523438 0 10-4.476563 10-10 0-5.519532-4.476562-9.996094-10-9.996094h-35.664062c-14.519532 0-26.332032 11.808594-26.332032 26.328125v5.527344h-69.992187v-51.855469h53.996094c5.519531 0 10-4.476562 10-10s-4.480469-10-10-10h-127.992188c-5.523437 0-9.9999998 4.476562-9.9999998 10s4.4765628 10 9.9999998 10h53.996094v51.855469zm57.164063 68.003906c0 6.617187-5.382813 12-11.996094 12-6.617188 0-12-5.382813-12-12v-8h23.996094zm362.808593 0c0 6.617187-5.382812 12-12 12-6.613281 0-11.996093-5.382813-11.996093-12v-8h23.996093zm-90.742187-48.003906h122.742187c5.511719 0 9.996094 4.484375 9.996094 10 0 5.511719-4.484375 9.996093-9.996094 9.996093h-122.742187zm-54.289063 72.132812-8.746093 20h-80.417969l-8.746094-20zm-152.199219-52.136719h-122.742187c-5.511719 0-10-4.484374-10-9.996093 0-5.515625 4.488281-10 10-10h122.742187zm0 0"/><path d="m501.980469 491.984375h-7.851563c14.984375-15.6875 21.0625-37.566406 16.261719-58.847656-.847656-3.765625-3.789063-6.707031-7.554687-7.554688-21.777344-4.910156-44.183594 1.5625-59.9375 17.316407-3.414063 3.414062-6.390626 7.144531-8.914063 11.109374-2.519531-3.964843-5.496094-7.695312-8.910156-11.109374-15.757813-15.753907-38.164063-22.230469-59.941407-17.316407-3.765624.847657-6.703124 3.789063-7.554687 7.554688-4.796875 21.277343 1.28125 43.15625 16.265625 58.847656h-57.699219c14.980469-15.6875 21.0625-37.566406 16.261719-58.847656-.847656-3.765625-3.789062-6.707031-7.554688-7.554688-21.777343-4.910156-44.183593 1.5625-59.9375 17.316407-3.414062 3.414062-6.390624 7.144531-8.914062 11.109374-2.519531-3.964843-5.496094-7.695312-8.910156-11.109374-15.757813-15.753907-38.160156-22.230469-59.941406-17.316407-3.765626.847657-6.703126 3.789063-7.554688 7.554688-4.796875 21.28125 1.28125 43.160156 16.261719 58.847656h-57.695313c14.980469-15.6875 21.058594-37.566406 16.261719-58.847656-.847656-3.765625-3.789063-6.707031-7.554687-7.554688-21.78125-4.910156-44.183594 1.5625-59.9375 17.316407-3.417969 3.414062-6.394532 7.144531-8.914063 11.109374-2.519531-3.964843-5.496094-7.695312-8.914063-11.109374-15.753906-15.753907-38.160156-22.230469-59.9375-17.316407-3.765624.847657-6.707031 3.789063-7.554687 7.554688-4.796875 21.28125 1.28125 43.160156 16.261719 58.847656h-7.851563c-5.519531 0-9.9960935 4.476563-9.9960935 10s4.4765625 10 9.9960935 10h491.960938c5.523437 0 10-4.476563 10-10s-4.476563-10-10-10zm-44.941407-34.941406c9.296876-9.296875 21.941407-13.921875 34.828126-12.9375.976562 12.875-3.640626 25.53125-12.933594 34.828125-8.539063 8.535156-19.910156 13.113281-31.675782 13.050781h-.820312c-.773438-.019531-1.554688-.054687-2.332031-.113281-.0625-.800782-.101563-1.597656-.117188-2.394532.007813-.527343.011719-1.050781.007813-1.574218.148437-11.480469 4.707031-22.523438 13.042968-30.859375zm-68 21.890625c-9.292968-9.296875-13.910156-21.953125-12.933593-34.828125 12.875-.976563 25.53125 3.640625 34.828125 12.9375 8.335937 8.335937 12.894531 19.382812 13.046875 30.859375-.007813.523437-.003907 1.050781.003906 1.574218-.015625.796876-.054687 1.59375-.117187 2.394532-.777344.058594-1.554688.097656-2.328126.113281h-.917968c-11.738282.039063-23.066406-4.535156-31.582032-13.050781zm-109.984374-21.890625c9.296874-9.300781 21.96875-13.914063 34.832031-12.9375.972656 12.875-3.644531 25.53125-12.9375 34.828125-8.527344 8.527344-19.882813 13.101562-31.628907 13.050781h-.871093c-.773438-.019531-1.550781-.054687-2.332031-.113281-.058594-.796875-.097657-1.589844-.113282-2.378906.007813-.546876.011719-1.09375.003906-1.640626.164063-11.460937 4.722657-22.484374 13.046876-30.808593zm-67.996094 21.890625c-9.300782-9.296875-13.914063-21.953125-12.9375-34.828125 12.867187-.980469 25.53125 3.640625 34.828125 12.9375 8.328125 8.324219 12.882812 19.351562 13.046875 30.808593-.003906.546876-.003906 1.09375.003906 1.640626-.015625.792968-.054688 1.585937-.113281 2.378906-.78125.058594-1.558594.097656-2.335938.113281h-.832031c-11.757812.058594-23.128906-4.515625-31.660156-13.050781zm-109.988282-21.890625c9.296876-9.296875 21.945313-13.921875 34.828126-12.9375.976562 12.875-3.640626 25.53125-12.9375 34.828125-8.535157 8.535156-19.902344 13.113281-31.675782 13.050781h-.816406c-.777344-.019531-1.554688-.054687-2.335938-.113281-.058593-.800782-.097656-1.597656-.117187-2.394532.007813-.527343.011719-1.050781.007813-1.574218.152343-11.480469 4.710937-22.523438 13.046874-30.859375zm-68 21.890625c-9.296874-9.296875-13.910156-21.953125-12.933593-34.828125 12.886719-.976563 25.53125 3.640625 34.828125 12.9375 8.335937 8.335937 12.894531 19.382812 13.046875 30.859375-.003907.523437-.003907 1.050781.003906 1.574218-.015625.796876-.054687 1.59375-.117187 2.394532-.777344.058594-1.554688.097656-2.328126.113281h-.917968c-11.742188.039063-23.066406-4.535156-31.582032-13.050781zm0 0"/><path d="m281.671875 378.921875c2.5625 0 5.117187-.976563 7.070313-2.929687 3.90625-3.902344 3.90625-10.234376 0-14.140626-8.746094-8.746093-20.375-13.5625-32.746094-13.5625-12.367188 0-23.996094 4.816407-32.746094 13.5625-3.902344 3.902344-3.902344 10.234376 0 14.140626 3.90625 3.90625 10.238281 3.90625 14.144531 0 10.257813-10.257813 26.949219-10.257813 37.207031 0 1.953126 1.953124 4.511719 2.929687 7.070313 2.929687zm0 0"/><path d="m307.347656 353.246094c2.5625 0 5.121094-.976563 7.070313-2.925782 3.90625-3.90625 3.90625-10.238281 0-14.144531-32.214844-32.210937-84.628907-32.210937-116.84375 0-3.902344 3.90625-3.902344 10.238281 0 14.144531 3.90625 3.902344 10.238281 3.902344 14.144531 0 24.414062-24.417968 64.144531-24.417968 88.558594 0 1.953125 1.949219 4.511718 2.925782 7.070312 2.925782zm0 0"/><path d="m248.933594 387.703125c-1.859375 1.851563-2.929688 4.429687-2.929688 7.070313 0 2.628906 1.066406 5.199218 2.929688 7.066406 1.859375 1.859375 4.429687 2.921875 7.066406 2.921875 2.632812 0 5.210938-1.0625 7.070312-2.921875 1.859376-1.867188 2.929688-4.4375 2.929688-7.066406 0-2.640626-1.070312-5.222657-2.929688-7.070313-1.867187-1.871094-4.4375-2.929687-7.070312-2.929687-2.640625 0-5.207031 1.058593-7.066406 2.929687zm0 0"/><path d="m45.941406 224.246094c1.414063.6875 2.90625 1.015625 4.378906 1.015625 3.699219 0 7.261719-2.066407 8.992188-5.617188l.4375-.898437c2.421875-4.964844.359375-10.953125-4.601562-13.371094-4.964844-2.425781-10.953126-.363281-13.371094 4.601562l-.4375.898438c-2.421875 4.964844-.359375 10.949219 4.601562 13.371094zm0 0"/><path d="m19.226562 279.082031c-4.96875-2.421875-10.953124-.355469-13.367187 4.609375l-.4375.898438c-2.417969 4.964844-.355469 10.949218 4.609375 13.367187 1.410156.6875 2.902344 1.011719 4.371094 1.011719 3.707031 0 7.265625-2.066406 8.996094-5.625l.4375-.894531c2.417968-4.964844.355468-10.953125-4.609376-13.367188zm0 0"/><path d="m27.984375 261.101562c1.410156.6875 2.90625 1.015626 4.375 1.015626 3.703125 0 7.265625-2.066407 8.996094-5.621094l.4375-.898438c2.421875-4.960937.359375-10.949218-4.605469-13.371094-4.964844-2.421874-10.949219-.359374-13.371094 4.605469l-.4375.898438c-2.417968 4.960937-.359375 10.949219 4.605469 13.371093zm0 0"/><path d="m124.628906 293.34375c1.730469 3.558594 5.292969 5.625 8.996094 5.625 1.472656 0 2.960938-.324219 4.371094-1.011719 4.964844-2.417969 7.03125-8.402343 4.613281-13.367187l-.4375-.898438c-2.417969-4.964844-8.402344-7.03125-13.367187-4.609375-4.96875 2.414063-7.03125 8.402344-4.613282 13.367188zm0 0"/><path d="m106.675781 256.496094c1.730469 3.554687 5.289063 5.621094 8.992188 5.621094 1.472656 0 2.964843-.328126 4.375-1.015626 4.964843-2.421874 7.027343-8.410156 4.605469-13.371093l-.4375-.898438c-2.421876-4.964843-8.40625-7.027343-13.371094-4.605469-4.964844 2.421876-7.023438 8.40625-4.605469 13.371094zm0 0"/><path d="m106.25 209.976562c-2.417969-4.964843-8.40625-7.027343-13.367188-4.605468-4.964843 2.421875-7.027343 8.410156-4.605468 13.371094l.4375.898437c1.734375 3.554687 5.292968 5.617187 8.996094 5.617187 1.46875 0 2.964843-.324218 4.375-1.011718 4.964843-2.421875 7.023437-8.410156 4.605468-13.371094zm0 0"/><path d="m84.015625 251.703125c0-5.523437-4.480469-10-10-10-5.523437 0-10 4.476563-10 10v1c0 5.523437 4.476563 10 10 10 5.519531 0 10-4.476563 10-10zm0 0"/><path d="m84.015625 292.703125c0-5.523437-4.480469-10-10-10-5.523437 0-10 4.476563-10 10v1c0 5.519531 4.476563 9.996094 10 9.996094 5.519531 0 10-4.476563 10-9.996094zm0 0"/><path d="m74.015625 323.699219c-5.523437 0-10 4.476562-10 10v1c0 5.519531 4.476563 10 10 10 5.519531 0 10-4.480469 10-10v-1c0-5.523438-4.476563-10-10-10zm0 0"/><path d="m470.226562 209.976562c-2.421874-4.964843-8.40625-7.027343-13.371093-4.605468-4.960938 2.421875-7.023438 8.410156-4.601563 13.371094l.4375.898437c1.730469 3.554687 5.289063 5.617187 8.992188 5.617187 1.472656 0 2.964844-.324218 4.378906-1.011718 4.960938-2.421875 7.023438-8.410156 4.601562-13.371094zm0 0"/><path d="m470.648438 256.496094c1.734374 3.554687 5.292968 5.621094 8.996093 5.621094 1.46875 0 2.964844-.328126 4.375-1.015626 4.964844-2.421874 7.023438-8.410156 4.605469-13.371093l-.441406-.898438c-2.417969-4.964843-8.40625-7.027343-13.367188-4.605469-4.964844 2.421876-7.027344 8.40625-4.605468 13.371094zm0 0"/><path d="m488.605469 293.34375c1.730469 3.558594 5.289062 5.625 8.996093 5.625 1.46875 0 2.960938-.324219 4.371094-1.011719 4.964844-2.417969 7.027344-8.402343 4.609375-13.367187l-.4375-.898438c-2.417969-4.964844-8.402343-7.03125-13.367187-4.609375-4.964844 2.414063-7.027344 8.402344-4.609375 13.367188zm0 0"/><path d="m409.917969 224.246094c1.410156.6875 2.90625 1.015625 4.375 1.015625 3.703125 0 7.261719-2.066407 8.996093-5.617188l.4375-.898437c2.421876-4.964844.359376-10.953125-4.605468-13.371094-4.964844-2.425781-10.949219-.363281-13.371094 4.601562l-.4375.898438c-2.421875 4.964844-.359375 10.949219 4.605469 13.371094zm0 0"/><path d="m383.199219 279.082031c-4.964844-2.421875-10.949219-.355469-13.367188 4.609375l-.4375.898438c-2.417969 4.964844-.351562 10.949218 4.613281 13.367187 1.410157.6875 2.898438 1.011719 4.367188 1.011719 3.707031 0 7.269531-2.066406 9-5.625l.4375-.894531c2.417969-4.964844.351562-10.953125-4.613281-13.367188zm0 0"/><path d="m391.960938 261.101562c1.410156.6875 2.902343 1.015626 4.375 1.015626 3.703124 0 7.261718-2.066407 8.996093-5.621094l.4375-.898438c2.421875-4.960937.359375-10.949218-4.605469-13.371094-4.964843-2.421874-10.949218-.359374-13.367187 4.605469l-.441406.898438c-2.421875 4.960937-.359375 10.949219 4.605469 13.371093zm0 0"/><path d="m437.988281 323.699219c-5.519531 0-9.996093 4.476562-9.996093 10v1c0 5.519531 4.476562 10 9.996093 10 5.523438 0 10-4.480469 10-10v-1c0-5.523438-4.476562-10-10-10zm0 0"/><path d="m447.988281 292.703125c0-5.523437-4.476562-10-10-10-5.519531 0-9.996093 4.476563-9.996093 10v1c0 5.519531 4.476562 9.996094 9.996093 9.996094 5.523438 0 10-4.476563 10-9.996094zm0 0"/><path d="m447.988281 251.703125c0-5.523437-4.476562-10-10-10-5.519531 0-9.996093 4.476563-9.996093 10v1c0 5.523437 4.476562 10 9.996093 10 5.523438 0 10-4.476563 10-10zm0 0"/><path d="m256 59.996094c2.632812 0 5.210938-1.070313 7.070312-2.929688 1.859376-1.863281 2.929688-4.441406 2.929688-7.070312s-1.070312-5.210938-2.929688-7.070313c-1.859374-1.859375-4.4375-2.929687-7.070312-2.929687-2.628906 0-5.207031 1.070312-7.066406 2.929687s-2.929688 4.441407-2.929688 7.070313 1.066406 5.207031 2.929688 7.070312c1.859375 1.859375 4.4375 2.929688 7.066406 2.929688zm0 0"/></svg>