<svg height="511pt" viewBox="0 1 511 511.99925" width="511pt" xmlns="http://www.w3.org/2000/svg"><g fill="#cbe558"><path d="m302.648438 264.429688s7.917968-30.746094-13.539063-52.207032c-21.460937-21.460937-51.992187-13.324218-51.992187-13.324218s-8.136719 30.53125 13.324218 51.992187c21.460938 21.460937 52.207032 13.539063 52.207032 13.539063zm0 0"/><path d="m193.292969 105.417969s28.148437-16.617188 28.148437-47.867188-28.148437-47.550781-28.148437-47.550781-28.152344 16.300781-28.152344 47.550781 28.152344 47.867188 28.152344 47.867188zm0 0"/><path d="m258.132812 133.300781s16.621094 28.152344 47.867188 28.152344c31.25 0 47.550781-28.152344 47.550781-28.152344s-16.300781-28.148437-47.550781-28.148437c-31.246094 0-47.867188 28.148437-47.867188 28.148437zm0 0"/><path d="m252.757812 391.308594s15.242188 25.820312 43.90625 25.820312c28.660157 0 43.613282-25.820312 43.613282-25.820312s-14.953125-25.816406-43.613282-25.816406c-28.664062 0-43.90625 25.816406-43.90625 25.816406zm0 0"/><path d="m104.992188 377.925781c-24.488282 0-37.261719 22.0625-37.261719 22.0625s12.773437 22.058594 37.261719 22.058594c24.488281 0 37.511718-22.058594 37.511718-22.058594s-13.023437-22.0625-37.511718-22.0625zm0 0"/><path d="m80.582031 105.152344c-31.25 0-47.550781 28.148437-47.550781 28.148437s16.300781 28.152344 47.550781 28.152344 47.867188-28.152344 47.867188-28.152344-16.617188-28.148437-47.867188-28.148437zm0 0"/></g><path d="m376.085938 297.230469c0 17.675781-14.324219 32-32 32-17.671876 0-32-14.324219-32-32 0-17.671875 14.328124-32 32-32 17.675781 0 32 14.328125 32 32zm0 0" fill="#ff6977"/><path d="m274.777344 309.992188c0 17.671874-14.328125 32-32 32s-32-14.328126-32-32c0-17.675782 14.328125-32 32-32s32 14.324218 32 32zm0 0" fill="#ff6977"/><path d="m136.140625 250.890625c21.460937-21.460937 13.324219-51.988281 13.324219-51.988281s-30.527344-8.136719-51.988282 13.324218c-21.460937 21.460938-13.539062 52.207032-13.539062 52.207032s30.742188 7.917968 52.203125-13.542969zm0 0" fill="#cbe558"/><path d="m74.496094 297.230469c0 17.675781-14.328125 32-32 32s-32-14.324219-32-32c0-17.671875 14.328125-32 32-32s32 14.328125 32 32zm0 0" fill="#ff6977"/><path d="m175.804688 309.992188c0 17.671874-14.324219 32-32 32-17.671876 0-32-14.328126-32-32 0-17.675782 14.328124-32 32-32 17.675781 0 32 14.324218 32 32zm0 0" fill="#ff6977"/><path d="m502.488281 92c0 15.464844-12.539062 28-28 28-15.464843 0-28-12.535156-28-28s12.535157-28 28-28c15.460938 0 28 12.535156 28 28zm0 0" fill="#9bc6ff"/><path d="m502.488281 217.929688c0 15.464843-12.539062 28-28 28-15.464843 0-28-12.535157-28-28 0-15.464844 12.535157-28 28-28 15.460938 0 28 12.535156 28 28zm0 0" fill="#e199be"/><path d="m502.488281 408.382812c0 15.460938-12.539062 28-28 28-15.464843 0-28-12.539062-28-28 0-15.464843 12.535157-28 28-28 15.460938 0 28 12.535157 28 28zm0 0" fill="#ffc15a"/><path d="m344.085938 339.230469c23.160156 0 42-18.839844 42-42 0-23.15625-18.839844-42-42-42-10.246094 0-19.640626 3.695312-26.9375 9.8125-1.335938-.671875-2.691407-1.300781-4.054688-1.902344 1.640625-9.945313 3.785156-37.289063-16.914062-57.988281-25.25-25.246094-60.164063-16.304688-61.636719-15.914063-3.460938.921875-6.164063 3.625-7.085938 7.089844-.394531 1.472656-9.332031 36.386719 15.914063 61.632813.785156.785156 1.578125 1.53125 2.382812 2.25-16.933594 5.808593-31.667968 16.390624-42.578125 30.148437v-89.96875c.148438-.6875.230469-1.398437.230469-2.128906 0-1.242188-.03125-2.476563-.09375-3.703125 1.800781-26.910156 23.050781-48.578125 49.78125-51.019532 7.148438 9.316407 24.917969 27.914063 52.90625 27.914063 36.59375 0 55.421875-31.785156 56.207031-33.140625 1.792969-3.097656 1.792969-6.921875 0-10.019531-.785156-1.355469-19.613281-33.140625-56.207031-33.140625-28.4375 0-46.335938 19.210937-53.25 28.367187-19.535156 1.394531-37.019531 10.292969-49.574219 23.839844v-36.632813c9.191407-6.964843 28.265625-24.835937 28.265625-53.175781 0-36.59375-31.785156-55.421875-33.136718-56.203125-3.101563-1.796875-6.925782-1.796875-10.023438 0-1.351562.78125-33.136719 19.609375-33.136719 56.203125 0 28.109375 18.757813 45.910157 28.03125 52.996094v36.566406c-12.539062-13.40625-29.929687-22.207031-49.339843-23.59375-6.914063-9.15625-24.8125-28.367187-53.253907-28.367187-36.59375 0-55.417969 31.785156-56.203125 33.140625-1.796875 3.097656-1.796875 6.921875 0 10.019531.785156 1.355469 19.609375 33.140625 56.203125 33.140625 27.992188 0 45.757813-18.601563 52.90625-27.914063 26.324219 2.402344 47.335938 23.449219 49.6875 49.789063v96.742187c-10.882812-13.613281-25.527343-24.09375-42.34375-29.859374.800781-.71875 1.597657-1.464844 2.382813-2.25 25.246094-25.246094 16.308594-60.160157 15.914062-61.632813-.921875-3.464844-3.625-6.167969-7.085937-7.089844-1.472657-.390625-36.386719-9.332031-61.636719 15.914063-20.699219 20.699218-18.550781 48.042968-16.914062 57.988281-1.363282.601563-2.714844 1.230469-4.050782 1.902344-7.300781-6.117188-16.695312-9.8125-26.941406-9.8125-23.160156 0-42 18.84375-42 42 0 23.160156 18.839844 42 42 42s42-18.839844 42-42c0-5.566407-1.097656-10.878907-3.074219-15.746094 6.859375-3.050781 14.164063-5.015625 21.664063-5.824219.589844-.042968 1.183594-.09375 1.789062-.152344 2-.167968 4.007813-.273437 6.027344-.273437 2.914062 0 5.785156.191406 8.609375.527344-10.703125 7.621093-17.707031 20.117187-17.707031 34.230469 0 23.160156 18.839844 42 42 42 16.167968 0 30.222656-9.191407 37.238281-22.617188 1.085937 4.144531 1.796875 8.4375 2.128906 12.832031v63.398438c-9.546875-8.585938-21.816406-14.195313-35.339843-15.378907-6.0625-7.738281-20.449219-22.300781-42.84375-22.300781-29.90625 0-45.277344 25.945313-45.914063 27.050781-1.796875 3.101563-1.796875 6.921876 0 10.023438.636719 1.101562 16.007813 27.046875 45.914063 27.046875 21.890624 0 36.113281-13.898437 42.410156-21.757813 18.832031 2.257813 33.769531 17.355469 35.773437 36.261719v15.449219c0 5.519531 4.480469 10 10 10 5.523438 0 10-4.480469 10-10v-8.980469c.152344-.6875.195313-4.414062.132813-5.546875 1.648437-24.089844 20.574218-43.507812 44.453125-45.910156 6.832031 8.777344 23.253906 25.566406 48.902343 25.566406 34.035157 0 51.539063-29.546875 52.269532-30.808594 1.792968-3.097656 1.792968-6.921874 0-10.019531-.730469-1.257812-18.234375-30.808593-52.269532-30.808593-26.132812 0-42.679687 17.421874-49.273437 26.046874-17.25 1.324219-32.761719 8.953126-44.214844 20.597657v-52.269531c.152344-.6875.195313-4.949219.132813-6.347657.28125-4.859375 1.035156-9.589843 2.230468-14.144531 7.015626 13.425781 21.070313 22.617188 37.242188 22.617188 23.15625 0 42-18.84375 42-42 0-14.113282-7.003906-26.613282-17.710938-34.230469 2.828126-.335938 5.699219-.53125 8.613282-.53125 2.015625 0 4.015625.109375 6.011718.273437.609376.058594 1.210938.109375 1.804688.152344 7.5.8125 14.804688 2.773438 21.664062 5.828125-1.976562 4.867187-3.074218 10.179687-3.074218 15.746094-.003906 23.160156 18.839844 42 41.996094 42zm0-64c12.132812 0 22 9.871093 22 22 0 12.132812-9.867188 22-22 22-12.128907 0-22-9.867188-22-22 0-12.128907 9.871093-22 22-22zm-38.085938-160.078125c17.769531 0 29.707031 11.324218 35.289062 18.148437-5.59375 6.835938-17.53125 18.152344-35.289062 18.152344s-29.839844-11.300781-35.53125-18.148437c5.703125-6.863282 17.78125-18.152344 35.53125-18.152344zm-225.417969 36.300781c-17.761719 0-29.699219-11.320313-35.28125-18.144531 5.585938-6.808594 17.558594-18.15625 35.28125-18.15625 17.761719 0 29.839844 11.300781 35.535157 18.148437-5.707032 6.863281-17.785157 18.152344-35.535157 18.152344zm-38.085937 167.777344c-12.128906 0-22-9.867188-22-22 0-12.128907 9.871094-22 22-22 12.132812 0 22 9.871093 22 22 0 12.132812-9.867188 22-22 22zm50.175781-63.535157c-.757813-8.628906-.121094-24.402343 11.875-36.398437 12.003906-12.003906 27.707031-12.527344 36.226563-11.710937.804687 8.515624.28125 24.25-11.703126 36.234374-7.53125 7.53125-16.550781 10.582032-24.355468 11.625-1.5.101563-3 .230469-4.492188.40625-2.84375.132813-5.417968.03125-7.550781-.15625zm51.132813 76.296876c-12.128907 0-22-9.871094-22-22 0-12.132813 9.871093-22 22-22 12.132812 0 22 9.867187 22 22 0 12.128906-9.867188 22-22 22zm-38.8125 80.054687c-11.917969 0-20.316407-7.023437-24.8125-12.0625 4.488281-5.039063 12.882812-12.058594 24.8125-12.058594 11.914062 0 20.402343 7 24.980468 12.058594-4.589844 5.070313-13.074218 12.0625-24.980468 12.0625zm191.667968-36.554687c15.515625 0 26.101563 9.644531 31.292969 15.816406-5.199219 6.1875-15.789063 15.820312-31.292969 15.820312-15.492187 0-26.199218-9.605468-31.503906-15.816406 5.292969-6.1875 16.023438-15.820312 31.503906-15.820312zm-121.519531-317.941407c0-17.769531 11.328125-29.707031 18.148437-35.289062 6.835938 5.59375 18.152344 17.53125 18.152344 35.289062 0 17.746094-11.285156 29.824219-18.148437 35.53125-6.863281-5.707031-18.152344-17.785156-18.152344-35.53125zm67.636719 274.441407c-12.128906 0-22-9.871094-22-22 0-12.132813 9.871094-22 22-22 12.132812 0 22 9.867187 22 22 0 12.128906-9.867188 22-22 22zm3.023437-124.402344c8.539063-.820313 24.234375-.292969 36.234375 11.707031 11.992188 11.992187 12.632813 27.753906 11.875 36.390625-2.203125.191406-4.882812.289062-7.847656.132812-1.292969-.144531-2.589844-.261718-3.890625-.351562-7.878906-1.003906-17.042969-4.035156-24.660156-11.648438-12.007813-12.007812-12.523438-27.714843-11.710938-36.230468zm0 0"/><path d="m193.175781 492c-2.628906 0-5.210937 1.066406-7.070312 2.929688-1.859375 1.859374-2.929688 4.441406-2.929688 7.070312s1.070313 5.210938 2.929688 7.066406c1.859375 1.863282 4.441406 2.933594 7.070312 2.933594 2.628907 0 5.210938-1.070312 7.070313-2.933594 1.859375-1.855468 2.929687-4.4375 2.929687-7.066406s-1.070312-5.210938-2.929687-7.070312c-1.859375-1.859376-4.441406-2.929688-7.070313-2.929688zm0 0"/><path d="m382.175781 121.6875c2.558594 0 5.121094-.976562 7.070313-2.925781l16.574218-16.574219h32.066407c4.464843 16.019531 19.175781 27.8125 36.601562 27.8125 20.953125 0 38-17.046875 38-38s-17.046875-38-38-38c-17.5625 0-32.375 11.976562-36.710937 28.1875h-36.101563c-2.648437 0-5.195312 1.054688-7.070312 2.929688l-19.5 19.5c-3.902344 3.90625-3.902344 10.238281 0 14.144531 1.953125 1.949219 4.511719 2.925781 7.070312 2.925781zm92.3125-47.6875c9.921875 0 18 8.074219 18 18s-8.078125 18-18 18c-9.925781 0-18-8.074219-18-18s8.074219-18 18-18zm0 0"/><path d="m474.488281 179.929688c-17.5625 0-32.375 11.976562-36.710937 28.191406h-36.101563c-2.648437 0-5.195312 1.050781-7.070312 2.925781l-17.1875 17.191406c-3.90625 3.90625-3.90625 10.238281 0 14.144531 1.953125 1.949219 4.511719 2.925782 7.070312 2.925782 2.558594 0 5.117188-.976563 7.070313-2.925782l14.261718-14.261718h32.066407c4.464843 16.015625 19.179687 27.808594 36.601562 27.808594 20.953125 0 38-17.046876 38-38 0-20.953126-17.046875-38-38-38zm0 56c-9.925781 0-18-8.074219-18-18 0-9.925782 8.074219-18 18-18 9.921875 0 18 8.074218 18 18 0 9.925781-8.078125 18-18 18zm0 0"/><path d="m474.488281 370.378906c-17.425781 0-32.136719 11.792969-36.601562 27.8125h-46.066407c-5.523437 0-10 4.476563-10 10 0 5.519532 4.476563 10 10 10h45.957032c4.335937 16.210938 19.148437 28.1875 36.707031 28.1875 20.953125 0 38-17.046875 38-38s-17.042969-38-37.996094-38zm0 56c-9.925781 0-18-8.074218-18-18 0-9.921875 8.074219-18 18-18 9.921875 0 18 8.078125 18 18 0 9.925782-8.078125 18-18 18zm0 0"/></svg>