<svg height="511pt" viewBox="0 -12 511.99974 511" width="511pt" xmlns="http://www.w3.org/2000/svg"><path d="m153.257812 381.714844-128.597656-128.59375c-21.914062-21.914063-18.847656-58.273438 6.421875-76.210938l200.921875-142.605468 140.066406 140.066406-142.605468 200.921875c-17.9375 25.269531-54.296875 28.335937-76.207032 6.421875zm0 0" fill="#cee3ff"/><path d="m243.128906 359.039062 107.367188-22.617187 19.832031 19.835937c4.179687 4.175782 11.320313 1.21875 11.320313-4.6875v-78.507812c0-5.90625-7.140626-8.863281-11.320313-4.6875l-20.730469 20.730469h-56.832031" fill="#fff"/><g fill="#9bc6ff"><path d="m129.113281 52.683594 31.5 31.5 29.757813-20.753906-36-36c-13.949219-13.949219-36.5625-13.949219-50.511719 0l-62.296875 62.296874c-13.945312 13.945313-13.945312 36.558594 0 50.507813l15.890625 15.890625 29.757813-20.753906-20.390626-20.390625zm0 0"/><path d="m362.0625 164.148438-116.679688-116.679688c-8.457031-8.457031-8.457031-22.167969 0-30.625 8.457032-8.457031 22.167969-8.457031 30.625 0l116.679688 116.679688c8.457031 8.457031 8.457031 22.167968 0 30.625-8.457031 8.453124-22.167969 8.453124-30.625 0zm0 0"/><path d="m243.128906 359.039062 107.367188-22.617187 19.832031 19.835937c4.179687 4.175782 11.320313 1.21875 11.320313-4.6875v-78.507812c0-5.90625-7.140626-8.863281-11.320313-4.6875l-20.730469 20.730469h-56.832031zm0 0"/></g><path d="m399.757812 171.21875c12.34375-12.34375 12.34375-32.425781 0-44.769531l-116.679687-116.679688c-5.976563-5.976562-13.925781-9.269531-22.382813-9.269531-8.453124 0-16.40625 3.292969-22.382812 9.269531-4.21875 4.21875-6.992188 9.339844-8.328125 14.75-1.320313.269531-2.605469.808594-3.765625 1.628907l-34.5 24.488281-30.277344-30.28125c-17.824218-17.820313-46.828125-17.824219-64.652344 0l-62.296874 62.296875c-17.824219 17.824218-17.824219 46.828125 0 64.652344l8.730468 8.730468-17.925781 12.722656c-14.453125 10.257813-23.59375 26.269532-25.082031 43.925782-1.488282 17.660156 4.84375 34.976562 17.375 47.507812l36.015625 36.015625c3.902343 3.902344 10.234375 3.902344 14.140625 0 3.90625-3.90625 3.90625-10.238281 0-14.144531l-36.011719-36.011719c-8.359375-8.359375-12.582031-19.90625-11.589844-31.6875.992188-11.777343 7.089844-22.457031 16.730469-29.296875l149.839844-106.351562 70.414062 70.414062c1.953125 1.953125 4.511719 2.929688 7.070313 2.929688 2.558593 0 5.121093-.976563 7.070312-2.929688 3.90625-3.902344 3.90625-10.234375 0-14.140625l-68.011719-68.015625 27.652344-19.625 128.121094 128.121094-137.722656 194.035156c-6.839844 9.640625-17.519532 15.738282-29.296875 16.730469-11.777344.984375-23.324219-3.230469-31.683594-11.589844l-36.011719-36.015625c-3.90625-3.902344-10.238281-3.902344-14.144531 0-3.902344 3.90625-3.90625 10.238282 0 14.144532l36.015625 36.011718c11.328125 11.328125 26.5625 17.589844 42.425781 17.589844 1.6875 0 3.382813-.066406 5.078125-.210938 17.660156-1.488281 33.671875-10.632812 43.929688-25.082031l8.898437-12.535156 100.734375-21.222656 16.003906 16.003906c4.773438 4.773437 11.890626 6.1875 18.125 3.605469 6.234376-2.582032 10.265626-8.613282 10.265626-15.363282v-78.507812c0-6.75-4.03125-12.78125-10.265626-15.363281-6.238281-2.582031-13.351562-1.167969-18.125 3.605469l-17.800781 17.800781h-35.457031l70.089844-98.75c7.179687-.613281 14.1875-3.65625 19.667968-9.136719zm-351.121093-38.054688c-10.027344-10.027343-10.027344-26.34375 0-36.367187l62.292969-62.296875c10.027343-10.027344 26.34375-10.023438 36.367187 0l27.878906 27.878906-13 9.226563-25.988281-25.992188c-3.90625-3.90625-10.238281-3.90625-14.144531 0l-62.296875 62.296875c-1.875 1.875-2.929688 4.417969-2.929688 7.070313 0 2.652343 1.054688 5.195312 2.929688 7.070312l13.015625 13.015625-13 9.226563zm40.667969-9.839843-8.34375-8.34375 48.152343-48.152344 16.519531 16.519531zm260.292968 175.78125c2.652344 0 5.195313-1.054688 7.070313-2.929688l14.980469-14.976562v62.234375l-14.082032-14.082032c-2.390625-2.390624-5.824218-3.414062-9.132812-2.714843l-84.859375 17.875 32.226562-45.40625zm-97.144531-275.191407c2.203125-2.203124 5.128906-3.414062 8.242187-3.414062 3.113282 0 6.039063 1.210938 8.242188 3.414062l116.679688 116.679688c4.542968 4.542969 4.542968 11.9375 0 16.480469-4.546876 4.546875-11.9375 4.546875-16.484376 0l-116.679687-116.679688c-4.542969-4.542969-4.542969-11.9375 0-16.480469zm0 0"/><path d="m88.960938 307.417969c-2.632813 0-5.210938 1.066406-7.070313 2.929687-1.859375 1.859375-2.929687 4.4375-2.929687 7.070313 0 2.628906 1.070312 5.207031 2.929687 7.066406 1.859375 1.863281 4.4375 2.933594 7.070313 2.933594 2.628906 0 5.207031-1.070313 7.070312-2.933594 1.859375-1.859375 2.929688-4.429687 2.929688-7.066406 0-2.632813-1.070313-5.210938-2.929688-7.070313-1.863281-1.859375-4.441406-2.929687-7.070312-2.929687zm0 0"/><path d="m409.214844 328.484375.449218.191406c1.28125.550781 2.617188.808594 3.929688.808594 3.882812 0 7.574219-2.273437 9.199219-6.066406 2.171875-5.074219-.179688-10.953125-5.257813-13.128907l-.46875-.199218c-5.082031-2.167969-10.957031.191406-13.125 5.273437-2.167968 5.078125.191406 10.953125 5.273438 13.121094zm0 0"/><path d="m456.828125 342.976562c-.238281-.351562-.472656-.703124-.714844-1.046874-3.136719-4.546876-9.367187-5.6875-13.910156-2.546876-4.542969 3.136719-5.683594 9.363282-2.546875 13.90625.183594.269532.367188.539063.550781.8125 1.925781 2.878907 5.09375 4.4375 8.320313 4.4375 1.910156 0 3.84375-.546874 5.550781-1.691406 4.589844-3.070312 5.820313-9.28125 2.75-13.871094zm0 0"/><path d="m461.988281 401.894531h.132813c5.523437-.074219 9.941406-4.609375 9.871094-10.132812-.003907-.421875-.015626-.84375-.027344-1.265625-.148438-5.519532-4.753906-9.875-10.269532-9.71875-5.523437.148437-9.875 4.75-9.722656 10.269531.011719.324219.015625.652344.019532.976563.074218 5.476562 4.535156 9.871093 9.996093 9.871093zm0 0"/><path d="m462 426.832031c-5.523438 0-10 4.480469-10 10v.5c0 5.523438 4.476562 10 10 10s10-4.476562 10-10v-.5c0-5.519531-4.476562-10-10-10zm0 0"/><path d="m420.082031 382.035156c4.464844-3.25 5.449219-9.503906 2.199219-13.96875l-.34375-.46875c-3.289062-4.4375-9.554688-5.371094-13.988281-2.082031-4.4375 3.289063-5.371094 9.550781-2.082031 13.988281l.246093.335938c1.957031 2.6875 5.003907 4.113281 8.09375 4.113281 2.039063 0 4.101563-.625 5.875-1.917969zm0 0"/><path d="m421.824219 431.71875c-5.523438 0-10 4.476562-10 10v.855469c0 5.523437 4.476562 10 10 10 5.523437 0 10-4.476563 10-10v-.855469c0-5.523438-4.476563-10-10-10zm0 0"/><path d="m421.824219 396.601562c-5.523438 0-10 4.480469-10 10v.855469c0 5.523438 4.476562 10 10 10 5.523437 0 10-4.476562 10-10v-.855469c0-5.523437-4.476563-10-10-10zm0 0"/><path d="m421.824219 466.832031c-5.523438 0-10 4.480469-10 10v.5c0 5.523438 4.476562 10 10 10 5.523437 0 10-4.476562 10-10v-.5c0-5.519531-4.476563-10-10-10zm0 0"/><path d="m411.257812 285.597656.429688.121094c.902344.25 1.808594.371094 2.699219.371094 4.371093 0 8.390625-2.890625 9.625-7.308594 1.484375-5.320312-1.621094-10.839844-6.9375-12.324219l-.539063-.148437c-5.328125-1.464844-10.828125 1.679687-12.28125 7.007812-1.457031 5.324219 1.679688 10.824219 7.003906 12.28125zm0 0"/><path d="m444.84375 301.375.78125.550781c1.753906 1.238281 3.769531 1.835938 5.765625 1.835938 3.136719 0 6.226563-1.472657 8.175781-4.230469 3.1875-4.507812 2.117188-10.75-2.390625-13.9375l-.863281-.605469c-4.527344-3.164062-10.761719-2.0625-13.929688 2.460938-3.164062 4.523437-2.0625 10.757812 2.460938 13.925781zm0 0"/><path d="m488.507812 317.113281-.628906-.886719c-3.207031-4.5-9.449218-5.539062-13.945312-2.335937-4.496094 3.207031-5.542969 9.453125-2.335938 13.945313l.535156.757812c1.945313 2.773438 5.046876 4.257812 8.195313 4.257812 1.984375 0 3.984375-.585937 5.734375-1.8125 4.519531-3.167968 5.617188-9.40625 2.445312-13.925781zm0 0"/><path d="m500.398438 369.613281c5.328124-1.453125 8.46875-6.949219 7.015624-12.277343-.09375-.351563-.191406-.703126-.289062-1.054688-1.503906-5.316406-7.035156-8.40625-12.34375-6.902344-5.316406 1.503906-8.40625 7.027344-6.902344 12.34375l.242188.875c1.214844 4.449219 5.242187 7.375 9.644531 7.375.867187 0 1.753906-.117187 2.632813-.359375zm0 0"/><path d="m502 389.832031c-5.523438 0-10 4.480469-10 10v.5c0 5.523438 4.476562 10 10 10s10-4.476562 10-10v-.5c0-5.519531-4.476562-10-10-10zm0 0"/></svg>