<svg height="512pt" viewBox="0 0 512 512" width="512pt" xmlns="http://www.w3.org/2000/svg"><path d="m10 390h492v112h-492zm0 0" fill="#e6b9a0"/><g fill="#ffc15a"><path d="m319.203125 191.410156-.007813.011719c.035157.140625 5.519532 33.101563-11.734374 52.394531-17.265626 19.292969-50.082032 18.207032-50.226563 18.203125l-.003906.007813.003906-.007813-.003906.003907.007812-.007813c-.046875-.273437-6.328125-33.871094 10.898438-53.132813 17.296875-19.339843 51.066406-17.472656 51.066406-17.472656zm0 0"/><path d="m243.964844 208.882812c17.226562 19.257813 10.941406 52.859376 10.898437 53.132813l.003907.007813-.003907-.003907.007813.007813-.003906-.007813c-.144532.003907-32.960938 1.089844-50.226563-18.203125-17.253906-19.292968-11.769531-52.253906-11.734375-52.394531l-.011719-.011719c.003907 0 33.773438-1.867187 51.070313 17.472656zm0 0"/><path d="m319.203125 251.917969-.007813.011719c.035157.140624 5.519532 33.101562-11.734374 52.390624-17.265626 19.292969-50.082032 18.210938-50.226563 18.207032l-.003906.003906.003906-.007812-.003906.007812.007812-.007812c-.046875-.273438-6.328125-33.875 10.898438-53.132813 17.296875-19.339844 51.066406-17.472656 51.066406-17.472656zm0 0"/><path d="m243.964844 269.390625c17.226562 19.257813 10.941406 52.859375 10.898437 53.132813l.003907.007812-.003907-.007812.007813.007812-.003906-.003906c-.144532.003906-32.960938 1.089844-50.226563-18.207032-17.253906-19.289062-11.769531-52.25-11.734375-52.390624l-.011719-.011719c.003907 0 33.773438-1.867188 51.070313 17.472656zm0 0"/><path d="m319.203125 130.847656-.007813.011719c.035157.140625 5.519532 33.101563-11.734374 52.394531-17.265626 19.292969-50.082032 18.210938-50.226563 18.207032l-.003906.003906.003906-.007813-.003906.003907.007812-.007813c-.046875-.273437-6.328125-33.871094 10.898438-53.132813 17.296875-19.339843 51.066406-17.472656 51.066406-17.472656zm0 0"/><path d="m243.964844 148.320312c17.226562 19.257813 10.941406 52.859376 10.898437 53.132813l.003907.007813-.003907-.003907.007813.007813-.003906-.003906c-.144532.003906-32.960938 1.085937-50.226563-18.207032-17.253906-19.292968-11.769531-52.253906-11.734375-52.394531l-.011719-.011719c.003907 0 33.773438-1.867187 51.070313 17.472656zm0 0"/><path d="m319.203125 70.320312-.007813.007813c.035157.144531 5.519532 33.101563-11.734374 52.394531-17.265626 19.292969-50.082032 18.210938-50.226563 18.207032l-.003906.003906.003906-.007813-.003906.003907.007812-.003907c-.046875-.273437-6.328125-33.875 10.898438-53.136719 17.296875-19.339843 51.066406-17.46875 51.066406-17.46875zm0 0"/><path d="m243.964844 87.789062c17.226562 19.261719 10.941406 52.863282 10.898437 53.136719l.003907.003907-.003907-.003907.007813.007813-.003906-.003906c-.144532.003906-32.960938 1.085937-50.226563-18.207032-17.253906-19.292968-11.769531-52.25-11.734375-52.394531l-.011719-.007813c.003907 0 33.773438-1.871093 51.070313 17.46875zm0 0"/><path d="m137.203125 201.753906-.007813.007813c.035157.144531 5.519532 33.101562-11.734374 52.394531-17.265626 19.292969-50.082032 18.210938-50.226563 18.207031l-.003906.003907.003906-.007813-.003906.003906.007812-.003906c-.046875-.273437-6.328125-33.875 10.898438-53.132813 17.296875-19.339843 51.066406-17.472656 51.066406-17.472656zm0 0"/><path d="m61.964844 219.226562c17.226562 19.257813 10.941406 52.859376 10.898437 53.132813l.003907.003906-.003907-.003906.007813.007813-.003906-.003907c-.144532.003907-32.960938 1.085938-50.226563-18.207031-17.253906-19.292969-11.769531-52.25-11.734375-52.394531l-.011719-.007813c.003907 0 33.773438-1.867187 51.070313 17.472656zm0 0"/><path d="m137.203125 262.261719-.007813.007812c.035157.144531 5.519532 33.101563-11.734374 52.394531-17.265626 19.292969-50.082032 18.210938-50.226563 18.207032l-.003906.003906.003906-.007812-.003906.003906.007812-.003906c-.046875-.273438-6.328125-33.875 10.898438-53.132813 17.296875-19.339844 51.066406-17.472656 51.066406-17.472656zm0 0"/><path d="m61.964844 279.734375c17.226562 19.257813 10.941406 52.859375 10.898437 53.132813l.003907.003906-.003907-.003906.007813.007812-.003906-.003906c-.144532.003906-32.960938 1.089844-50.226563-18.207032-17.253906-19.292968-11.769531-52.25-11.734375-52.394531l-.011719-.007812c.003907 0 33.773438-1.867188 51.070313 17.472656zm0 0"/><path d="m137.203125 141.191406-.007813.007813c.035157.144531 5.519532 33.105469-11.734374 52.394531-17.265626 19.292969-50.082032 18.210938-50.226563 18.207031l-.003906.003907.003906-.007813-.003906.007813.007812-.007813c-.046875-.273437-6.328125-33.875 10.898438-53.132813 17.296875-19.339843 51.066406-17.472656 51.066406-17.472656zm0 0"/><path d="m61.964844 158.664062c17.226562 19.257813 10.941406 52.859376 10.898437 53.132813l.003907.007813-.003907-.007813.007813.007813-.003906-.003907c-.144532.003907-32.960938 1.089844-50.226563-18.207031-17.253906-19.289062-11.769531-52.25-11.734375-52.394531l-.011719-.007813c.003907 0 33.773438-1.867187 51.070313 17.472656zm0 0"/><path d="m425.964844 219.226562c17.226562 19.257813 10.941406 52.859376 10.898437 53.132813l.003907.003906-.003907-.003906.007813.007813-.003906-.003907c-.144532.003907-32.960938 1.085938-50.226563-18.207031-17.253906-19.292969-11.769531-52.25-11.734375-52.394531l-.011719-.007813c.003907 0 33.773438-1.867187 51.070313 17.472656zm0 0"/><path d="m501.203125 201.753906-.007813.007813c.035157.144531 5.519532 33.101562-11.734374 52.394531-17.265626 19.292969-50.082032 18.210938-50.226563 18.207031l-.003906.003907.003906-.007813-.003906.003906.007812-.003906c-.046875-.273437-6.328125-33.875 10.898438-53.132813 17.296875-19.339843 51.066406-17.472656 51.066406-17.472656zm0 0"/><path d="m425.964844 279.734375c17.226562 19.257813 10.941406 52.859375 10.898437 53.132813l.003907.003906-.003907-.003906.007813.007812-.003906-.003906c-.144532.003906-32.960938 1.089844-50.226563-18.207032-17.253906-19.292968-11.769531-52.25-11.734375-52.394531l-.011719-.007812c.003907 0 33.773438-1.867188 51.070313 17.472656zm0 0"/><path d="m501.203125 262.261719-.007813.007812c.035157.144531 5.519532 33.101563-11.734374 52.394531-17.265626 19.292969-50.082032 18.210938-50.226563 18.207032l-.003906.003906.003906-.007812-.003906.003906.007812-.003906c-.046875-.273438-6.328125-33.875 10.898438-53.132813 17.296875-19.339844 51.066406-17.472656 51.066406-17.472656zm0 0"/><path d="m425.964844 158.664062c17.226562 19.257813 10.941406 52.859376 10.898437 53.132813l.003907.007813-.003907-.007813.007813.007813-.003906-.003907c-.144532.003907-32.960938 1.089844-50.226563-18.207031-17.253906-19.289062-11.769531-52.25-11.734375-52.394531l-.011719-.007813c.003907 0 33.773438-1.867187 51.070313 17.472656zm0 0"/><path d="m501.203125 141.191406-.007813.007813c.035157.144531 5.519532 33.105469-11.734374 52.394531-17.265626 19.292969-50.082032 18.210938-50.226563 18.207031l-.003906.003907.003906-.007813-.003906.007813.007812-.007813c-.046875-.273437-6.328125-33.875 10.898438-53.132813 17.296875-19.339843 51.066406-17.472656 51.066406-17.472656zm0 0"/></g><path d="m10 380c-5.523438 0-10 4.476562-10 10s4.476562 10 10 10h492c5.523438 0 10-4.476562 10-10s-4.476562-10-10-10h-53.949219v-37.445312c12.484375-1.046876 34.542969-5.21875 48.863281-21.222657 18.097657-20.238281 15.332032-51.675781 14.277344-59.585937-.054687-1.117188-.300781-2.230469-.742187-3.300782-1.3125-3.179687-4.15625-5.421874-7.488281-6.015624 11.355468-19.628907 9.148437-44.308594 8.230468-51.191407-.054687-1.117187-.300781-2.230469-.742187-3.300781-1.316407-3.1875-4.171875-5.433594-7.519531-6.019531 11.390624-19.636719 9.179687-44.355469 8.261718-51.242188-.058594-1.117187-.300781-2.230469-.742187-3.300781-1.46875-3.558594-4.851563-5.957031-8.691407-6.167969-.582031-.035156-6.027343-.296875-13.675781.523438v-32.015625c0-5.523438-4.476562-10-10-10-5.523437 0-10 4.476562-10 10v36.308594c-9.039062 3.058593-18.269531 8-25.398437 15.972656-1.738282 1.941406-3.273438 3.992187-4.632813 6.113281-1.363281-2.121094-2.898437-4.171875-4.632812-6.113281-7.113281-7.953125-16.316407-12.890625-25.332031-15.949219v-36.332031c0-5.523438-4.480469-10-10-10-5.523438 0-10 4.476562-10 10v32.023437c-7.6875-.828125-13.160157-.5625-13.742188-.53125-3.84375.210938-7.21875 2.617188-8.6875 6.175781-.429688 1.042969-.671875 2.132813-.738281 3.222657-.910157 6.789062-3.175781 31.609375 8.253906 51.3125-3.347656.589843-6.199219 2.835937-7.515625 6.027343-.429688 1.042969-.671875 2.132813-.734375 3.222657-.914063 6.78125-3.175781 31.5625 8.21875 51.261719-3.332031.59375-6.167969 2.839843-7.480469 6.019531-.433594 1.042969-.675781 2.136719-.738281 3.226562-1.050781 7.792969-3.886719 39.355469 14.269531 59.65625 14.324219 16.007813 36.390625 20.179688 48.863282 21.222657v37.445312h-162v-47.789062c12.480468-1.046876 34.539062-5.21875 48.859374-21.222657 18.101563-20.238281 15.335938-51.675781 14.28125-59.585937-.058593-1.117188-.304687-2.230469-.746093-3.300782-1.3125-3.179687-4.152344-5.421874-7.484375-6.015624 11.351562-19.628907 9.148437-44.308594 8.230468-51.191407-.058593-1.113281-.304687-2.230469-.746093-3.296875-1.3125-3.191406-4.171875-5.4375-7.515625-6.023437 11.386718-19.636719 9.179687-44.351563 8.261718-51.242188-.058593-1.113281-.304687-2.230469-.746093-3.300781-1.3125-3.183594-4.160157-5.425781-7.5-6.015625 11.371093-19.632813 9.164062-44.328125 8.246093-51.214844-.058593-1.113281-.304687-2.230469-.746093-3.296875-1.464844-3.558594-4.847657-5.957031-8.691407-6.171875-.582031-.03125-6.039062-.292969-13.707031.527344v-31.664063c0-5.519531-4.476562-10-10-10-5.523437 0-10 4.480469-10 10v35.964844c-9.027343 3.0625-18.242187 8-25.367187 15.964844-1.738282 1.941406-3.269532 3.992188-4.632813 6.113281-1.363281-2.121093-2.894531-4.171875-4.628906-6.113281-7.125-7.964844-16.339844-12.902344-25.371094-15.964844v-35.964844c0-5.519531-4.476562-10-10-10-5.523437 0-10 4.480469-10 10v31.667969c-7.664062-.824219-13.125-.5625-13.707031-.527343-3.839844.210937-7.21875 2.613281-8.6875 6.171874-.429688 1.042969-.671875 2.132813-.734375 3.222657-.914063 6.785156-3.175781 31.585937 8.230469 51.285156-3.335938.589844-6.179688 2.839844-7.496094 6.023437-.429688 1.042969-.671875 2.132813-.734375 3.222657-.914063 6.789062-3.179687 31.609375 8.25 51.3125-3.347656.585937-6.199219 2.835937-7.515625 6.027343-.429688 1.042969-.671875 2.132813-.734375 3.222657-.914063 6.78125-3.175781 31.5625 8.21875 51.261719-3.332031.59375-6.167969 2.839843-7.480469 6.019531-.433594 1.042969-.675781 2.132812-.738281 3.222656-1.050781 7.792969-3.886719 39.359375 14.269531 59.660156 14.324219 16.007813 36.390625 20.179688 48.863282 21.222657v47.789062h-162v-37.445312c12.480468-1.046876 34.539062-5.21875 48.859374-21.222657 18.101563-20.238281 15.335938-51.675781 14.28125-59.585937-.058593-1.117188-.304687-2.230469-.746093-3.300782-1.3125-3.179687-4.152344-5.421874-7.484375-6.015624 11.351562-19.628907 9.148437-44.308594 8.230468-51.191407-.058593-1.117187-.304687-2.230469-.746093-3.300781-1.3125-3.1875-4.171875-5.433594-7.515625-6.019531 11.386718-19.636719 9.179687-44.355469 8.257812-51.242188-.054687-1.117187-.300781-2.230469-.742187-3.300781-1.46875-3.558594-4.847657-5.957031-8.691407-6.167969-.582031-.035156-6.058593-.296875-13.738281.53125v-32.023437c0-5.523438-4.480469-10-10-10-5.523437 0-10 4.476562-10 10v36.332031c-9.019531 3.058594-18.222656 7.996094-25.335937 15.949219-1.738282 1.941406-3.269532 3.992187-4.632813 6.113281-1.363281-2.121094-2.894531-4.171875-4.628906-6.113281-7.132813-7.972656-16.363281-12.914063-25.402344-15.972656v-36.308594c0-5.523438-4.480469-10-10-10-5.523437 0-10 4.476562-10 10v32.019531c-7.648437-.820313-13.09375-.558594-13.675781-.527344-3.839844.210938-7.21875 2.617188-8.6875 6.175781-.429688 1.042969-.671875 2.132813-.734375 3.222657-.9140625 6.789062-3.179687 31.609375 8.25 51.3125-3.34375.589843-6.199219 2.835937-7.511719 6.027343-.433594 1.042969-.675781 2.132813-.738281 3.222657-.9140625 6.78125-3.171875 31.5625 8.222656 51.261719-3.332031.59375-6.171875 2.839843-7.484375 6.019531-.429687 1.042969-.675781 2.136719-.738281 3.226562-1.046875 7.792969-3.886719 39.355469 14.269531 59.65625 14.328125 16.007813 36.390625 20.179688 48.863282 21.222657v37.445312zm400.671875-121.957031c-6.078125-2.207031-12.082031-5.53125-16.578125-10.550781-8.582031-9.601563-10.28125-25.015626-10.046875-35.492188 5.027344.417969 11.636719 1.410156 18.105469 3.664062.769531.304688 1.539062.59375 2.3125.867188 5.222656 2.09375 10.21875 5.078125 14.046875 9.359375v.003906c8.363281 9.347657 9.964843 24.773438 9.433593 36.007813-4.746093-.515625-10.902343-1.578125-17.007812-3.761719-.085938-.035156-.175781-.0625-.265625-.097656zm54.554687.074219c-6.117187 2.195312-12.296874 3.265624-17.070312 3.78125-.53125-11.234376 1.070312-26.65625 9.433594-36.007813 3.835937-4.285156 8.835937-7.273437 14.066406-9.367187.753906-.269532 1.511719-.550782 2.269531-.847657 6.472657-2.261719 13.09375-3.257812 18.128907-3.675781.230468 10.476562-1.460938 25.890625-10.046876 35.488281-4.511718 5.039063-10.546874 8.375-16.652343 10.582031-.042969.015626-.085938.03125-.128907.046876zm16.78125 49.878906c-9.09375 10.160156-24.304687 13.398437-33.851562 14.421875-.53125-11.234375 1.066406-26.664063 9.433594-36.019531 3.667968-4.101563 8.410156-7.007813 13.394531-9.089844 1.253906-.433594 2.515625-.910156 3.777344-1.417969 6.203125-2.0625 12.472656-2.984375 17.289062-3.382813.234375 10.476563-1.457031 25.890626-10.042969 35.488282zm-24.417968-142.667969c9.085937-10.160156 24.734375-13.082031 34.464844-13.890625.230468 10.476562-1.460938 25.890625-10.046876 35.488281-9.09375 10.160157-24.304687 13.398438-33.851562 14.421875-.53125-11.234375 1.066406-26.664062 9.433594-36.019531zm-73.539063-13.890625c9.726563.808594 25.375 3.730469 34.460938 13.890625 8.367187 9.355469 9.964843 24.785156 9.433593 36.019531-9.535156-1.019531-24.753906-4.257812-33.851562-14.417968-8.582031-9.601563-10.277344-25.015626-10.042969-35.492188zm43.894531 170.980469c-9.535156-1.019531-24.753906-4.257813-33.851562-14.421875-8.582031-9.597656-10.28125-25.011719-10.046875-35.488282 4.8125.398438 11.070313 1.320313 17.265625 3.375 1.28125.515626 2.5625 1 3.835938 1.441407 4.972656 2.078125 9.703124 4.980469 13.363281 9.074219 8.367187 9.355468 9.964843 24.785156 9.433593 36.019531zm-200.128906-75.03125c-5.777344-2.207031-11.429687-5.445313-15.722656-10.238281-8.582031-9.601563-10.28125-25.015626-10.046875-35.492188 5.027344.417969 11.628906 1.410156 18.09375 3.664062.777344.304688 1.554687.597657 2.332031.871094 5.21875 2.09375 10.210938 5.078125 14.039063 9.359375 8.367187 9.351563 9.964843 24.785157 9.433593 36.019531-4.667968-.5-10.703124-1.539062-16.710937-3.65625-.472656-.183593-.945313-.355468-1.417969-.527343zm55.054688.523437c-6.007813 2.117188-12.042969 3.15625-16.714844 3.65625-.53125-11.230468 1.066406-26.664062 9.433594-36.019531 3.832031-4.28125 8.832031-7.269531 14.058594-9.363281.761718-.269532 1.527343-.558594 2.289062-.859375 6.472656-2.257813 13.085938-3.25 18.117188-3.667969.230468 10.476562-1.460938 25.890625-10.046876 35.488281-4.289062 4.792969-9.945312 8.035157-15.726562 10.242188-.46875.171875-.941406.34375-1.410156.523437zm-46.359375-92.925781c8.367187 9.355469 9.964843 24.789063 9.433593 36.023437-9.535156-1.023437-24.753906-4.257812-33.847656-14.421874-8.585937-9.601563-10.28125-25.015626-10.046875-35.488282 4.832031.398438 11.128907 1.324219 17.355469 3.398438 1.21875.496094 2.441406.957031 3.652344 1.378906 5.007812 2.082031 9.769531 4.992188 13.453125 9.109375zm56.171875-10.480469c6.230468-2.078125 12.53125-3.007812 17.371094-3.40625.230468 10.476563-1.460938 25.886719-10.046876 35.488282-9.09375 10.15625-24.304687 13.398437-33.851562 14.417968-.53125-11.230468 1.070312-26.664062 9.4375-36.019531 3.683594-4.121094 8.453125-7.035156 13.464844-9.117187 1.203125-.417969 2.414062-.875 3.625-1.363282zm7.324218 153.148438c-9.09375 10.160156-24.304687 13.398437-33.851562 14.421875-.53125-11.234375 1.066406-26.664063 9.433594-36.019531 3.621094-4.042969 8.28125-6.929688 13.191406-9.003907 1.382812-.476562 2.773438-.996093 4.164062-1.5625 6.144532-2.015625 12.335938-2.929687 17.105469-3.324219.234375 10.476563-1.457031 25.890626-10.042969 35.488282zm-24.417968-203.195313c9.085937-10.160156 24.734375-13.085937 34.464844-13.890625.230468 10.476563-1.460938 25.890625-10.046876 35.488282-9.09375 10.160156-24.304687 13.398437-33.851562 14.421874-.53125-11.234374 1.066406-26.664062 9.433594-36.019531zm-73.539063-13.890625c9.726563.804688 25.375 3.730469 34.460938 13.890625 8.367187 9.355469 9.964843 24.785157 9.433593 36.019531-9.535156-1.019531-24.753906-4.257812-33.851562-14.417968-8.582031-9.601563-10.277344-25.015625-10.042969-35.492188zm43.894531 231.507813c-9.535156-1.019531-24.753906-4.257813-33.851562-14.421875-8.582031-9.597656-10.28125-25.011719-10.046875-35.488282 4.769531.394532 10.957031 1.308594 17.09375 3.320313 1.402344.570313 2.800781 1.09375 4.191406 1.574219 4.90625 2.074218 9.5625 4.953125 13.179688 8.996094 8.367187 9.355468 9.964843 24.789062 9.433593 36.019531zm-199.28125-54.035157c-6.074218-2.207031-12.078124-5.53125-16.566406-10.546874-8.585937-9.601563-10.28125-25.015626-10.046875-35.492188 5.027344.417969 11.632813 1.410156 18.101563 3.664062.769531.304688 1.542968.59375 2.3125.867188 5.222656 2.09375 10.21875 5.078125 14.046875 9.359375v.003906c8.363281 9.347657 9.964843 24.773438 9.4375 36.007813-4.75-.515625-10.902344-1.578125-17.003907-3.757813-.09375-.039062-.1875-.070312-.28125-.105469zm54.5625.078126c-6.117187 2.195312-12.296874 3.265624-17.070312 3.78125-.53125-11.234376 1.070312-26.65625 9.433594-36.007813 3.835937-4.285156 8.835937-7.273437 14.066406-9.367187.753906-.269532 1.511719-.550782 2.269531-.847657 6.472657-2.261719 13.09375-3.257812 18.128907-3.675781.230468 10.476562-1.460938 25.890625-10.046876 35.488281-4.511718 5.039063-10.546874 8.375-16.652343 10.582031-.042969.015626-.085938.03125-.128907.046876zm16.78125 49.878906c-9.09375 10.160156-24.304687 13.398437-33.851562 14.421875-.53125-11.234375 1.066406-26.664063 9.433594-36.019531 3.667968-4.101563 8.410156-7.007813 13.394531-9.089844 1.253906-.433594 2.515625-.910156 3.777344-1.417969 6.203125-2.0625 12.472656-2.984375 17.289062-3.382813.234375 10.476563-1.457031 25.890626-10.042969 35.488282zm-24.417968-142.667969c9.085937-10.160156 24.734375-13.082031 34.464844-13.890625.230468 10.476562-1.460938 25.890625-10.046876 35.488281-9.09375 10.160157-24.304687 13.398438-33.851562 14.421875-.53125-11.234375 1.066406-26.664062 9.433594-36.019531zm-73.539063-13.890625c9.726563.808594 25.375 3.730469 34.460938 13.890625 8.367187 9.355469 9.964843 24.785156 9.433593 36.019531-9.535156-1.019531-24.753906-4.257812-33.851562-14.417968-8.582031-9.601563-10.277344-25.015626-10.042969-35.492188zm43.894531 170.980469c-9.535156-1.019531-24.753906-4.257813-33.851562-14.421875-8.582031-9.597656-10.28125-25.011719-10.046875-35.488282 4.8125.398438 11.070313 1.320313 17.265625 3.375 1.28125.515626 2.5625 1 3.835938 1.441407 4.972656 2.078125 9.703124 4.980469 13.363281 9.074219 8.367187 9.355468 9.964843 24.785156 9.433593 36.019531zm0 0"/><path d="m502 436h-206c-5.523438 0-10 4.476562-10 10s4.476562 10 10 10h206c5.523438 0 10-4.476562 10-10s-4.476562-10-10-10zm0 0"/><path d="m10 456h206c5.523438 0 10-4.476562 10-10s-4.476562-10-10-10h-206c-5.523438 0-10 4.476562-10 10s4.476562 10 10 10zm0 0"/><path d="m502 492h-492c-5.523438 0-10 4.476562-10 10s4.476562 10 10 10h492c5.523438 0 10-4.476562 10-10s-4.476562-10-10-10zm0 0"/><path d="m256.050781 55.386719c5.523438 0 10-4.480469 10-10v-35.386719c0-5.523438-4.476562-10-10-10-5.523437 0-10 4.476562-10 10v35.386719c0 5.519531 4.476563 10 10 10zm0 0"/><path d="m74.015625 125.902344c5.523437 0 10-4.480469 10-10v-35.386719c0-5.523437-4.476563-10-10-10s-10 4.476563-10 10v35.386719c0 5.523437 4.476563 10 10 10zm0 0"/><path d="m438.085938 125.902344c5.519531 0 10-4.480469 10-10v-35.386719c0-5.523437-4.480469-10-10-10-5.523438 0-10 4.476563-10 10v35.386719c0 5.523437 4.476562 10 10 10zm0 0"/><path d="m249.109375 438.929688c-1.867187 1.859374-2.929687 4.441406-2.929687 7.070312s1.0625 5.210938 2.929687 7.070312c1.863281 1.859376 4.441406 2.929688 7.070313 2.929688 2.632812 0 5.210937-1.070312 7.070312-2.929688 1.859375-1.859374 2.929688-4.441406 2.929688-7.070312s-1.070313-5.210938-2.929688-7.070312c-1.859375-1.859376-4.4375-2.929688-7.070312-2.929688-2.640626 0-5.207032 1.070312-7.070313 2.929688zm0 0"/></svg>