<svg height="512pt" viewBox="0 -93 512.00045 512" width="512pt" xmlns="http://www.w3.org/2000/svg"><path d="m163.574219 233.480469h41.988281l-10.019531 57.054687 14.996093 24.929688h-41.992187l-14.996094-24.929688zm0 0" fill="#f6838d"/><path d="m159.183594 10h96.644531c45.640625 0 90.777344 9.515625 132.53125 27.941406 12.363281-12.617187 30.996094-16.757812 47.535156-10.574218l.953125.359374-12.605468 33.609376.890624.511718c30.363282 17.476563 52.066407 41.144532 59.875 75.300782l16.996094 9.832031v37.179687c-42.664062 26.621094-91.652344 41.402344-141.925781 42.8125l-2.058594.058594v63.503906l14.996094 24.929688h-53.464844l-22.683593-81.984375h-133.292969l-10.023438 57.054687 14.996094 24.929688h-57.472656s-13.199219-104.8125-34.800781-130.859375l-5.886719-7.886719c-11.546875-17.066406-18.289063-37.640625-18.289063-59.789062 0-59.054688 47.941406-106.929688 107.085938-106.929688zm0 0" fill="#f8a2aa"/><path d="m358.019531 290.535156v-63.503906l2.058594-.058594c13.464844-.378906 26.835937-1.726562 40.019531-3.992187v67.554687l14.992188 24.929688h-42.078125zm0 0" fill="#f6838d"/><path d="m507.007812 138.324219-13.445312-7.777344c-8.972656-30.667969-29.511719-57.246094-56.984375-73.632813l9.632813-25.679687c.933593-2.480469.835937-5.234375-.261719-7.648437-1.097657-2.417969-3.113281-4.296876-5.597657-5.226563l-.953124-.355469c-18.003907-6.734375-38.082032-3.449218-52.9375 8.238282-41.550782-17.417969-85.464844-26.242188-130.632813-26.242188h-56.652344c-5.523437 0-10 4.476562-10 10 0 5.519531 4.476563 9.996094 10 9.996094h56.652344c44.527344 0 87.761719 9.113281 128.496094 27.089844 3.8125 1.683593 8.265625.828124 11.179687-2.148438 7.425782-7.578125 17.789063-11.21875 28.054688-10.242188l-8.675782 23.128907c-1.71875 4.582031.132813 9.734375 4.371094 12.175781l5.679688 3.269531c24.902344 14.335938 43.269531 38.519531 50.386718 66.359375.667969 2.601563 2.355469 4.828125 4.683594 6.175782l12.003906 6.945312v25.800781c-37.652343 22.449219-80.246093 35.515625-123.992187 38.070313v-12.945313c0-5.523437-4.476563-10-9.996094-10s-10 4.476563-10 10v86.863281c0 1.816407.496094 3.597657 1.433594 5.152344l5.878906 9.777344h-28.132812l-24.835938-91.601562c-1.445312-5.328126-6.9375-8.476563-12.265625-7.03125-5.332031 1.445312-8.480468 6.9375-7.035156 12.265624l1.1875 4.382813h-109.996094l2.410156-13.203125c.992188-5.429688-2.605468-10.636719-8.039062-11.628906-5.429688-.988282-10.640625 2.605468-11.632812 8.039062l-14.976563 82.050782c-.433594 2.394531.015625 4.863281 1.269531 6.949218l5.882813 9.773438h-29.351563c-3.832031-27.128906-16.039062-102.992188-35.675781-127.03125l-5.601563-7.507813c-10.757812-15.980469-16.445312-34.648437-16.445312-53.996093 0-39.777344 23.875-75.085938 60.824219-89.949219 5.125-2.0625 7.605469-7.886719 5.542969-13.007813-2.058594-5.125-7.882813-7.605468-13.007813-5.542968-21.410156 8.613281-39.667969 23.238281-52.792969 42.296874-4.183594 6.070313-7.75 12.464844-10.683594 19.113282-4.570312 3.042968-9.910156 4.441406-15.527343 4-4.761719-.371094-9.085938-2.574219-12.179688-6.199219-3.097656-3.625-4.59375-8.242187-4.214843-13 .539062-6.773437 6.496093-11.851563 13.257812-11.320313 4.5625.355469 7.121094 3.132813 7.023438 7.613282-.121094 5.519531 4.253906 10.09375 9.773437 10.214844 5.546875.082031 10.097656-4.257813 10.21875-9.777344.328125-15.035156-10.375-26.804688-25.457031-27.984375-17.765625-1.382813-33.335938 11.921875-34.75 29.664062-.800782 10.089844 2.371094 19.882813 8.9375 27.574219s15.738281 12.359375 25.828125 13.152344c1.175781.089844 2.34375.136718 3.515625.136718 2.035156 0 4.058594-.148437 6.0625-.421874-1.558594 7.652343-2.367188 15.492187-2.367188 23.4375 0 23.433593 6.917969 46.042968 20.003906 65.386718.085938.128906.175782.253906.269532.378906l5.886718 7.886719c.101563.140625.207032.273438.316407.402344 16.183593 19.515625 29.003906 97.375 32.578125 125.730469.628906 4.996094 4.882812 8.746094 9.917968 8.746094h99.464844c3.601563 0 6.929688-1.9375 8.703125-5.078126 1.773438-3.136718 1.722657-6.984374-.136719-10.070312l-13.066406-21.726562 7.921875-45.105469h75.714844l20.226563 74.601562c1.183593 4.355469 5.136718 7.378907 9.652343 7.378907h95.539063c3.605468 0 6.929687-1.9375 8.703125-5.074219 1.773437-3.136719 1.722656-6.988281-.136719-10.074219l-13.5625-22.550781v-56.484375c34.328125-6.933594 67.300781-19.976563 97.203125-38.636719 2.925781-1.828125 4.703125-5.03125 4.703125-8.480469v-37.179687c0-3.570313-1.902344-6.867188-4.992188-8.65625zm-320.035156 157.367187 5.882813 9.773438h-20.351563l-10.136718-16.847656 8.238281-45.136719h23.050781l-7.960938 45.328125c-.417968 2.371094.035157 4.816406 1.277344 6.882812zm204.554688 0 5.882812 9.773438h-18.742187l-10.652344-17.703125v-51.121094c7.394531-.402344 14.761719-1.078125 22.082031-2.035156v55.929687c0 1.816406.496094 3.597656 1.429688 5.15625zm0 0"/><path d="m442.421875 132.578125c1.859375-1.871094 2.929687-4.441406 2.929687-7.070313 0-2.640624-1.070312-5.21875-2.929687-7.078124-1.859375-1.859376-4.4375-2.917969-7.070313-2.917969-2.636718 0-5.207031 1.058593-7.066406 2.917969-1.871094 1.859374-2.929687 4.4375-2.929687 7.078124 0 2.628907 1.058593 5.199219 2.929687 7.070313 1.859375 1.859375 4.4375 2.917969 7.066406 2.917969 2.632813 0 5.210938-1.058594 7.070313-2.917969zm0 0"/><path d="m159.179688 20c2.628906 0 5.210937-1.070312 7.070312-2.929688 1.855469-1.871093 2.929688-4.4375 2.929688-7.066406 0-2.640625-1.070313-5.210937-2.929688-7.078125-1.859375-1.859375-4.433594-2.92187475-7.070312-2.92187475-2.628907 0-5.207032 1.06249975-7.070313 2.92187475-1.855469 1.867188-2.925781 4.4375-2.925781 7.078125 0 2.628906 1.066406 5.195313 2.925781 7.066406 1.863281 1.859376 4.441406 2.929688 7.070313 2.929688zm0 0"/></svg>