<svg height="512pt" viewBox="-30 0 512 512" width="512pt" xmlns="http://www.w3.org/2000/svg"><path d="m368.046875 156.496094h-36.082031c-7.433594 0-13.460938-6.027344-13.460938-13.460938v-11c0-7.433594 6.027344-13.460937 13.460938-13.460937h36.082031c7.433594 0 13.460937 6.027343 13.460937 13.460937v11c0 7.433594-6.027343 13.460938-13.460937 13.460938zm0 0" fill="#cff1fb"/><path d="m374.503906 118.574219h-49l9-49h31zm0 0" fill="#cff1fb"/><path d="m330.003906 156.496094h40v165.5h-40zm0 0" fill="#b0e7f8"/><path d="m330.011719 208.859375c-33-40.789063-83.457031-66.863281-140.007813-66.863281-99.414062 0-180.003906 80.589844-180.003906 180 0 99.414062 80.589844 180.003906 180.003906 180.003906 99.410156 0 180-80.589844 180-180.003906" fill="#b0e7f8"/><path d="m330.003906 321.996094c0 77.320312-62.679687 140.003906-140 140.003906-77.320312 0-140.003906-62.683594-140.003906-140.003906 0-77.320313 62.683594-140 140.003906-140 77.320313 0 140 62.679687 140 140zm0 0" fill="#cff1fb"/><path d="m290.003906 321.996094c0 55.230468-44.773437 100.003906-100 100.003906-55.230468 0-100.003906-44.773438-100.003906-100.003906 0-55.226563 44.773438-100 100.003906-100 55.226563 0 100 44.773437 100 100zm0 0" fill="#b0e7f8"/><path d="m250.003906 321.996094c0 33.136718-26.863281 60-60 60-33.136718 0-60-26.863282-60-60 0-33.136719 26.863282-60 60-60 33.136719 0 60 26.863281 60 60zm0 0" fill="#cff1fb"/><path d="m210.003906 321.996094c0 11.046875-8.953125 20-20 20s-20-8.953125-20-20 8.953125-20 20-20 20 8.953125 20 20zm0 0" fill="#b0e7f8"/><path d="m190.003906 211.996094c-60.65625 0-110.003906 49.347656-110.003906 110 0 60.65625 49.347656 110.003906 110.003906 110.003906 60.652344 0 110-49.347656 110-110.003906 0-60.652344-49.347656-110-110-110zm0 200.003906c-49.628906 0-90.003906-40.375-90.003906-90.003906 0-49.625 40.375-90 90.003906-90 49.625 0 90 40.375 90 90 0 49.628906-40.375 90.003906-90 90.003906zm0 0"/><path d="m190.003906 251.996094c-38.597656 0-70.003906 31.402344-70.003906 70s31.40625 70.003906 70.003906 70.003906 70-31.40625 70-70.003906-31.402344-70-70-70zm0 120c-27.570312 0-50-22.429688-50-50 0-27.570313 22.429688-50 50-50 27.570313 0 50 22.429687 50 50 0 27.570312-22.429687 50-50 50zm0 0"/><path d="m190.003906 291.996094c-16.542968 0-30 13.457031-30 30 0 16.542968 13.457032 30 30 30 16.542969 0 30-13.457032 30-30 0-16.542969-13.457031-30-30-30zm0 40c-5.515625 0-10-4.484375-10-10 0-5.511719 4.484375-10 10-10 5.511719 0 10 4.488281 10 10 0 5.515625-4.488281 10-10 10zm0 0"/><path d="m383.988281 114.84375-8.644531-47.078125c-.875-4.746094-5.011719-8.195313-9.839844-8.195313h-31c-4.824218 0-8.960937 3.449219-9.835937 8.195313l-8.644531 47.078125c-4.621094 4.289062-7.519532 10.40625-7.519532 17.191406v11c0 8.566406 4.621094 16.078125 11.5 20.171875v20.207031c-35.023437-32.9375-81.15625-51.421874-130-51.421874-104.769531 0-190.003906 85.234374-190.003906 190.003906 0 104.769531 85.234375 190.003906 190.003906 190.003906 104.769532 0 190.003906-85.234375 190.003906-190.003906v-42.75c0-5.523438-4.480468-10-10.003906-10-5.519531 0-10 4.476562-10 10v42.75c0 93.742187-76.261718 170.003906-170 170.003906-93.742187 0-170.003906-76.261719-170.003906-170.003906 0-93.738282 76.261719-170 170.003906-170 50.398438 0 97.574219 22 130 60.46875v34.761718c-25.941406-44.929687-74.5-75.230468-130-75.230468-82.710937 0-150.003906 67.289062-150.003906 150 0 82.710937 67.292969 150.003906 150.003906 150.003906 82.710938 0 150-67.292969 150-150.003906v-112.914063c.003906-.109375.003906-.222656 0-.332031v-42.253906h20v32.75c0 5.519531 4.480469 10 10 10 5.523438 0 10.003906-4.480469 10.003906-10v-36.039063c6.878907-4.09375 11.5-11.605469 11.5-20.171875v-11c0-6.785156-2.898437-12.902344-7.519531-17.191406zm-193.984375 337.15625c-71.683594 0-130.003906-58.320312-130.003906-130.003906s58.320312-130 130.003906-130 130 58.316406 130 130-58.316406 130.003906-130 130.003906zm141.960938-305.503906c-1.90625 0-3.460938-1.554688-3.460938-3.460938v-11c0-1.910156 1.554688-3.460937 3.460938-3.460937h36.082031c1.90625 0 3.457031 1.550781 3.457031 3.460937v11c0 1.90625-1.550781 3.460938-3.457031 3.460938zm10.871094-66.925782h14.339843l5.324219 29.003907h-24.992188zm0 0"/><path d="m366.273438 38.191406c1.539062.851563 3.203124 1.257813 4.847656 1.257813 3.515625 0 6.921875-1.859375 8.75-5.148438.113281-.203125.230468-.40625.351562-.605469 2.824219-4.746093 1.265625-10.886718-3.480468-13.710937-4.746094-2.824219-10.882813-1.265625-13.707032 3.480469-.222656.375-.4375.75-.648437 1.128906-2.683594 4.828125-.941407 10.914062 3.886719 13.597656zm0 0"/><path d="m406.394531.0429688c-.410156-.0195313-.820312-.03125-1.234375-.03906255-.070312-.00390625-.140625-.00390625-.210937-.00390625-5.425781 0-9.882813 4.34375-9.992188 9.796875-.113281 5.519531 4.269531 10.089844 9.792969 10.203125.253906.003906.507812.011719.761719.023438.152343.007812.300781.007812.449219.007812 5.320312 0 9.746093-4.191406 9.984374-9.558594.242188-5.519531-4.035156-10.1875-9.550781-10.4296872zm0 0"/><path d="m442.007812 102.144531c-5.523437 0-10 4.480469-10 10v.851563c0 5.519531 4.476563 10 10 10 5.519532 0 10-4.480469 10-10v-.851563c0-5.523437-4.476562-10-10-10zm0 0"/><path d="m442.007812 61.144531c-5.523437 0-10 4.476563-10 10v1c0 5.523438 4.476563 10 10 10 5.519532 0 10-4.476562 10-10v-1c0-5.523437-4.476562-10-10-10zm0 0"/><path d="m442.691406 40.71875c4.988282-2.367188 7.117188-8.332031 4.75-13.320312-.175781-.371094-.355468-.742188-.539062-1.109376-2.480469-4.933593-8.496094-6.917968-13.429688-4.4375-4.933594 2.484376-6.917968 8.496094-4.4375 13.429688.113282.226562.226563.453125.335938.683594 1.707031 3.609375 5.296875 5.71875 9.042968 5.71875 1.433594 0 2.894532-.3125 4.277344-.964844zm0 0"/><path d="m294.050781 20.03125c.148438 0 .296875 0 .445313-.007812.253906-.011719.507812-.019532.765625-.023438 5.519531-.113281 9.90625-4.683594 9.792969-10.203125-.109376-5.453125-4.566407-9.796875-9.992188-9.796875-.070312 0-.140625 0-.210938.00390625-.410156.00781255-.824218.01953125-1.234374.03906255-5.519532.2421872-9.792969 4.9101562-9.550782 10.4296872.238282 5.367188 4.664063 9.558594 9.984375 9.558594zm0 0"/><path d="m320.140625 34.300781c1.828125 3.292969 5.234375 5.148438 8.75 5.148438 1.644531 0 3.308594-.40625 4.847656-1.257813 4.828125-2.683594 6.570313-8.769531 3.890625-13.597656-.210937-.382812-.429687-.757812-.652344-1.132812-2.820312-4.742188-8.957031-6.300782-13.707031-3.476563-4.746093 2.824219-6.300781 8.960937-3.476562 13.707031.117187.203125.234375.40625.347656.609375zm0 0"/><path d="m258.003906 82.144531c5.523438 0 10-4.476562 10-10v-1c0-5.523437-4.476562-10-10-10-5.523437 0-10 4.476563-10 10v1c0 5.523438 4.476563 10 10 10zm0 0"/><path d="m257.320312 40.71875c1.382813.65625 2.839844.964844 4.277344.964844 3.742188 0 7.332032-2.109375 9.042969-5.71875.109375-.230469.21875-.457032.332031-.683594 2.484375-4.933594.496094-10.945312-4.433594-13.429688-4.933593-2.480468-10.945312-.496093-13.429687 4.4375-.1875.367188-.367187.738282-.542969 1.109376-2.363281 4.988281-.238281 10.953124 4.753906 13.320312zm0 0"/><path d="m258.003906 122.992188c5.523438 0 10-4.476563 10-10v-.847657c0-5.523437-4.476562-10-10-10-5.523437 0-10 4.476563-10 10v.847657c0 5.523437 4.476563 10 10 10zm0 0"/><path d="m370.003906 229.246094c-2.628906 0-5.207031 1.070312-7.066406 2.929687-1.863281 1.859375-2.933594 4.441407-2.933594 7.070313s1.070313 5.210937 2.933594 7.070312c1.859375 1.859375 4.4375 2.929688 7.066406 2.929688 2.632813 0 5.210938-1.070313 7.070313-2.929688s2.933593-4.441406 2.933593-7.070312-1.070312-5.210938-2.933593-7.070313c-1.859375-1.859375-4.4375-2.929687-7.070313-2.929687zm0 0"/></svg>