<svg height="512pt" viewBox="-28 0 512 512" width="512pt" xmlns="http://www.w3.org/2000/svg"><path d="m405.75 175.71875c9.058594-16.101562 14.234375-34.679688 14.234375-54.46875 0-61.441406-49.808594-111.25-111.25-111.25-31.796875 0-60.476563 13.34375-80.75 34.730469-20.273437-21.386719-48.953125-34.730469-80.75-34.730469-61.445313 0-111.25 49.808594-111.25 111.25 0 19.789062 5.171875 38.367188 14.230469 54.46875-24.148438 15.144531-40.214844 41.984375-40.214844 72.59375 0 47.300781 38.347656 85.648438 85.648438 85.648438 19.632812 0 37.714843-6.621094 52.160156-17.734376 19.273437 22.730469 48.035156 37.164063 80.171875 37.164063s60.902343-14.433594 80.175781-37.164063c14.445312 11.113282 32.523438 17.734376 52.160156 17.734376 47.300782 0 85.648438-38.347657 85.648438-85.648438 0-30.609375-16.066406-57.449219-40.214844-72.59375zm0 0" fill="#cbe558"/><path d="m291.984375 502-36-36v-209.871094l43.179687-31.972656c9.253907-6.847656 9.410157-20.640625.3125-27.699219l-.324218-.25c-5.765625-4.476562-13.582032-4.921875-19.742188-1.1875-11.820312 7.171875-29.679687 18-29.679687 18v-66.058593c0-11.253907-9.121094-20.375-20.375-20.375-11.25 0-20.375 9.121093-20.375 20.375v69.199218l-36.949219-20.539062c-11.234375-6.25-25.046875 1.875-25.046875 14.734375 0 6.089843 3.285156 11.710937 8.597656 14.695312l44.402344 24.949219v216l-36 36" fill="#c68a65"/><g fill="#ff6977"><path d="m379.984375 256c0 13.253906-10.746094 24-24 24-13.257813 0-24-10.746094-24-24s10.742187-24 24-24c13.253906 0 24 10.746094 24 24zm0 0"/><path d="m351.609375 122.332031c0 13.253907-10.746094 24-24 24s-24-10.746093-24-24c0-13.253906 10.746094-24 24-24s24 10.746094 24 24zm0 0"/><path d="m108.199219 243c0 13.253906-10.746094 24-24 24-13.253907 0-24-10.746094-24-24s10.746093-24 24-24c13.253906 0 24 10.746094 24 24zm0 0"/><path d="m163.648438 119.683594c0 13.257812-10.742188 24-24 24-13.253907 0-24-10.742188-24-24 0-13.253906 10.746093-24 24-24 13.257812 0 24 10.746094 24 24zm0 0"/></g><path d="m418.632812 172.503906c7.445313-15.96875 11.351563-33.515625 11.351563-51.253906 0-66.855469-54.394531-121.25-121.25-121.25-30.21875 0-58.53125 10.863281-80.75 30.789062-22.222656-19.925781-50.535156-30.789062-80.75-30.789062-17.167969 0-33.765625 3.519531-49.328125 10.457031-5.046875 2.25-7.3125 8.160157-5.0625 13.207031 2.25 5.042969 8.164062 7.308594 13.207031 5.058594 12.980469-5.789062 26.839844-8.722656 41.183594-8.722656 28.070313 0 54.167969 11.226562 73.492187 31.609375 1.886719 1.992187 4.511719 3.121094 7.257813 3.121094 2.742187 0 5.367187-1.128907 7.253906-3.121094 19.324219-20.382813 45.425781-31.609375 73.496094-31.609375 55.828125 0 101.25 45.421875 101.25 101.25 0 17.371094-4.476563 34.511719-12.949219 49.566406-2.617187 4.648438-1.121094 10.539063 3.402344 13.375 22.246094 13.953125 35.527344 37.921875 35.527344 64.121094 0 41.710938-33.9375 75.648438-75.648438 75.648438-16.8125 0-32.742187-5.414063-46.0625-15.660157-4.230468-3.253906-10.273437-2.613281-13.726562 1.457031-9.511719 11.222657-21.292969 19.960938-34.546875 25.730469v-74.324219l39.132812-28.96875c6.949219-5.144531 10.992188-13.054687 11.089844-21.699218.097656-8.640625-3.765625-16.640625-10.597656-21.941406l-.320313-.25c-9.085937-7.046876-21.277344-7.769532-31.058594-1.835938l-14.496093 8.792969v-48.300781c0-16.75-13.625-30.375-30.375-30.375-16.746094 0-30.371094 13.625-30.371094 30.371093v52.199219l-22.09375-12.277344c-8.40625-4.675781-18.375-4.554687-26.667969.324219-8.289062 4.878906-13.238281 13.53125-13.238281 23.152344 0 9.691406 5.25 18.664062 13.699219 23.414062l39.300781 22.082031v79.636719c-13.253906-5.769531-25.035156-14.507812-34.546875-25.726562-3.453125-4.074219-9.492188-4.714844-13.726562-1.460938-13.320313 10.246094-29.246094 15.660157-46.0625 15.660157-41.710938 0-75.648438-33.933594-75.648438-75.648438 0-26.199219 13.28125-50.167969 35.527344-64.121094 4.523437-2.835937 6.019531-8.722656 3.402344-13.375-8.46875-15.054687-12.945313-32.195312-12.945313-49.566406 0-14.265625 2.902344-28.050781 8.628906-40.972656 2.238281-5.050782-.042969-10.957032-5.089843-13.195313-5.050782-2.234375-10.957032.042969-13.195313 5.089844-6.863281 15.492187-10.34375 32.003906-10.34375 49.078125 0 17.738281 3.902344 35.28125 11.347656 51.253906-23.53125 18.054688-37.332031 45.773438-37.332031 75.808594 0 52.742188 42.90625 95.648438 95.648438 95.648438 18.171874 0 35.523437-5 50.699218-14.542969 12.316406 12.421875 27.171875 21.800781 43.632813 27.546875v104.890625l-33.070313 33.074219c-3.902344 3.902343-3.902344 10.234374 0 14.140624 3.90625 3.90625 10.238282 3.90625 14.144532 0l36-36c1.875-1.875 2.925781-4.417968 2.925781-7.070312v-216c0-3.613281-1.949219-6.945312-5.097657-8.71875l-44.402343-24.949219c-2.15625-1.210937-3.5-3.503906-3.5-5.976562 0-3.542969 2.367187-5.316407 3.382812-5.914063s3.714844-1.800781 6.808594-.082031l36.953125 20.539063c3.097656 1.722656 6.871094 1.675781 9.929688-.121094 3.050781-1.796875 4.929687-5.078125 4.929687-8.621094v-69.199219c0-5.71875 4.652344-10.375 10.375-10.375 5.71875 0 10.375 4.65625 10.375 10.375v66.0625c0 3.613281 1.945313 6.941407 5.089844 8.714844 3.148437 1.769531 7.003906 1.707031 10.09375-.164063l29.683593-18.003906c2.632813-1.597656 5.941407-1.386718 8.425782.542969l.320312.246094c1.839844 1.429687 2.882813 3.585937 2.855469 5.917969-.027344 2.328124-1.113281 4.460937-2.988281 5.847656l-43.183594 31.96875c-2.546875 1.886718-4.046875 4.867187-4.046875 8.039062v209.871094c0 2.652344 1.050781 5.195312 2.925781 7.070312l36 36c1.953125 1.953126 4.515625 2.929688 7.074219 2.929688s5.117187-.976562 7.070313-2.929688c3.90625-3.90625 3.90625-10.234374 0-14.140624l-33.070313-33.070313v-104.894531c16.460937-5.746094 31.316406-15.121094 43.632813-27.546875 15.175781 9.542969 32.527343 14.542969 50.699218 14.542969 52.742188 0 95.648438-42.90625 95.648438-95.648438 0-30.035156-13.800782-57.753906-37.332032-75.808594zm0 0"/><path d="m373.070312 193.242188c-3.902343-3.902344-10.234374-3.902344-14.140624 0-8.113282 8.113281-12.667969 18.824218-12.921876 30.253906-13.894531 4.273437-24.023437 17.226562-24.023437 32.503906 0 18.746094 15.25 34 34 34 18.746094 0 34-15.253906 34-34 0-15.261719-10.105469-28.203125-23.976563-32.488281.242188-6.09375 2.726563-11.789063 7.0625-16.125 3.90625-3.90625 3.90625-10.238281 0-14.144531zm-17.085937 76.757812c-7.722656 0-14-6.28125-14-14s6.277344-14 14-14c7.71875 0 14 6.28125 14 14s-6.28125 14-14 14zm0 0"/><path d="m344.0625 59.578125c-3.90625-3.90625-10.238281-3.90625-14.140625 0-8.164063 8.160156-12.726563 18.953125-12.929687 30.460937-13.5625 4.472657-23.382813 17.253907-23.382813 32.296876 0 18.746093 15.25 34 34 34 18.746094 0 34-15.253907 34-34 0-15.492188-10.414063-28.585938-24.605469-32.671876.28125-6.023437 2.765625-11.648437 7.058594-15.941406 3.90625-3.90625 3.90625-10.238281 0-14.144531zm-2.453125 62.753906c0 7.722657-6.28125 14-14 14s-14-6.277343-14-14c0-7.71875 6.28125-14 14-14s14 6.28125 14 14zm0 0"/><path d="m156.101562 56.929688c-3.902343-3.90625-10.234374-3.90625-14.140624 0-8.160157 8.160156-12.726563 18.953124-12.929688 30.460937-13.5625 4.472656-23.382812 17.253906-23.382812 32.296875 0 18.746094 15.253906 34 34 34 18.75 0 34-15.253906 34-34 0-15.492188-10.414063-28.585938-24.605469-32.671875.285156-6.023437 2.765625-11.648437 7.058593-15.941406 3.90625-3.90625 3.90625-10.238281 0-14.144531zm-2.453124 62.753906c0 7.722656-6.277344 14-14 14-7.71875 0-14-6.277344-14-14 0-7.71875 6.28125-14 14-14 7.722656 0 14 6.28125 14 14zm0 0"/><path d="m101.289062 180.382812c-3.90625-3.902343-10.238281-3.902343-14.144531 0-8.078125 8.078126-12.628906 18.734376-12.917969 30.113282-13.894531 4.269531-24.027343 17.226562-24.027343 32.503906 0 18.746094 15.25 34 34 34 18.746093 0 34-15.253906 34-34 0-15.257812-10.105469-28.199219-23.972657-32.488281.277344-6.039063 2.757813-11.679688 7.0625-15.984375 3.902344-3.90625 3.902344-10.238282 0-14.144532zm-17.089843 76.617188c-7.71875 0-14-6.28125-14-14 0-7.3125 5.640625-13.328125 12.796875-13.9375.394531.046875.792968.078125 1.203125.078125.40625 0 .804687-.03125 1.199219-.078125 7.160156.609375 12.800781 6.625 12.800781 13.9375 0 7.71875-6.28125 14-14 14zm0 0"/><path d="m68.484375 52.671875c2.628906 0 5.207031-1.070313 7.070313-2.933594 1.867187-1.859375 2.929687-4.4375 2.929687-7.066406 0-2.632813-1.070313-5.210937-2.929687-7.070313-1.863282-1.863281-4.441407-2.929687-7.070313-2.929687-2.632813 0-5.210937 1.066406-7.070313 2.929687-1.859374 1.859376-2.929687 4.4375-2.929687 7.070313 0 2.628906 1.070313 5.207031 2.929687 7.066406 1.859376 1.863281 4.4375 2.933594 7.070313 2.933594zm0 0"/></svg>