<svg height="512pt" viewBox="0 -54 512 512" width="512pt" xmlns="http://www.w3.org/2000/svg"><path d="m10 201.738281h324v80h-324zm0 0" fill="#ffd89e"/><path d="m304 201.40625c0-38.660156-31.339844-70-70-70s-70 31.339844-70 70zm0 0" fill="#ffcb7c"/><path d="m270.570312 201.40625c0-20.195312-16.375-36.566406-36.570312-36.566406s-36.570312 16.371094-36.570312 36.566406zm0 0" fill="#ffd89e"/><path d="m164 201.40625c0-38.660156-31.339844-70-70-70s-70 31.339844-70 70zm0 0" fill="#ffcb7c"/><path d="m130.570312 201.40625c0-20.195312-16.375-36.566406-36.570312-36.566406s-36.570312 16.371094-36.570312 36.566406zm0 0" fill="#ffd89e"/><path d="m234 80c0 38.660156-31.339844 70-70 70s-70-31.339844-70-70 31.339844-70 70-70 70 31.339844 70 70zm0 0" fill="#ffcb7c"/><path d="m200.570312 80c0 20.195312-16.375 36.570312-36.570312 36.570312s-36.570312-16.375-36.570312-36.570312 16.375-36.570312 36.570312-36.570312 36.570312 16.375 36.570312 36.570312zm0 0" fill="#ffd89e"/><path d="m10 281.738281h324v56h-324zm0 0" fill="#98a1b3"/><path d="m334 337.738281h168v-124.273437l-96.273438-96.511719h-71.726562zm0 0" fill="#79b2ff"/><path d="m389.339844 116.953125v127.410156h112.660156v-30.898437l-96.273438-96.511719zm0 0" fill="#ddf3e9"/><g fill="#b5bcc9"><path d="m466 353.738281c0 22.09375-17.910156 40-40 40s-40-17.90625-40-40c0-22.089843 17.910156-40 40-40s40 17.910157 40 40zm0 0"/><path d="m221.917969 353.738281c0 22.09375-17.910157 40-40 40-22.09375 0-40-17.90625-40-40 0-22.089843 17.90625-40 40-40 22.089843 0 40 17.910157 40 40zm0 0"/><path d="m141.917969 353.738281c0 22.09375-17.910157 40-40 40-22.09375 0-40-17.90625-40-40 0-22.089843 17.90625-40 40-40 22.089843 0 40 17.910157 40 40zm0 0"/></g><path d="m164 126.566406c25.679688 0 46.570312-20.890625 46.570312-46.566406 0-25.679688-20.890624-46.570312-46.570312-46.570312s-46.570312 20.890624-46.570312 46.570312 20.890624 46.566406 46.570312 46.566406zm0-73.136718c14.648438 0 26.570312 11.921874 26.570312 26.570312s-11.921874 26.566406-26.570312 26.566406-26.570312-11.917968-26.570312-26.566406c0-14.652344 11.921874-26.570312 26.570312-26.570312zm0 0"/><path d="m164 90c2.628906 0 5.210938-1.070312 7.070312-2.929688 1.859376-1.859374 2.929688-4.441406 2.929688-7.070312s-1.070312-5.210938-2.929688-7.070312c-1.859374-1.859376-4.441406-2.929688-7.070312-2.929688s-5.210938 1.070312-7.070312 2.929688c-1.859376 1.859374-2.929688 4.441406-2.929688 7.070312 0 2.640625 1.070312 5.210938 2.929688 7.070312 1.859374 1.859376 4.441406 2.929688 7.070312 2.929688zm0 0"/><path d="m509.078125 206.402344-96.273437-96.511719c-1.875-1.878906-4.421876-2.9375-7.078126-2.9375h-71.726562c-5.523438 0-10 4.480469-10 10v74.785156h-10.605469c-4.789062-39.566406-38.554687-70.332031-79.394531-70.332031-.535156 0-1.0625.03125-1.597656.039062 7.359375-12.09375 11.597656-26.285156 11.597656-41.445312 0-44.113281-35.886719-80-80-80s-80 35.886719-80 80c0 15.160156 4.238281 29.351562 11.597656 41.449219-.535156-.011719-1.0625-.042969-1.597656-.042969-40.839844 0-74.605469 30.765625-79.394531 70.332031h-4.605469c-5.523438 0-10 4.480469-10 10v136c0 5.523438 4.476562 10 10 10h42.289062c-.234374 1.972657-.371093 3.96875-.371093 6 0 11.25 3.734375 21.640625 10.027343 30h-51.945312c-5.523438 0-10 4.480469-10 10 0 5.523438 4.476562 10 10 10h171.917969c27.570312 0 50-22.429687 50-50 0-2.03125-.136719-4.027343-.375-6h144.828125c-.234375 1.972657-.371094 3.96875-.371094 6 0 11.25 3.734375 21.640625 10.027344 30h-74.527344c-5.523438 0-10 4.480469-10 10 0 5.523438 4.476562 10 10 10h114.5c27.570312 0 50-22.429687 50-50 0-2.03125-.136719-4.027343-.371094-6h26.371094c5.523438 0 10-4.476562 10-10v-124.269531c0-2.648438-1.050781-5.191406-2.921875-7.066406zm-17.078125 11.199218v16.761719h-92.660156v-107.410156h2.234375zm-168 14.136719h-112c-5.523438 0-10 4.480469-10 10 0 5.523438 4.476562 10 10 10h112v20h-304v-20h112c5.523438 0 10-4.476562 10-10 0-5.519531-4.476562-10-10-10h-112v-20h304zm-254.742188-40c3.875-9.882812 13.5-16.898437 24.742188-16.898437s20.867188 7.019531 24.742188 16.898437zm140 0c3.875-9.882812 13.5-16.898437 24.742188-16.898437s20.867188 7.019531 24.742188 16.898437zm83.953126 0h-13.65625c-4.464844-21.050781-23.191407-36.898437-45.554688-36.898437-22.367188 0-41.089844 15.847656-45.554688 36.898437h-13.65625c4.640626-28.5 29.417969-50.332031 59.210938-50.332031s54.570312 21.832031 59.210938 50.332031zm-129.210938-29.007812c-.519531-.929688-1.042969-1.859375-1.597656-2.769531.535156.007812 1.0625.039062 1.597656.039062s1.0625-.027344 1.597656-.039062c-.554687.910156-1.078125 1.835937-1.597656 2.769531zm0-142.730469c33.085938 0 60 26.914062 60 60s-26.914062 60-60 60-60-26.914062-60-60 26.914062-60 60-60zm-70 121.40625c29.792969 0 54.570312 21.832031 59.210938 50.332031h-13.65625c-4.464844-21.050781-23.191407-36.898437-45.554688-36.898437-22.367188 0-41.089844 15.847656-45.554688 36.898437h-13.65625c4.640626-28.5 29.417969-50.332031 59.210938-50.332031zm-22.082031 212.332031c0-16.539062 13.457031-30 30-30s30 13.460938 30 30c0 16.542969-13.457031 30-30 30s-30-13.457031-30-30zm70 29.964844c.007812.015625.019531.023437.027343.035156h-.054687c.007813-.011719.015625-.019531.027344-.035156zm40 .035156c-16.542969 0-30-13.457031-30-30 0-16.539062 13.457031-30 30-30s30 13.460938 30 30c0 16.542969-13.457031 30-30 30zm133.082031-56h-90.390625c-8.792969-14.378906-24.640625-24-42.691406-24-16.339844 0-30.871094 7.878907-40 20.035157-9.132813-12.15625-23.660157-20.035157-40-20.035157-18.054688 0-33.902344 9.621094-42.691407 24h-39.226562v-36h304v36zm111 56c-16.542969 0-30-13.457031-30-30 0-16.539062 13.457031-30 30-30 10.195312 0 19.214844 5.117188 24.636719 12.914063-.039063.359375-.0625.71875-.0625 1.085937 0 3.457031 1.753906 6.503907 4.417969 8.296875.65625 2.460938 1.007812 5.042969 1.007812 7.703125 0 16.542969-13.457031 30-30 30zm42.691406-56c-8.792968-14.378906-24.636718-24-42.691406-24s-33.902344 9.621094-42.691406 24h-39.308594v-200.785156h35.339844v117.410156c0 5.519531 4.476562 10 10 10h102.660156v73.375zm0 0"/><path d="m426 343.738281c-2.628906 0-5.210938 1.070313-7.070312 2.933594-1.859376 1.859375-2.929688 4.4375-2.929688 7.066406 0 2.632813 1.070312 5.210938 2.929688 7.070313 1.859374 1.859375 4.441406 2.929687 7.070312 2.929687s5.210938-1.066406 7.070312-2.929687c1.859376-1.859375 2.929688-4.4375 2.929688-7.070313 0-2.628906-1.070312-5.207031-2.929688-7.066406-1.859374-1.863281-4.441406-2.933594-7.070312-2.933594zm0 0"/><path d="m181.921875 343.738281c-2.644531 0-5.210937 1.070313-7.082031 2.933594-1.859375 1.859375-2.917969 4.4375-2.917969 7.066406 0 2.632813 1.058594 5.210938 2.917969 7.070313 1.871094 1.859375 4.449218 2.929687 7.082031 2.929687 2.628906 0 5.199219-1.066406 7.066406-2.929687 1.859375-1.859375 2.933594-4.4375 2.933594-7.070313 0-2.628906-1.070313-5.207031-2.933594-7.066406-1.859375-1.863281-4.4375-2.933594-7.066406-2.933594zm0 0"/><path d="m101.921875 343.738281c-2.644531 0-5.210937 1.070313-7.070313 2.933594-1.871093 1.859375-2.929687 4.4375-2.929687 7.066406 0 2.632813 1.058594 5.210938 2.929687 7.070313 1.859376 1.859375 4.429688 2.929687 7.070313 2.929687 2.628906 0 5.199219-1.066406 7.066406-2.929687 1.859375-1.859375 2.933594-4.4375 2.933594-7.070313 0-2.628906-1.070313-5.207031-2.933594-7.066406-1.867187-1.863281-4.4375-2.933594-7.066406-2.933594zm0 0"/><path d="m172 251.738281c2.628906 0 5.210938-1.066406 7.070312-2.929687 1.859376-1.859375 2.929688-4.4375 2.929688-7.070313 0-2.628906-1.070312-5.207031-2.929688-7.066406-1.859374-1.863281-4.441406-2.933594-7.070312-2.933594s-5.210938 1.070313-7.070312 2.933594c-1.859376 1.859375-2.929688 4.4375-2.929688 7.066406 0 2.632813 1.070312 5.210938 2.929688 7.070313 1.859374 1.863281 4.441406 2.929687 7.070312 2.929687zm0 0"/></svg>