<svg height="511pt" viewBox="0 0 511 511.99873" width="511pt" xmlns="http://www.w3.org/2000/svg"><path d="m224.59375 75.597656c-28.210938-12.996094-61.550781-.683594-74.546875 27.527344l-2.363281 1.4375c16.902344 2.9375 32.6875 10.300781 46.601562 21.148438l-.585937 7.125c6.589843.933593 12.84375 3.445312 18.222656 7.226562 8.566406-16.226562 29.589844-56.671875 29.589844-56.671875zm0 0" fill="#ff9357"/><path d="m229.5 173.960938c0-13.84375 6.527344-25.480469 16.199219-32.882813 3.945312-22.695313 24.753906-56.527344 53.082031-70.65625l-22.242188-28.035156c-39.589843 19.636719-66.882812 63.488281-73.242187 93.003906 14.902344 5.949219 26.203125 20.351563 26.203125 38.570313zm0 0" fill="#cbe558"/><path d="m264.71875 125.710938c16.320312-12.726563 35.222656-20.652344 55.476562-22.265626 1.144532-.21875 1.777344-.320312 1.777344-.320312-7.839844-17.023438-27.960937-24.453125-44.984375-16.613281 0 0-21.214843 15.96875-27.996093 46.351562 4.742187-3.78125 10.082031-6.351562 15.726562-7.152343zm0 0" fill="#ff9357"/><path d="m194.285156 125.710938c-18.371094-14.320313-40-22.585938-63.15625-22.585938-66.621094 0-120.628906 68.382812-120.628906 152.738281s54.007812 152.738281 120.628906 152.738281c14.25 0 27.917969-3.132812 40.601563-8.875zm0 0" fill="#ff9d6c"/><path d="m229.5 173.960938c0-31.230469-33.195312-51.242188-60.832031-36.703126-34.5625 18.179688-57.695313 54.28125-57.695313 109.3125 0 56.613282 24.484375 118.695313 60.707032 152.699219 21.910156 20.566407 57.824218 4.898438 57.824218-25.152343v-200.15625zm0 0" fill="#ffb48e"/><path d="m327.875 103.125c-23.15625 0-44.785156 8.265625-63.15625 22.585938l.585938 7.117187c8.160156-1.152344 16.839843.121094 25.03125 4.429687 34.5625 18.179688 57.695312 54.28125 57.695312 109.3125 0 56.613282-24.480469 118.695313-60.703125 152.699219-.03125.027344-.058594.050781-.089844.078125l.03125.375c12.691407 5.746094 26.359375 8.878906 40.605469 8.878906 66.621094 0 120.628906-68.382812 120.628906-152.738281s-54.007812-152.738281-120.628906-152.738281zm0 0" fill="#ff9d6c"/><path d="m229.5 173.960938c0-31.230469 33.195312-51.242188 60.835938-36.703126 34.5625 18.179688 57.695312 54.28125 57.695312 109.3125 0 56.613282-24.484375 118.695313-60.707031 152.699219-21.910157 20.566407-57.824219 4.898438-57.824219-25.152343zm0 0" fill="#ffb48e"/><path d="m216.296875 326.347656c-4.417969 0-8.757813.328125-13 .957032-4.242187-.628907-8.582031-.957032-13-.957032-48.503906 0-87.828125 39.320313-87.828125 87.824219 0 48.507813 39.324219 87.828125 87.828125 87.828125 4.417969 0 8.757813-.332031 13-.960938 4.242187.628907 8.582031.960938 13 .960938 48.503906 0 87.828125-39.320312 87.828125-87.828125 0-48.503906-39.324219-87.824219-87.828125-87.824219zm0 0" fill="#ff6977"/><path d="m216.296875 326.347656c-4.417969 0-8.757813.328125-13 .957032-4.242187-.628907-8.582031-.957032-13-.957032-31.242187 0-58.667969 16.3125-74.238281 40.886719l12.082031 3.710937c18.066406 5.550782 37.6875 2.433594 53.140625-8.449218l1.695312 6.328125c3.09375 11.5625 10.324219 21.585937 20.320313 28.175781 9.992187-6.589844 17.226563-16.613281 20.320313-28.175781l1.695312-6.328125c15.453125 10.882812 35.074219 14 53.140625 8.449218l12.082031-3.710937c-15.570312-24.574219-42.996094-40.886719-74.238281-40.886719zm0 0" fill="#d8ec84"/><path d="m474.71875 346.773438-2.476562-1.492188c-14.496094-8.738281-24.25-23.574219-26.53125-40.347656l-.78125-5.734375c-17.007813 8.21875-37.019532 7.292969-53.195313-2.460938l-2.78125-1.679687 20.542969-33.832032c14.28125-23.683593 45.054687-31.304687 68.738281-17.023437 23.683594 14.277344 31.304687 45.054687 17.027344 68.738281zm0 0" fill="#d8ec84"/><path d="m472.242188 345.28125c-14.496094-8.738281-24.25-23.574219-26.53125-40.347656l-.78125-5.734375c-17.007813 8.21875-37.019532 7.292969-53.195313-2.460938l-2.613281-1.578125c-11.761719 18.792969-45.597656 66.605469-103.007813 99.414063-16.929687 9.675781-30.148437 31.617187-30.148437 50.164062 0 31.511719 25.578125 55.285157 57.019531 57.054688 104.425781 5.875 149.457031-115.8125 161.28125-155.292969zm0 0" fill="#e199be"/><path d="m18.632812 199.644531c1.160157.4375 2.351563.644531 3.519532.644531 4.046875 0 7.855468-2.472656 9.359375-6.484374l.25-.652344c1.960937-5.164063-.636719-10.9375-5.796875-12.898438-5.164063-1.957031-10.9375.636719-12.902344 5.796875l-.269531.71875c-1.945313 5.164063.671875 10.929688 5.839843 12.875zm0 0"/><path d="m510.6875 272.640625c-2.96875-11.992187-9.410156-22.53125-18.484375-30.535156 10.328125-10.449219 16.183594-24.542969 16.183594-39.378907 0-5.519531-4.476563-10-10-10-5.523438 0-10 4.480469-10 10 0 10.589844-4.625 20.597657-12.6875 27.460938l-1.226563 1.042969c-5.851562-2.316407-11.921875-3.652344-17.996094-4.054688-9.394531-66.011719-50.441406-117.328125-102.011718-130.65625 10.894531-4.640625 19.898437-12.703125 25.746094-23.222656 6.949218-12.511719 8.613281-26.980469 4.683593-40.746094-6.796875-23.789062-31.675781-37.617187-55.46875-30.820312-20.089843 5.742187-31.765625 26.757812-26.027343 46.847656 2.371093 8.300781 7.832031 15.179687 15.378906 19.371094 7.546875 4.195312 16.269531 5.199219 24.570312 2.824219 7.410156-2.117188 13.320313-7.972657 15.804688-15.667969 2.460937-7.621094 1.207031-15.882813-3.273438-21.558594-3.421875-4.335937-9.714844-5.085937-14.050781-1.664063-4.335937 3.417969-5.085937 9.695313-1.664063 14.03125.179688.28125.492188 1.652344-.144531 3.328126-.328125.859374-.96875 1.960937-2.167969 2.300781-3.160156.902343-6.484374.523437-9.363281-1.074219-2.875-1.597656-4.957031-4.222656-5.859375-7.386719-2.710937-9.484375 2.804688-19.410156 12.292969-22.121093 13.1875-3.761719 26.972656 3.898437 30.742187 17.085937 2.464844 8.625 1.421876 17.691406-2.9375 25.535156-4.355468 7.84375-11.507812 13.519531-20.132812 15.980469-12.007812 3.429688-24.582031 1.660156-34.960938-4.523438.402344-.769531.714844-1.585937.910157-2.449218.652343-2.941406-.054688-6.023438-1.929688-8.382813l-22.242187-28.035156c-2.933594-3.695313-8.050782-4.839844-12.277344-2.742187-16.175781 8.023437-30.585938 19.949218-42.585938 33.464843-.238281-.132812-.480468-.265625-.730468-.382812-31.40625-14.460938-68.402344-2.15625-85.195313 27.367187-4.125-.488281-8.277343-.753906-12.453125-.753906-37.808594 0-73.710937 20.316406-98.503906 55.742188-3.167969 4.527343-2.066406 10.761718 2.457031 13.925781 1.746094 1.222656 3.746094 1.8125 5.726563 1.8125 3.152344 0 6.257812-1.488281 8.203125-4.269531 21-30.003907 50.929687-47.210938 82.117187-47.210938 14.832032 0 29.445313 3.863281 42.988282 11.253906-3.449219.980469-6.835938 2.304688-10.105469 4.027344-40.652344 21.382812-63.039063 63.347656-63.039063 118.164062 0 32.195313 7.507813 66.507813 21.226563 97.441407-5.335938 5.179687-10.085938 10.957031-14.136719 17.226562-.324219.433594-.617188.890625-.871094 1.382813-5.375 8.628906-9.441406 18.152344-11.921875 28.292968-44.511719-19.582031-74.769531-73.316406-74.769531-135.050781 0-8.433593.574219-16.882812 1.710938-25.117187.757812-5.46875-3.066407-10.515625-8.539063-11.273438-5.464844-.746094-10.515625 3.070313-11.273437 8.539063-1.261719 9.136719-1.898438 18.507812-1.898438 27.851562 0 71.96875 37.484375 134.667969 92.011719 155.527344-.027344.925781-.042969 1.851563-.042969 2.78125 0 53.941406 43.886719 97.828125 97.828125 97.828125 4.332031 0 8.695313-.292969 13-.863281 4.300781.570312 8.667969.863281 13 .863281 19.1875 0 38.042969-5.722656 53.960937-16.238281 11.316407 9.238281 25.875 15.097656 42.164063 16.015625 2.613281.144531 5.207031.21875 7.789063.21875 24.527343 0 47.589843-6.632813 68.652343-19.765625 18.9375-11.808594 36.324219-28.929688 51.671875-50.882813 22.804688-32.613281 36.078125-68.648437 42.351563-88.851562.125-.175782.261719-.34375.375-.535156l20.558593-33.859376c8.289063-13.738281 10.726563-29.886718 6.867188-45.460937zm-74.128906-43.46875c-14.378906 3.921875-27.332032 13.136719-35.613282 26.867187l-20.539062 33.832032c-.3125.515625-.570312 1.054687-.78125 1.605468-7.3125 11.5-21.328125 31.277344-42.449219 51.882813 13.285157-30.164063 20.855469-64.207031 20.855469-96.789063 0-54.816406-22.390625-96.78125-63.042969-118.164062-3.265625-1.71875-6.65625-3.046875-10.105469-4.027344 13.542969-7.390625 28.15625-11.253906 42.988282-11.253906 53.339844 0 98.894531 49.296875 108.6875 116.046875zm-246.261719 107.175781c3.84375 0 7.726563.285156 11.535156.851563.96875.144531 1.957031.144531 2.929688 0 3.8125-.566407 7.691406-.851563 11.535156-.851563 22.4375 0 43.171875 9.601563 57.613281 25.480469-14.574218 3.953125-30.464844 1.207031-42.839844-7.507813-2.671874-1.878906-6.09375-2.335937-9.167968-1.222656-3.070313 1.113282-5.40625 3.65625-6.25 6.8125l-1.695313 6.328125c-1.851562 6.917969-5.554687 13.132813-10.660156 18.023438-5.105469-4.890625-8.808594-11.105469-10.660156-18.027344l-1.695313-6.324219c-.84375-3.15625-3.179687-5.699218-6.25-6.8125-3.074218-1.113281-6.496094-.65625-9.167968 1.222656-12.359376 8.707032-28.230469 11.453126-42.785157 7.523438 14.246094-15.65625 34.773438-25.496094 57.558594-25.496094zm92.054687-241.257812c6.738282-2.679688 14.058594-2.066406 20.085938 1.144531-11.101562 2.726563-21.867188 7.210937-32.035156 13.40625 3.535156-5.117187 7.558594-10.0625 11.949218-14.550781zm-27.648437 51.925781c9.535156-5.757813 21.113281-6.097656 30.976563-.90625 34.25 18.015625 52.351562 52.753906 52.351562 100.460937 0 41.292969-13.949219 86.640626-36.277344 119.960938-13.273437-23.824219-35.902344-40.980469-62.253906-47.398438v-145.171874c0-11.121094 5.683594-21.195313 15.203125-26.945313zm19.242187-91.808594 9.480469 11.949219c-.535156.554688-.996093 1.15625-1.378906 1.792969-23.214844 16.753906-40.320313 44.574219-45.433594 66.671875-2.652343 2.359375-5.03125 4.964844-7.113281 7.777344-3.847656-5.203126-8.722656-9.707032-14.46875-13.246094 8.121094-25.882813 30.488281-57.835938 58.914062-74.945313zm-57.246093 27.96875c-7.679688 11.042969-13.792969 22.496094-18.023438 33.332031-10.691406-8.046874-22.207031-14.09375-34.210937-18.015624 12.054687-15.6875 33.199218-22.171876 52.234375-15.316407zm-95.726563 163.394531c0-47.707031 18.101563-82.445312 52.351563-100.460937 9.859375-5.191406 21.4375-4.847656 30.972656.90625 9.523437 5.75 15.207031 15.824219 15.207031 26.945313v142.449218c-1.066406-.035156-2.132812-.0625-3.207031-.0625-1.269531 0-2.546875.03125-3.824219.082032-2.019531-12.195313-7.75-23.4375-16.667968-32.351563l-2.273438-2.277344c-3.90625-3.902343-10.238281-3.902343-14.144531 0-3.90625 3.90625-3.90625 10.238281 0 14.144531l2.277343 2.277344c5.101563 5.101563 8.636719 11.34375 10.382813 18.152344-.582031-.007812-1.167969-.027344-1.75-.027344-19.019531 0-36.785156 5.460938-51.824219 14.890625-11.328125-27.164062-17.5-56.808593-17.5-84.667969zm83.792969 244.578126c-.976563-.144532-1.964844-.144532-2.9375 0-3.804687.566406-7.6875.851562-11.53125.851562-42.914063 0-77.828125-34.914062-77.828125-77.824219 0-12.589843 3.023438-24.480469 8.355469-35.015625l4.378906 1.347656c16.515625 5.074219 34.441406 3.832032 50.050781-3.140624 4.394532 11.40625 12.242188 21.195312 22.539063 27.980468 1.667969 1.101563 3.585937 1.652344 5.503906 1.652344s3.832031-.550781 5.503906-1.652344c10.296875-6.785156 18.144531-16.574218 22.539063-27.980468 15.605468 6.972656 33.53125 8.214843 50.050781 3.140624l4.421875-1.359374c.515625 1.023437 1.007812 2.0625 1.480469 3.113281-2.019531 1.226562-4.058594 2.441406-6.144531 3.632812-20.058594 11.464844-35.1875 36.761719-35.1875 58.847657 0 13.3125 3.898437 25.632812 10.710937 35.992187-12.113281 7.398437-25.894531 11.265625-40.375 11.265625-3.847656 0-7.726563-.285156-11.53125-.851562zm219.382813-61.257813c-30.417969 43.503906-67.621094 64.339844-110.601563 61.917969-14.296875-.804688-26.734375-6.804688-35.304687-16.007813-.003907-.003906-.007813-.007812-.011719-.011719-7.691407-8.253906-12.265625-19.082031-12.265625-31.046874 0-14.964844 11.261718-33.570313 25.109375-41.484376 52.351562-29.917968 85.621093-71.621093 101.332031-94.824218 13.996094 6.644531 29.738281 8.113281 44.589844 4.277344 3.648437 15.367187 12.636718 28.792968 25.460937 38.058593-6.339843 19.507813-18.5 50.785157-38.308593 79.121094zm62.5625-122.140625-13.007813 21.421875c-1.410156.351563-2.71875.992187-3.835937 1.878906-7.730469-7.15625-12.796876-16.78125-14.25-27.464843l-.78125-5.734376c-.429688-3.171874-2.355469-5.945312-5.175782-7.460937-1.476562-.792969-3.101562-1.191406-4.730468-1.191406-1.488282 0-2.976563.332031-4.351563.996093-11.953125 5.773438-25.589844 6.078126-37.613281 1.054688l15.09375-24.859375c11.410156-18.921875 36.089844-25.03125 55.011718-13.625 9.164063 5.527344 15.632813 14.292969 18.203126 24.6875 2.574218 10.386719.949218 21.15625-4.5625 30.296875zm0 0"/></svg>