<svg height="511pt" viewBox="1 0 511.999 511" width="511pt" xmlns="http://www.w3.org/2000/svg"><path d="m469.015625 64.460938 21.511719 3.824218c6.640625 1.179688 11.480468 6.957032 11.480468 13.703125 0 7.683594-6.230468 13.914063-13.917968 13.914063h-19.074219zm0 0" fill="#ffcb78"/><path d="m339.40625 180.214844v-104.917969c0-35.789063 29.011719-64.804687 64.804688-64.804687 35.789062 0 64.804687 29.015624 64.804687 64.804687v7.671875c0 22.964844-12.292969 44.179688-32.21875 55.597656v34.105469c0 97.902344-79.367187 177.265625-177.265625 177.265625h-72.269531c-97.902344 0-177.269531-79.363281-177.269531-177.265625v-18.824219l28.828124 15.683594c12.1875 6.632812 26.953126 6.410156 38.9375-.585938 39.25-22.921874 83.886719-34.996093 129.339844-34.996093 36.871094.003906 73.308594 7.957031 106.828125 23.320312zm0 0" fill="#e5ecec"/><path d="m344.40625 171.238281-30.496094-13.976562c-33.515625-15.359375-69.949218-23.3125-106.8125-23.3125-39.863281 0-79.101562 9.289062-114.625 27.035156l-2.808594 3.109375c11.152344 54.492188 59.371094 95.484375 117.160157 95.484375h48.125c49.035156.003906 88.851562-39.445313 89.457031-88.339844zm0 0" fill="#f9f9f9"/><path d="m10.144531 479.546875c11.871094 13.863281 29.488281 22.65625 49.171875 22.65625 19.679688 0 37.296875-8.792969 49.167969-22.65625 11.875 13.863281 29.492187 22.65625 49.171875 22.65625 19.683594 0 37.300781-8.792969 49.171875-22.65625 11.875 13.863281 29.488281 22.65625 49.171875 22.65625 19.679688 0 37.296875-8.792969 49.171875-22.65625 11.871094 13.863281 29.488281 22.65625 49.167969 22.65625 19.683594 0 37.300781-8.792969 49.171875-22.65625 11.875 13.863281 29.492187 22.65625 49.171875 22.65625 19.683594 0 37.296875-8.792969 49.171875-22.65625v-183.222656c-11.875 13.859375-29.488281 22.65625-49.171875 22.65625-19.679688 0-37.296875-8.796875-49.171875-22.65625-11.871094 13.859375-29.488281 22.65625-49.171875 22.65625-19.679688 0-37.296875-8.796875-49.167969-22.65625-11.875 13.859375-29.492187 22.65625-49.171875 22.65625-19.683594 0-37.296875-8.796875-49.171875-22.65625-11.871094 13.859375-29.488281 22.65625-49.171875 22.65625-19.679688 0-37.296875-8.796875-49.171875-22.65625-11.871094 13.859375-29.488281 22.65625-49.167969 22.65625-19.683594 0-37.300781-8.796875-49.171875-22.65625zm0 0" fill="#dff6fc"/><path d="m419.511719 86.1875c2.628906 0 5.207031-1.066406 7.078125-2.925781 1.859375-1.871094 2.917968-4.4375 2.917968-7.066407 0-2.640624-1.058593-5.207031-2.917968-7.066406-1.871094-1.859375-4.449219-2.929687-7.078125-2.929687-2.625 0-5.207031 1.070312-7.0625 2.929687-1.859375 1.859375-2.929688 4.4375-2.929688 7.066406 0 2.628907 1.070313 5.195313 2.929688 7.066407 1.855469 1.855469 4.4375 2.925781 7.0625 2.925781zm0 0"/><path d="m508.355469 288.734375c-4.191407-3.589844-10.5-3.101563-14.089844 1.089844-10.433594 12.179687-25.585937 19.164062-41.582031 19.164062-15.992188 0-31.148438-6.984375-41.578125-19.164062-.960938-1.125-2.148438-2.003907-3.464844-2.597657 25.050781-32.40625 39.148437-72.566406 39.148437-114.554687v-28.585937c13.5625-9.300782 23.535157-22.820313 28.554688-38.1875h12.746094c13.183594 0 23.910156-10.726563 23.910156-23.910157 0-11.609375-8.296875-21.511719-19.726562-23.542969l-15.910157-2.828124c-8.664062-31.722657-37.722656-55.117188-72.152343-55.117188-41.246094 0-74.800782 33.554688-74.800782 74.796875v78.074219l-11.320312-5.1875c-35.070313-16.070313-72.414063-24.222656-110.992188-24.226563-.007812 0-.011718 0-.019531 0-47.167969 0-93.628906 12.574219-134.363281 36.359375-8.902344 5.195313-20.0625 5.367188-29.121094.4375l-28.824219-15.683594c-3.097656-1.6875-6.851562-1.613281-9.882812.1875-3.03125 1.800782-4.886719 5.066407-4.886719 8.589844v18.824219c0 30.121094 6.9375 58.886719 20.617188 85.5 9.71875 18.902344 22.757812 36.167969 38.265624 50.804687-15.835937-.125-30.8125-7.085937-41.148437-19.152343-3.589844-4.191407-9.902344-4.679688-14.09375-1.089844s-4.679687 9.898437-1.085937 14.09375c14.234374 16.617187 34.921874 26.148437 56.757812 26.148437 8.695312 0 17.199219-1.527343 25.191406-4.394531.289063-.085937.566406-.183593.847656-.296875 8.4375-3.140625 16.28125-7.792968 23.132813-13.785156 13.539063 11.84375 30.953125 18.472656 49.171875 18.472656s35.632812-6.628906 49.171875-18.472656c13.539063 11.84375 30.953125 18.472656 49.171875 18.472656 18.214844 0 35.632812-6.628906 49.167969-18.472656 13.539062 11.84375 30.957031 18.472656 49.171875 18.472656 2.023437 0 4.035156-.09375 6.035156-.253906.210938-.007812.425781-.023438.636719-.046875 15.765625-1.410156 30.625-7.785156 42.5-18.175781 13.535156 11.847656 30.953125 18.476562 49.171875 18.476562 21.839844 0 42.527344-9.53125 56.761718-26.148437 3.589844-4.191407 3.101563-10.5-1.089843-14.089844zm-16.34375-206.746094c0 2.160157-1.757813 3.921875-3.921875 3.921875h-9.144532c.035157-.980468.0625-1.957031.0625-2.941406v-6.578125l9.769532 1.734375c1.875.332031 3.234375 1.957031 3.234375 3.863281zm-284.914063 61.957031c35.683594.003907 70.226563 7.542969 102.664063 22.410157l19.347656 8.867187c-2.648437 41.445313-37.195313 74.363282-79.292969 74.363282h-42.992187c-36.015625 0-68.792969-17.773438-88.933594-45.621094 19.980469 8.152344 41.402344 12.40625 63.277344 12.40625h41.851562c5.519531 0 9.992188-4.472656 9.992188-9.992188 0-5.519531-4.472657-9.996094-9.992188-9.996094h-41.851562c-27.9375 0-55.042969-7.851562-78.636719-22.695312-.601562-1.871094-1.164062-3.761719-1.667969-5.675781 33.082031-15.792969 69.414063-24.066407 106.21875-24.066407zm105.664063 145.878907c-1.898438-2.21875-4.671875-3.492188-7.589844-3.492188-2.921875 0-5.691406 1.273438-7.59375 3.492188-10.429687 12.179687-25.585937 19.164062-41.578125 19.164062s-31.148438-6.984375-41.582031-19.164062c-1.898438-2.21875-4.671875-3.492188-7.589844-3.492188s-5.691406 1.273438-7.589844 3.492188c-10.433593 12.179687-25.585937 19.164062-41.582031 19.164062-15.992188 0-31.148438-6.984375-41.578125-19.164062-1.898437-2.21875-4.671875-3.492188-7.59375-3.492188-2.917969 0-5.691406 1.273438-7.589844 3.492188-4.996093 5.832031-11.082031 10.460937-17.820312 13.710937-40.164063-31.945312-63.085938-79.316406-63.085938-130.863281v-2.007813l14.054688 7.648438c15.164062 8.25 33.84375 7.964844 48.75-.734375.5625 1.859375 1.171875 3.703125 1.816406 5.535156.097656.316407.207031.625.332031.933594 7.859375 21.667969 21.480469 41.101563 39.453125 55.933594 23.121094 19.082031 52.398438 29.59375 82.429688 29.59375h42.992187c54.726563 0 99.277344-44.441407 99.457032-99.132813.074218-.492187.125-.988281.125-1.496094v-93.648437c0-30.222656 24.589843-54.808594 54.8125-54.808594 30.222656 0 54.808593 24.585938 54.808593 54.808594v7.671875c0 19.332031-10.417969 37.3125-27.191406 46.925781-3.109375 1.78125-5.027344 5.089844-5.027344 8.671875v34.105469c0 54.125-26.21875 104.84375-70.253906 136.253906-.730469.03125-1.464844.058594-2.203125.058594-15.996094 0-31.152344-6.980469-41.582031-19.160156zm0 0"/><path d="m508.355469 380.347656c-4.191407-3.59375-10.5-3.105468-14.089844 1.089844-10.433594 12.175781-25.585937 19.160156-41.582031 19.160156-15.992188 0-31.148438-6.984375-41.582032-19.160156-1.894531-2.21875-4.667968-3.492188-7.585937-3.492188-2.921875 0-5.695313 1.273438-7.589844 3.492188-10.433593 12.175781-25.589843 19.160156-41.582031 19.160156s-31.148438-6.984375-41.582031-19.160156c-1.898438-2.21875-4.671875-3.496094-7.589844-3.496094s-5.691406 1.277344-7.589844 3.492188c-10.433593 12.179687-25.589843 19.164062-41.582031 19.164062s-31.148438-6.984375-41.578125-19.164062c-1.902344-2.214844-4.671875-3.492188-7.59375-3.492188-2.917969 0-5.691406 1.277344-7.589844 3.496094-10.429687 12.175781-25.585937 19.160156-41.578125 19.160156-15.996094 0-31.152344-6.984375-41.582031-19.164062-1.898437-2.214844-4.671875-3.492188-7.589844-3.492188-2.921875 0-5.691406 1.277344-7.589843 3.496094-10.433594 12.175781-25.589844 19.160156-41.582032 19.160156-15.992187 0-31.148437-6.984375-41.582031-19.160156-3.589844-4.195312-9.898437-4.683594-14.089844-1.089844-4.191406 3.589844-4.679687 9.898438-1.089843 14.089844 14.234374 16.617188 34.921874 26.148438 56.761718 26.148438 18.21875 0 35.632813-6.628907 49.171875-18.476563 13.535157 11.847656 30.953125 18.476563 49.171875 18.476563 18.214844 0 35.632813-6.628907 49.167969-18.476563 13.539063 11.847656 30.957031 18.476563 49.171875 18.476563s35.632812-6.628907 49.171875-18.476563c13.535156 11.847656 30.953125 18.476563 49.171875 18.476563 18.214844 0 35.632812-6.628907 49.171875-18.472657 13.535156 11.84375 30.953125 18.472657 49.167969 18.472657 21.839844 0 42.527344-9.53125 56.761718-26.148438 3.589844-4.191406 3.101563-10.5-1.089843-14.089844zm0 0"/><path d="m508.355469 471.957031c-4.191407-3.589843-10.5-3.101562-14.089844 1.089844-10.433594 12.179687-25.585937 19.164063-41.582031 19.164063-15.992188 0-31.148438-6.984376-41.578125-19.164063-1.898438-2.21875-4.671875-3.492187-7.589844-3.492187-2.921875 0-5.695313 1.273437-7.59375 3.492187-10.429687 12.179687-25.585937 19.164063-41.578125 19.164063-15.996094 0-31.148438-6.984376-41.582031-19.164063-1.898438-2.21875-4.671875-3.492187-7.589844-3.492187s-5.691406 1.273437-7.589844 3.492187c-10.433593 12.179687-25.589843 19.164063-41.582031 19.164063s-31.148438-6.984376-41.578125-19.164063c-1.902344-2.21875-4.671875-3.492187-7.59375-3.492187-2.917969 0-5.691406 1.273437-7.589844 3.492187-10.429687 12.179687-25.585937 19.164063-41.578125 19.164063-15.996094 0-31.152344-6.984376-41.582031-19.164063-1.898437-2.21875-4.671875-3.492187-7.589844-3.492187-2.921875 0-5.691406 1.273437-7.589843 3.492187-10.433594 12.179687-25.589844 19.164063-41.582032 19.164063-15.996094 0-31.148437-6.984376-41.582031-19.164063-3.589844-4.191406-9.898437-4.679687-14.089844-1.089844-4.191406 3.589844-4.679687 9.898438-1.089843 14.09375 14.234374 16.617188 34.921874 26.148438 56.761718 26.148438 18.21875 0 35.632813-6.632813 49.167969-18.476563 13.539063 11.84375 30.957031 18.476563 49.171875 18.476563 18.21875 0 35.632812-6.632813 49.171875-18.476563 13.539063 11.84375 30.953125 18.476563 49.171875 18.476563 18.214844 0 35.632812-6.632813 49.171875-18.476563 13.535156 11.84375 30.953125 18.476563 49.167969 18.476563 18.21875 0 35.636718-6.632813 49.171875-18.476563 13.539062 11.84375 30.953125 18.476563 49.171875 18.476563 21.839844 0 42.527344-9.53125 56.761718-26.148438 3.589844-4.191406 3.101563-10.503906-1.089843-14.09375zm0 0"/><path d="m262.996094 216.371094c2.628906 0 5.207031-1.070313 7.066406-2.929688 1.859375-1.855468 2.925781-4.433594 2.925781-7.0625s-1.066406-5.207031-2.925781-7.066406-4.4375-2.929688-7.066406-2.929688-5.207032 1.070313-7.066406 2.929688c-1.859376 1.859375-2.929688 4.4375-2.929688 7.066406s1.070312 5.207032 2.929688 7.0625c1.859374 1.859375 4.4375 2.929688 7.066406 2.929688zm0 0"/></svg>