<svg height="512pt" viewBox="0 -54 512 512" width="512pt" xmlns="http://www.w3.org/2000/svg"><path d="m121.949219 10h.179687c110.046875 0 186.871094 32 239.871094 126.925781h21.515625c12.515625 0 22.660156 10.167969 22.660156 22.707031v36.730469c0 12.542969-10.144531 22.707031-22.660156 22.707031h-21.515625c-53 94.929688-129.824219 126.929688-239.867188 126.929688h-.179687v-336zm0 0" fill="#ff765b"/><path d="m411 203.960938h21.792969c0 19.109374 15.492187 34.601562 34.601562 34.601562 19.117188 0 34.605469-15.488281 34.605469-34.609375 0-10.394531-4.683594-19.605469-11.9375-25.953125 7.253906-6.34375 11.9375-15.558594 11.9375-25.953125 0-19.121094-15.488281-34.609375-34.605469-34.609375-19.109375 0-34.601562 15.496094-34.601562 34.601562l-21.792969.007813zm0 0" fill="#e1e3e9"/><path d="m122 10c-61.855469 0-112 50.144531-112 112v112c0 61.855469 50.144531 112 112 112s112-50.144531 112-112v-112c0-61.855469-50.144531-112-112-112zm0 0" fill="#ffedd1"/><path d="m122 50c-39.699219 0-72 32.300781-72 72v112c0 39.699219 32.300781 72 72 72s72-32.300781 72-72v-112c0-39.699219-32.300781-72-72-72zm0 0" fill="#f3b4a7"/><path d="m122 139.480469c-11.945312 0-21.667969 9.722656-21.667969 21.667969v33.703124c0 11.949219 9.722657 21.667969 21.667969 21.667969s21.667969-9.71875 21.667969-21.667969v-33.703124c0-11.949219-9.722657-21.667969-21.667969-21.667969zm0 0" fill="#ff765b"/><path d="m229.90625 271.785156h-71.746094c-14.117187 0-25.5625 11.445313-25.5625 25.5625v71.746094c0 14.117188 11.445313 25.5625 25.5625 25.5625h71.746094c14.117188 0 25.5625-11.445312 25.5625-25.5625v-71.746094c0-14.117187-11.445312-25.5625-25.5625-25.5625zm0 0" fill="#e6b9a0"/><path d="m352.777344 271.785156h-71.746094c-14.117188 0-25.5625 11.445313-25.5625 25.5625v71.746094c0 14.117188 11.445312 25.5625 25.5625 25.5625h71.746094c14.121094 0 25.566406-11.445312 25.566406-25.5625v-71.746094c0-14.117187-11.445312-25.5625-25.566406-25.5625zm0 0" fill="#fff"/><path d="m352.777344 271.785156h-71.746094c-14.117188 0-25.5625 11.445313-25.5625 25.5625v71.746094c0 14.117188 11.445312 25.5625 25.5625 25.5625h71.746094c14.121094 0 25.566406-11.445312 25.566406-25.5625v-71.746094c0-14.117187-11.445312-25.5625-25.566406-25.5625zm0 0" fill="#d29976"/><path d="m291.34375 148.910156h-71.746094c-14.121094 0-25.566406 11.445313-25.566406 25.5625v71.746094c0 14.121094 11.445312 25.5625 25.566406 25.5625h71.746094c14.117188 0 25.5625-11.441406 25.5625-25.5625v-71.746094c0-14.117187-11.445312-25.5625-25.5625-25.5625zm0 0" fill="#e6b9a0"/><path d="m512 152.046875c0-24.597656-20.011719-44.605469-44.605469-44.605469-21.15625 0-38.921875 14.804688-43.472656 34.601563l-12.894531.003906c-5.808594-9.082031-15.964844-15.117187-27.511719-15.117187h-15.703125c-26.402344-45.460938-59.117188-77.550782-99.871094-98-38.789062-19.464844-86.480468-28.929688-145.8125-28.929688h-.179687c-.011719 0-.027344.00390625-.039063.00390625-17.207031.01171875-33.84375 3.53515575-49.449218 10.47656275-5.046876 2.246093-7.320313 8.15625-5.074219 13.203125 2.246093 5.046875 8.152343 7.316406 13.203125 5.070312 13.058594-5.808594 26.988281-8.753906 41.410156-8.753906 56.242188 0 102 45.757812 102 102v16.910156h-4.402344c-5.59375 0-10.886718 1.300782-15.597656 3.613282v-20.523438c0-45.214844-36.785156-82-82-82s-82 36.785156-82 82v112c0 45.214844 36.785156 82 82 82 .199219 0 .398438-.011719.597656-.011719v20c-.199218.003907-.398437.011719-.597656.011719-56.242188 0-102-45.757812-102-102v-112c0-14.464844 2.964844-28.4375 8.808594-41.527344 2.25-5.042968-.011719-10.957031-5.054688-13.210937-5.042968-2.25-10.957031.011719-13.210937 5.058593-6.996094 15.671876-10.542969 32.386719-10.542969 49.679688v112c0 67.273438 54.730469 122 122 122 .199219 0 .398438-.007812.597656-.011719v13.105469c0 19.609375 15.953125 35.5625 35.5625 35.5625h71.746094c10.027344 0 19.089844-4.175781 25.5625-10.875 6.472656 6.699219 15.535156 10.875 25.5625 10.875h71.746094c19.609375 0 35.566406-15.953125 35.566406-35.5625v-63.175781c0-.003907 0-.007813 0-.007813v-8.5625c0-19.609375-15.957031-35.5625-35.566406-35.5625h-6.832032c7.722657-10.023437 15.035157-20.960937 21.867188-32.710937h15.703125c11.542969 0 21.699219-6.035157 27.507813-15.113281h12.886718c1.847656 8.09375 5.933594 15.523437 11.945313 21.539062 8.425781 8.421875 19.625 13.0625 31.539062 13.0625 24.59375 0 44.601563-20.011719 44.601563-44.605469 0-9.355469-3.015625-18.417969-8.476563-25.953125 5.464844-7.539062 8.480469-16.605468 8.480469-25.957031zm-292.402344 6.863281h44.152344l-59.71875 59.71875v-44.152344c0-8.585937 6.984375-15.566406 15.566406-15.566406zm-17.285156 122.875-59.714844 59.71875v-44.15625c0-8.582031 6.980469-15.5625 15.5625-15.5625zm63.15625 24.15625c0-.019531 0-.035156 0-.050781v-8.542969c0-8.582031 6.980469-15.5625 15.5625-15.5625h44.15625l-59.71875 59.71875zm41.4375-127.042968-31.71875 31.71875c-3.90625 3.902343-3.90625 10.234374 0 14.140624 1.953125 1.953126 4.511719 2.929688 7.070312 2.929688 2.558594 0 5.121094-.976562 7.070313-2.929688l17.578125-17.574218v39.039062c0 8.582032-6.980469 15.5625-15.5625 15.5625h-71.75c-8.359375 0-15.179688-6.628906-15.53125-14.90625l85.648438-85.644531c.703124-.703125 1.273437-1.488281 1.722656-2.320313 8.539062.050782 15.46875 7.007813 15.46875 15.558594v4.425782zm-246.90625 55.101562v-112c0-34.1875 27.8125-62 62-62s62 27.8125 62 62v49.8125c0 .386719.027344.769531.070312 1.148438-.019531.503906-.039062 1.003906-.039062 1.511718v71.746094c0 5.582031 1.296875 10.859375 3.59375 15.5625h-29.464844c-19.15625 0-34.8125 15.226562-35.53125 34.207031-.207031 0-.417968.011719-.628906.011719-34.1875 0-62-27.8125-62-62zm169.90625 150.65625h-71.746094c-8.359375 0-15.183594-6.628906-15.53125-14.902344l85.644532-85.648437c.703124-.703125 1.277343-1.484375 1.726562-2.316407 8.535156.050782 15.46875 7.007813 15.46875 15.558594v4.425782l-31.71875 31.714843c-3.902344 3.90625-3.902344 10.238281 0 14.144531 1.953125 1.953126 4.511719 2.929688 7.070312 2.929688 2.5625 0 5.121094-.976562 7.074219-2.929688l17.574219-17.574218v39.035156c0 8.582031-6.980469 15.5625-15.5625 15.5625zm138.4375-87.308594v4.425782l-31.71875 31.714843c-3.90625 3.90625-3.90625 10.238281 0 14.144531 1.953125 1.953126 4.511719 2.929688 7.070312 2.929688 2.558594 0 5.117188-.976562 7.070313-2.929688l17.578125-17.574218v39.035156c0 8.582031-6.984375 15.5625-15.566406 15.5625h-71.746094c-8.359375 0-15.179688-6.628906-15.527344-14.902344l85.644532-85.648437c.703124-.703125 1.273437-1.484375 1.722656-2.316407 8.539062.050782 15.472656 7.007813 15.472656 15.558594zm15.171875-88.273437h-21.515625c-3.625 0-6.964844 1.960937-8.730469 5.125-8.414062 15.066406-17.621093 28.730469-27.457031 40.785156.710938-2.804687 1.09375-5.742187 1.09375-8.765625v-63.171875c0-.003906 0-.007813 0-.011719v-8.5625c0-19.609375-15.953125-35.5625-35.5625-35.5625h-47.34375v-16.910156c0-38.527344-17.957031-72.9375-45.9375-95.3125 70.847656 14 119.164062 50.558594 155.207031 115.113281 1.765625 3.164063 5.105469 5.125 8.730469 5.125h21.515625c6.980469 0 12.65625 5.703125 12.65625 12.707031v36.734376c.003906 7.003906-5.675781 12.707031-12.65625 12.707031zm83.878906 19.488281c-6.570312 0-12.75-2.558594-17.394531-7.207031-4.648438-4.644531-7.207031-10.824219-7.207031-17.394531 0-2.652344-1.054688-5.195313-2.929688-7.070313s-4.417969-2.929687-7.070312-2.929687h-16.617188v-31.917969l16.621094-.003907c5.519531 0 9.996094-4.480468 9.996094-10 0-13.5625 11.035156-24.601562 24.601562-24.601562 13.566407 0 24.605469 11.039062 24.605469 24.605469 0 4.746093-1.367188 9.25-3.921875 13.152343-6.503906-2.925781-15.132813-4.785156-23.984375-1.96875-5.261719 1.675782-8.171875 7.300782-6.496094 12.5625 1.675782 5.265626 7.300782 8.167969 12.5625 6.496094 6.09375-1.933594 12.515625 2.65625 13.445313 3.359375 5.414062 4.796875 8.394531 11.289063 8.394531 18.308594 0 13.570313-11.039062 24.609375-24.605469 24.609375zm0 0"/><path d="m153.667969 194.851562v-33.703124c0-17.460938-14.207031-31.667969-31.667969-31.667969s-31.667969 14.207031-31.667969 31.667969v33.703124c0 17.460938 14.207031 31.667969 31.667969 31.667969s31.667969-14.207031 31.667969-31.667969zm-43.335938 0v-33.703124c0-6.433594 5.234375-11.667969 11.667969-11.667969s11.667969 5.234375 11.667969 11.667969v33.703124c0 6.433594-5.234375 11.667969-11.667969 11.667969s-11.667969-5.234375-11.667969-11.667969zm0 0"/><path d="m42.96875 52.636719c2.632812 0 5.210938-1.066407 7.070312-2.929688 1.859376-1.859375 2.929688-4.4375 2.929688-7.070312 0-2.628907-1.070312-5.207031-2.929688-7.066407-1.859374-1.859374-4.4375-2.933593-7.070312-2.933593-2.628906 0-5.207031 1.070312-7.070312 2.933593-1.859376 1.859376-2.929688 4.4375-2.929688 7.066407 0 2.632812 1.070312 5.210937 2.929688 7.070312 1.863281 1.859375 4.441406 2.929688 7.070312 2.929688zm0 0"/></svg>