<svg height="512pt" viewBox="-38 0 512 512" width="512pt" xmlns="http://www.w3.org/2000/svg"><path d="m217.699219 10c-67.199219 0-121.671875 54.476562-121.671875 121.675781v176.8125h243.347656v-176.816406c0-67.195313-54.476562-121.671875-121.675781-121.671875zm0 0" fill="#ffc15a"/><path d="m259.613281 293.09375 58.734375 11.855469c62.632813 12.640625 107.675782 67.679687 107.675782 131.574219v65.476562h-416.023438v-65.40625c0-63.925781 45.085938-118.984375 107.753906-131.589844l59.1875-11.910156v-33.441406h82.671875zm0 0" fill="#cbe558"/><path d="m259.613281 290.875c0 22.832031-18.507812 41.335938-41.335937 41.335938s-41.335938-18.503907-41.335938-41.335938v-31.222656h82.671875zm0 0" fill="#f2d1a5"/><path d="m297.371094 300.003906v114.527344h-159.308594v-113.769531l-59.761719 20.976562v180.261719h278.835938v-180.261719zm0 0" fill="#79b2ff"/><path d="m142.007812 138.886719v57.21875c0 41.976562 34.027344 76.003906 76.003907 76.003906 41.976562 0 76.003906-34.027344 76.003906-76.003906v-57.21875zm0 0" fill="#f2d1a5"/><path d="m403.414062 345.179688c-14.554687-17.78125-33.167968-31.765626-54.039062-40.871094v-172.636719c0-72.605469-59.070312-131.671875-131.675781-131.671875s-131.671875 59.066406-131.671875 131.671875v172.980469c-20.605469 9.101562-38.984375 22.972656-53.386719 40.5625-21.050781 25.707031-32.640625 58.15625-32.640625 91.378906v65.40625c0 5.523438 4.476562 10 10 10h416.023438c5.519531 0 10-4.476562 10-10v-65.476562c0-33.207032-11.582032-65.644532-32.609376-91.34375zm-56.28125 59.351562h-39.757812v-91.59375l8.996094 1.8125c10.875 2.195312 21.1875 5.796875 30.761718 10.582031zm-241.105468-272.859375c0-61.574219 50.097656-111.671875 111.675781-111.671875 61.574219 0 111.671875 50.097656 111.671875 111.671875v165.605469c-2.988281-.804688-6.003906-1.519532-9.046875-2.132813l-50.714844-10.234375v-20.046875c20.875-15.707031 34.402344-40.679687 34.402344-68.757812v-57.21875c0-5.523438-4.476563-10-10-10h-62.589844c8.082031-8.246094 14.089844-18.648438 17.054688-30.476563 1.34375-5.355468-1.90625-10.789062-7.265625-12.132812-5.355469-1.34375-10.789063 1.910156-12.132813 7.265625-5.21875 20.808593-23.847656 35.34375-45.300781 35.34375h-41.773438c-5.523437 0-10 4.476562-10 10v57.21875c0 28.3125 13.757813 53.46875 34.933594 69.148437v19.652344l-51.15625 10.292969c-3.285156.660156-6.539062 1.441406-9.757812 2.324219zm143.585937 159.203125c0 17.277344-14.058593 31.335938-31.335937 31.335938s-31.335938-14.058594-31.335938-31.335938v-14.597656c9.644532 3.75 20.117188 5.832031 31.070313 5.832031 11.15625 0 21.8125-2.15625 31.601562-6.039063zm34.402344-141.988281v47.21875c0 22.898437-11.726563 43.105469-29.484375 54.945312-.230469.136719-.457031.277344-.671875.429688-10.332031 6.710937-22.636719 10.628906-35.847656 10.628906-12.371094 0-23.953125-3.429687-33.859375-9.375-1.050782-1.097656-2.351563-1.949219-3.808594-2.476563-17.109375-11.9375-28.335938-31.753906-28.335938-54.152343v-47.21875zm-155.953125 255.644531h-39.761719v-78.828125c9.765625-4.949219 20.300781-8.660156 31.429688-10.898437l8.332031-1.675782zm-108.0625 32.0625c0-39.34375 18.691406-75.242188 48.300781-98.222656v153.625h-48.300781zm68.300781 55.40625v-67.46875h89.398438c5.523437 0 10-4.476562 10-10 0-5.519531-4.476563-10-10-10h-29.636719v-95.425781l20.84375-4.195313c6.121094 21.503906 25.929688 37.300782 49.371094 37.300782 23.4375 0 43.242187-15.792969 49.367187-37.292969l19.726563 3.980469v95.632812h-29.667969c-5.523437 0-10 4.476562-10 10s4.476563 10 10 10h89.429687v67.464844h-258.832031zm327.722657 0h-48.886719v-154.15625c29.949219 22.964844 48.886719 59.085938 48.886719 98.679688zm0 0"/><path d="m197.648438 226.992188c5.691406 5.691406 13.167968 8.535156 20.644531 8.535156 7.476562 0 14.949219-2.84375 20.640625-8.535156 3.90625-3.902344 3.90625-10.234376 0-14.140626-3.902344-3.90625-10.234375-3.90625-14.140625-.003906-3.585938 3.582032-9.417969 3.582032-13 0-3.90625-3.90625-10.238281-3.902344-14.144531.003906s-3.90625 10.238282 0 14.140626zm0 0"/><path d="m108.183594 371.285156c-2.636719 0-5.207032 1.070313-7.070313 2.933594-1.867187 1.859375-2.929687 4.4375-2.929687 7.070312 0 2.640626 1.0625 5.207032 2.929687 7.066407 1.863281 1.871093 4.433594 2.933593 7.070313 2.933593 2.632812 0 5.203125-1.0625 7.0625-2.933593 1.871094-1.859375 2.941406-4.4375 2.941406-7.066407 0-2.632812-1.070312-5.210937-2.941406-7.070312-1.851563-1.863281-4.429688-2.933594-7.0625-2.933594zm0 0"/><path d="m327.246094 391.289062c2.644531 0 5.210937-1.0625 7.082031-2.933593 1.859375-1.859375 2.929687-4.4375 2.929687-7.066407 0-2.632812-1.070312-5.203124-2.929687-7.070312-1.871094-1.863281-4.4375-2.933594-7.082031-2.933594-2.628906 0-5.207032 1.070313-7.066406 2.933594-1.863282 1.859375-2.933594 4.4375-2.933594 7.070312 0 2.640626 1.070312 5.207032 2.933594 7.066407 1.859374 1.871093 4.4375 2.933593 7.066406 2.933593zm0 0"/><path d="m184.988281 184.488281c2.632813 0 5.210938-1.070312 7.070313-2.933593 1.863281-1.871094 2.929687-4.449219 2.929687-7.078126 0-2.632812-1.066406-5.199218-2.929687-7.0625-1.859375-1.871093-4.4375-2.929687-7.070313-2.929687-2.628906 0-5.210937 1.058594-7.066406 2.929687-1.863281 1.851563-2.933594 4.429688-2.933594 7.0625 0 2.640626 1.070313 5.207032 2.933594 7.078126 1.855469 1.859374 4.4375 2.933593 7.066406 2.933593zm0 0"/><path d="m250.414062 184.488281c2.628907 0 5.210938-1.070312 7.070313-2.933593 1.859375-1.871094 2.929687-4.449219 2.929687-7.078126 0-2.632812-1.070312-5.199218-2.929687-7.0625-1.859375-1.871093-4.441406-2.929687-7.070313-2.929687-2.632812 0-5.210937 1.058594-7.070312 2.929687-1.859375 1.851563-2.929688 4.429688-2.929688 7.0625 0 2.640626 1.070313 5.207032 2.929688 7.078126 1.859375 1.859374 4.4375 2.933593 7.070312 2.933593zm0 0"/><path d="m218.28125 404.527344c-2.628906 0-5.210938 1.070312-7.082031 2.933594-1.855469 1.855468-2.917969 4.4375-2.917969 7.066406 0 2.640625 1.0625 5.210937 2.917969 7.070312 1.871093 1.871094 4.453125 2.929688 7.082031 2.929688s5.199219-1.058594 7.070312-2.929688c1.859376-1.859375 2.929688-4.429687 2.929688-7.070312 0-2.628906-1.070312-5.210938-2.929688-7.066406-1.871093-1.863282-4.441406-2.933594-7.070312-2.933594zm0 0"/></svg>