<svg height="512pt" viewBox="0 -60 512.00311 512" width="512pt" xmlns="http://www.w3.org/2000/svg"><path d="m110.023438 105.117188v-26.910157h5.109374c12.335938 0 23.019532-9.226562 24.105469-21.515625 1.238281-14.039062-9.792969-25.816406-23.570312-25.816406-.058594 0-.113281.003906-.167969.003906-1.382812-11.753906-11.371094-20.878906-23.5-20.878906-12.125 0-22.113281 9.125-23.496094 20.878906-.054687 0-.109375-.003906-.167968-.003906-13.78125 0-24.8125 11.777344-23.570313 25.816406 1.082031 12.289063 11.765625 21.515625 24.105469 21.515625h5.109375v26.910157zm0 0" fill="#cbe558"/><path d="m157.332031 159.84375c0-31.328125-29.25-56.722656-65.332031-56.722656s-65.332031 25.394531-65.332031 56.722656 37.902343 197.4375 65.332031 197.4375 65.332031-166.109375 65.332031-197.4375zm0 0" fill="#ff765b"/><path d="m274.019531 105.117188v-26.910157h5.109375c12.339844 0 23.023438-9.226562 24.109375-21.515625 1.238281-14.039062-9.792969-25.816406-23.574219-25.816406-.054687 0-.113281.003906-.167968.003906-1.378906-11.753906-11.371094-20.878906-23.496094-20.878906s-22.117188 9.125-23.496094 20.878906c-.058594 0-.113281-.003906-.167968-.003906-13.78125 0-24.8125 11.777344-23.574219 25.816406 1.085937 12.289063 11.769531 21.515625 24.105469 21.515625h5.109374v26.910157zm0 0" fill="#cbe558"/><path d="m321.332031 159.84375c0-31.328125-29.25-56.722656-65.332031-56.722656s-65.332031 25.394531-65.332031 56.722656 37.902343 197.4375 65.332031 197.4375 65.332031-166.109375 65.332031-197.4375zm0 0" fill="#ff765b"/><path d="m438.019531 105.117188v-26.910157h5.109375c12.335938 0 23.019532-9.226562 24.105469-21.515625 1.238281-14.039062-9.789063-25.816406-23.570313-25.816406-.058593 0-.113281.003906-.167968.003906-1.382813-11.753906-11.371094-20.878906-23.496094-20.878906-12.128906 0-22.117188 9.125-23.5 20.878906-.054688 0-.109375-.003906-.167969-.003906-13.78125 0-24.808593 11.777344-23.570312 25.816406 1.085937 12.289063 11.769531 21.515625 24.105469 21.515625h5.109374v26.910157zm0 0" fill="#cbe558"/><path d="m485.328125 159.84375c0-31.328125-29.25-56.722656-65.332031-56.722656-36.082032 0-65.332032 25.394531-65.332032 56.722656s37.902344 197.4375 65.332032 197.4375c27.433594 0 65.332031-166.109375 65.332031-197.4375zm0 0" fill="#ff765b"/><path d="m10 284.589844c13.441406-32.027344 45.09375-54.519532 82-54.519532s68.558594 22.492188 82 54.519532c13.441406-32.027344 45.089844-54.519532 82-54.519532 36.90625 0 68.554688 22.492188 82 54.519532 13.441406-32.027344 45.089844-54.519532 81.996094-54.519532 36.910156 0 68.558594 22.496094 82 54.519532v97.605468h-491.996094zm0 0" fill="#dca98b"/><path d="m107.5 188.117188c0-5.523438-4.476562-10-10-10h-11c-5.519531 0-10 4.476562-10 10 0 5.519531 4.480469 10 10 10h11c5.523438 0 10-4.480469 10-10zm0 0"/><path d="m271.5 188.117188c0-5.523438-4.480469-10-10-10h-11c-5.523438 0-10 4.476562-10 10 0 5.519531 4.476562 10 10 10h11c5.519531 0 10-4.480469 10-10zm0 0"/><path d="m435.496094 188.117188c0-5.523438-4.476563-10-10-10h-11c-5.519532 0-10 4.476562-10 10 0 5.519531 4.480468 10 10 10h11c5.523437 0 10-4.480469 10-10zm0 0"/><path d="m6.132812 293.808594c5.089844 2.136718 10.953126-.257813 13.089844-5.351563 6.03125-14.371093 15.949219-26.242187 28.226563-34.640625.359375-.210937.703125-.445312 1.03125-.699218 12.628906-8.34375 27.664062-13.046876 43.519531-13.046876 15.859375 0 30.894531 4.703126 43.523438 13.046876.328124.253906.667968.488281 1.027343.699218 12.28125 8.398438 22.199219 20.269532 28.230469 34.640625 1.558594 3.714844 5.191406 6.132813 9.21875 6.132813 4.03125 0 7.664062-2.417969 9.222656-6.132813 6.03125-14.371093 15.949219-26.242187 28.230469-34.640625.355469-.210937.699219-.445312 1.027344-.699218 12.628906-8.34375 27.664062-13.046876 43.519531-13.046876 15.859375 0 30.894531 4.703126 43.523438 13.046876.328124.253906.667968.488281 1.027343.699218 12.28125 8.398438 22.199219 20.269532 28.230469 34.640625 1.558594 3.714844 5.191406 6.132813 9.222656 6.132813 4.027344 0 7.660156-2.417969 9.21875-6.132813 6.03125-14.371093 15.949219-26.242187 28.230469-34.640625.359375-.210937.699219-.445312 1.027344-.699218 12.628906-8.34375 27.664062-13.046876 43.519531-13.046876s30.894531 4.703126 43.523438 13.046876c.324218.253906.667968.488281 1.027343.699218 12.277344 8.398438 22.195313 20.269532 28.230469 34.640625 1.605469 3.828125 5.316406 6.132813 9.222656 6.132813 1.289063 0 2.605469-.25 3.867188-.78125 5.09375-2.136719 7.488281-7.996094 5.351562-13.089844-6.699218-15.960938-17.222656-29.46875-30.242187-39.660156 8.53125-35.074219 14.355469-67.847656 14.355469-81.214844 0-28.019531-19.613282-52.046875-47.3125-61.917969v-10.066406c15.394531-2.21875 27.804687-14.726563 29.175781-30.289063.832031-9.425781-2.335938-18.8125-8.695313-25.757812-4.566406-4.988281-10.515625-8.445312-16.988281-10.003906-4.828125-12.855469-17.226563-21.808594-31.515625-21.808594-14.285156 0-26.6875 8.953125-31.511719 21.808594-6.476562 1.558594-12.425781 5.019531-16.988281 10.003906-6.359375 6.945312-9.527344 16.332031-8.695312 25.757812 1.371093 15.5625 13.777343 28.070313 29.175781 30.289063v10.066406c-27.699219 9.871094-47.3125 33.898438-47.3125 61.917969 0 13.367188 5.824219 46.144531 14.355469 81.214844-8.070313 6.320312-15.1875 13.90625-21.019532 22.570312-5.835937-8.664062-12.953125-16.25-21.023437-22.570312 8.53125-35.070313 14.355469-67.847656 14.355469-81.214844 0-28.019531-19.613282-52.046875-47.3125-61.917969v-10.066406c15.394531-2.21875 27.804687-14.726563 29.179687-30.289063.832031-9.425781-2.339844-18.8125-8.699219-25.757812-4.5625-4.988281-10.511718-8.445312-16.988281-10.003906-4.824219-12.855469-17.226563-21.808594-31.511719-21.808594-14.289062 0-26.6875 8.953125-31.515625 21.808594-6.476562 1.558594-12.421875 5.015625-16.988281 10.003906-6.359375 6.945312-9.527344 16.332031-8.695312 25.757812 1.371093 15.5625 13.78125 28.070313 29.175781 30.289063v10.066406c-27.695313 9.871094-47.308594 33.898438-47.308594 61.917969 0 13.367188 5.820313 46.144531 14.351563 81.214844-8.070313 6.320312-15.183594 13.90625-21.019532 22.570312-5.835937-8.664062-12.949218-16.25-21.019531-22.570312 8.53125-35.070313 14.351563-67.847656 14.351563-81.214844 0-28.019531-19.613282-52.046875-47.3125-61.917969v-10.066406c15.398437-2.21875 27.804687-14.726563 29.179687-30.289063.832031-9.425781-2.339844-18.8125-8.695313-25.757812-4.566406-4.988281-10.515624-8.445312-16.988281-10.003906-4.828125-12.855469-17.226562-21.808594-31.515625-21.808594-14.289062 0-26.6875 8.953125-31.515625 21.808594-6.472656 1.558594-12.421875 5.019531-16.984375 10.003906-6.359375 6.945312-9.53125 16.332031-8.699218 25.757812 1.375 15.5625 13.78125 28.070313 29.179687 30.289063v10.066406c-27.699219 9.871094-47.3125 33.898438-47.3125 61.917969 0 13.367188 5.824219 46.140625 14.351563 81.214844-13.015626 10.191406-23.539063 23.699218-30.238282 39.660156-2.144531 5.09375.253906 10.953125 5.347656 13.089844zm395.84375-225.601563h-5.109374c-7.320313 0-13.53125-5.441406-14.148438-12.394531-.34375-3.90625.90625-7.636719 3.527344-10.496094 2.601562-2.839844 6.140625-4.414062 9.984375-4.441406.09375.003906.195312.003906.269531.003906 5.070312 0 9.339844-3.796875 9.929688-8.832031.808593-6.867187 6.640624-12.042969 13.566406-12.042969 6.925781 0 12.757812 5.175782 13.566406 12.042969.601562 5.128906 4.980469 9.003906 10.210938 8.828125 3.835937.027344 7.375 1.605469 9.972656 4.441406 2.621094 2.859375 3.871094 6.589844 3.527344 10.496094-.613282 6.949219-6.828126 12.394531-14.144532 12.394531h-5.109375c-5.523437 0-10 4.480469-10 10v15.296875c-2.636719-.25-5.3125-.382812-8.023437-.382812-2.710938 0-5.382813.132812-8.019532.382812v-15.296875c0-5.523437-4.476562-10-10-10zm-37.3125 91.636719c0-.800781.023438-1.601562.074219-2.394531h16.925781c5.523438 0 10-4.476563 10-10 0-5.519531-4.476562-10-10-10h-10.214843c9.40625-14.484375 27.640625-24.328125 48.546875-24.328125 27.203125 0 49.867187 16.664062 54.464844 38.535156-.261719-.019531-.527344-.039062-.796876-.039062h-14.332031c-5.523437 0-10 4.476562-10 10 0 5.519531 4.476563 10 10 10h14.332031c.226563 0 .449219-.019532.675782-.035157-1.691406 13.195313-5.515625 33.953125-11.257813 58.332031-13.15625-6.355468-27.8125-9.84375-43.082031-9.84375-15.273438 0-29.929688 3.484376-43.085938 9.839844-7.976562-33.851562-12.25-60.726562-12.25-70.066406zm-126.6875-91.636719h-5.109374c-7.316407 0-13.53125-5.441406-14.144532-12.394531-.347656-3.90625.90625-7.636719 3.523438-10.496094 2.601562-2.839844 6.144531-4.414062 9.984375-4.441406.097656.003906.199219.003906.269531.003906 5.070312 0 9.339844-3.796875 9.933594-8.832031.804687-6.867187 6.636718-12.042969 13.5625-12.042969 6.929687 0 12.761718 5.175782 13.566406 12.042969.601562 5.128906 4.980469 9.003906 10.210938 8.828125 3.839843.027344 7.375 1.605469 9.976562 4.441406 2.617188 2.859375 3.871094 6.589844 3.523438 10.496094-.613282 6.949219-6.824219 12.394531-14.144532 12.394531h-5.109375c-5.523437 0-10 4.480469-10 10v15.296875c-2.636719-.25-5.3125-.382812-8.023437-.382812-2.707032 0-5.382813.132812-8.019532.382812v-15.296875c0-5.523437-4.476562-10-10-10zm-37.308593 91.636719c0-.800781.023437-1.601562.070312-2.394531h16.929688c5.519531 0 10-4.476563 10-10 0-5.519531-4.480469-10-10-10h-10.21875c9.410156-14.484375 27.640625-24.328125 48.550781-24.328125 27.199219 0 49.863281 16.664062 54.464844 38.535156-.265625-.019531-.53125-.039062-.800782-.039062h-14.332031c-5.523437 0-10 4.476562-10 10 0 5.519531 4.476563 10 10 10h14.332031c.230469 0 .453126-.019532.675782-.035157-1.6875 13.195313-5.511719 33.957031-11.257813 58.332031-13.15625-6.355468-27.8125-9.84375-43.082031-9.84375s-29.929688 3.488282-43.082031 9.84375c-7.980469-33.855468-12.25-60.730468-12.25-70.070312zm-126.691407-91.636719h-5.109374c-7.316407 0-13.53125-5.441406-14.144532-12.394531-.34375-3.90625.90625-7.636719 3.527344-10.496094 2.601562-2.839844 6.140625-4.414062 9.980469-4.441406.097656.003906.199219.003906.269531.003906 5.074219 0 9.339844-3.796875 9.933594-8.832031.808594-6.867187 6.640625-12.042969 13.566406-12.042969s12.757812 5.175782 13.5625 12.042969c.605469 5.128906 4.980469 9.003906 10.210938 8.828125 3.839843.027344 7.378906 1.605469 9.976562 4.441406 2.621094 2.859375 3.871094 6.589844 3.527344 10.496094-.613282 6.949219-6.828125 12.394531-14.148438 12.394531h-5.109375c-5.519531 0-10 4.480469-10 10v15.296875c-2.636719-.25-5.3125-.382812-8.019531-.382812-2.710938 0-5.386719.132812-8.023438.382812v-15.296875c0-5.523437-4.476562-10-10-10zm-37.308593 91.636719c0-.800781.023437-1.601562.070312-2.394531h16.929688c5.523437 0 10-4.476563 10-10 0-5.519531-4.476563-10-10-10h-10.21875c9.410156-14.484375 27.644531-24.328125 48.550781-24.328125 27.203125 0 49.863281 16.664062 54.464844 38.535156-.265625-.019531-.527344-.039062-.796875-.039062h-14.335938c-5.519531 0-10 4.476562-10 10 0 5.519531 4.480469 10 10 10h14.335938c.226562 0 .449219-.019532.671875-.035157-1.6875 13.195313-5.511719 33.957031-11.257813 58.332031-13.152343-6.355468-27.8125-9.84375-43.082031-9.84375s-29.929688 3.488282-43.082031 9.84375c-7.980469-33.855468-12.25-60.730468-12.25-70.070312zm0 0"/><path d="m501.996094 372.195312h-205.996094c-5.523438 0-10 4.480469-10 10 0 5.523438 4.476562 10 10 10h205.996094c5.523437 0 10-4.476562 10-10 0-5.519531-4.476563-10-10-10zm0 0"/><path d="m216 372.195312h-206c-5.519531 0-10 4.480469-10 10 0 5.523438 4.480469 10 10 10h206c5.519531 0 10-4.476562 10-10 0-5.519531-4.480469-10-10-10zm0 0"/><path d="m256 372.195312c-2.632812 0-5.210938 1.070313-7.070312 2.933594-1.859376 1.859375-2.929688 4.4375-2.929688 7.066406 0 2.632813 1.066406 5.210938 2.929688 7.070313 1.859374 1.859375 4.4375 2.929687 7.070312 2.929687 2.628906 0 5.207031-1.066406 7.066406-2.929687 1.863282-1.859375 2.933594-4.4375 2.933594-7.070313 0-2.628906-1.070312-5.207031-2.933594-7.066406-1.859375-1.863281-4.4375-2.933594-7.066406-2.933594zm0 0"/></svg>