<svg height="512pt" viewBox="0 -54 512 512" width="512pt" xmlns="http://www.w3.org/2000/svg"><path d="m141.335938 10h-118.101563c-7.308594 0-13.234375 5.925781-13.234375 13.234375v316.609375h294.605469c0-44.292969-30.558594-82.730469-73.710938-92.714844l-42.574219-9.855468c-19.761718-4.574219-33.753906-22.175782-33.753906-42.457032v-171.582031c.003906-7.308594-5.921875-13.234375-13.230468-13.234375zm0 0" fill="#79b2ff"/><path d="m304.605469 339.84375v54.144531h-24.03125l-12.957031-12.960937h-18.488282l-12.96875 12.972656h-18.90625l-13.382812-12.964844v-.007812h-15.527344l-12.972656 12.972656h-17.855469l-19.53125-19.65625h-12.175781l-20.074219 19.65625h-22.574219l-12.96875-12.972656h-21.320312l-12.957032 12.960937h-25.914062v-54.144531zm0 0" fill="#ffcb7c"/><path d="m338.734375 10h-118.105469c-7.308594 0-13.234375 5.925781-13.234375 13.234375v316.609375h294.605469c0-44.292969-30.554688-82.730469-73.707031-92.714844l-42.578125-9.855468c-19.757813-4.574219-33.75-22.175782-33.75-42.457032v-171.582031c0-7.308594-5.925782-13.234375-13.230469-13.234375zm0 0" fill="#9bc6ff"/><path d="m502 339.84375v54.144531h-24.027344l-12.960937-12.960937h-18.484375l-12.972656 12.972656h-18.90625l-13.382813-12.964844v-.007812h-15.527344l-12.96875 12.972656h-17.855469l-19.535156-19.65625h-12.175781l-20.074219 19.65625h-22.570312l-12.972656-12.972656h-21.316407l-12.957031 12.960937h-25.917969v-54.144531zm0 0" fill="#ffd89e"/><path d="m489.15625 274.398438c-14.730469-18.53125-35.546875-31.675782-58.609375-37.015626l-42.574219-9.855468c-15.3125-3.542969-26.007812-16.996094-26.007812-32.710938v-171.585937c0-12.808594-10.421875-23.230469-23.230469-23.230469h-19.058594c-5.523437 0-10 4.476562-10 10s4.476563 10 10 10h19.058594c1.78125 0 3.230469 1.449219 3.230469 3.230469v36.488281h-124.570313v-36.488281c0-1.78125 1.453125-3.230469 3.234375-3.230469h19.050782c5.523437 0 10-4.476562 10-10s-4.476563-10-10-10h-19.050782c-12.8125 0-23.234375 10.421875-23.234375 23.230469v205.878906l-6.820312-1.582031c-15.3125-3.542969-26.003907-16.996094-26.003907-32.710938v-171.585937c0-12.808594-10.421874-23.230469-23.234374-23.230469h-118.105469c-12.808594 0-23.230469 10.421875-23.230469 23.230469v370.757812c0 5.519531 4.476562 10 10 10h25.914062c2.652344 0 5.195313-1.054687 7.070313-2.929687l10.03125-10.03125h13.03125l10.042969 10.042968c1.875 1.875 4.417968 2.929688 7.070312 2.929688h22.570313c2.617187 0 5.128906-1.023438 6.996093-2.855469l17.160157-16.800781h3.933593l16.601563 16.707031c1.878906 1.886719 4.429687 2.949219 7.09375 2.949219h17.855469c2.652344 0 5.195312-1.054688 7.070312-2.929688l10.042969-10.042968h4.910156v2.960937c0 5.519531 4.476563 10 10 10h25.914063c2.652344 0 5.195312-1.054687 7.074218-2.929687l10.027344-10.03125h13.03125l10.042969 10.042968c1.875 1.875 4.417969 2.929688 7.070313 2.929688h22.570312c2.617188 0 5.128906-1.023438 6.996094-2.855469l17.160156-16.800781h3.9375l16.597656 16.707031c1.878906 1.886719 4.429688 2.949219 7.09375 2.949219h17.855469c2.652344 0 5.195313-1.054688 7.070313-2.929688l10.042968-10.042968h7.328125l10.480469 10.15625c1.867188 1.804687 4.359375 2.816406 6.957031 2.816406h18.90625c2.652344 0 5.195313-1.054688 7.070313-2.929688l10.042968-10.042968h10.203126l10.027343 10.03125c1.878907 1.875 4.421875 2.925781 7.074219 2.925781h24.03125c5.523438 0 10-4.476563 10-10v-54.140625c0-23.671875-8.113281-46.914062-22.84375-65.445312zm-105.695312-27.382813 42.574218 9.851563c35.546875 8.230468 61.28125 37.511718 65.390625 72.976562h-274.03125v-48.242188h8.527344c31.09375 0 59.449219-19.515624 70.554687-48.5625 7.40625-19.375 25.25-32.980468 45.574219-35.339843 1.25 23.824219 17.921875 43.878906 41.410157 49.316406zm-41.496094-167.292969v97.894532c-28.535156 2.460937-53.832032 21.234374-64.167969 48.28125-8.167969 21.355468-29.015625 35.703124-51.875 35.703124h-8.523437v-181.878906zm-155.902344 167.292969 11.332031 2.621094v80.207031h-177.394531v-48.242188h8.523438c31.097656 0 59.453124-19.515624 70.554687-48.5625 7.410156-19.375 25.253906-32.980468 45.574219-35.339843 1.253906 23.824219 17.921875 43.878906 41.410156 49.316406zm-41.492188-69.398437c-28.539062 2.460937-53.832031 21.234374-64.171874 48.28125-8.164063 21.355468-29.011719 35.703124-51.875 35.703124h-8.523438v-181.878906h124.570312zm-121.339843-157.617188h118.105469c1.78125 0 3.230468 1.449219 3.230468 3.230469v36.488281h-124.566406v-36.488281c0-1.78125 1.449219-3.230469 3.230469-3.230469zm165.113281 351.027344c-2.652344 0-5.195312 1.054687-7.070312 2.929687l-10.042969 10.042969h-9.554688l-16.597656-16.703125c-1.878906-1.890625-4.433594-2.953125-7.09375-2.953125h-12.179687c-2.617188 0-5.128907 1.023438-6.996094 2.855469l-17.15625 16.800781h-14.347656l-10.042969-10.042969c-1.875-1.875-4.417969-2.929687-7.070313-2.929687h-21.320312c-2.648438 0-5.191406 1.054687-7.070313 2.929687l-10.027343 10.03125h-11.773438v-34.144531h177.394531v21.183594zm293.769531 12.960937-10.027343-10.03125c-1.875-1.875-4.421876-2.929687-7.070313-2.929687h-18.488281c-2.652344 0-5.195313 1.054687-7.070313 2.929687l-10.042969 10.042969h-10.714843l-10.269531-9.949219c-1.816407-1.863281-4.355469-3.019531-7.164063-3.019531h-15.527344c-2.652343 0-5.195312 1.054688-7.070312 2.929688l-10.042969 10.039062h-9.550781l-16.601563-16.703125c-1.878906-1.890625-4.429687-2.953125-7.09375-2.953125h-12.175781c-2.617187 0-5.128906 1.023438-6.996094 2.855469l-17.160156 16.800781h-14.347656l-10.042969-10.042969c-1.875-1.875-4.417969-2.929687-7.070312-2.929687h-21.316407c-2.652343 0-5.195312 1.054687-7.070312 2.929687l-10.027344 10.03125h-11.773437v-34.144531h274.601562v34.144531zm0 0"/><path d="m279.679688 20c2.628906 0 5.210937-1.070312 7.070312-2.929688 1.859375-1.859374 2.929688-4.441406 2.929688-7.070312s-1.070313-5.210938-2.929688-7.070312c-1.859375-1.859376-4.441406-2.929688-7.070312-2.929688-2.628907 0-5.210938 1.070312-7.070313 2.929688-1.859375 1.859374-2.929687 4.441406-2.929687 7.070312s1.070312 5.210938 2.929687 7.070312c1.859375 1.859376 4.441406 2.929688 7.070313 2.929688zm0 0"/></svg>