<svg height="512pt" viewBox="0 -54 512 512" width="512pt" xmlns="http://www.w3.org/2000/svg"><path d="m305.332031 10h-108c-53.019531 0-96 42.980469-96 96s42.980469 96 96 96h108zm0 0" fill="#ffcb7c"/><path d="m405.984375 202h-299.984375c-53.019531 0-96 42.980469-96 96s42.980469 96 96 96h299.984375zm0 0" fill="#ffc15a"/><path d="m401.332031 106c0 53.019531-42.980469 96-96 96s-96-42.980469-96-96 42.980469-96 96-96 96 42.980469 96 96zm0 0" fill="#ffd89e"/><path d="m361.332031 106c0 30.929688-25.070312 56-56 56-30.925781 0-56-25.070312-56-56s25.074219-56 56-56c30.929688 0 56 25.070312 56 56zm0 0" fill="#ffc15a"/><path d="m325.332031 106c0 11.046875-8.953125 20-20 20-11.042969 0-20-8.953125-20-20s8.957031-20 20-20c11.046875 0 20 8.953125 20 20zm0 0" fill="#ffd89e"/><path d="m310 298c0 53.019531-42.980469 96-96 96s-96-42.980469-96-96 42.980469-96 96-96 96 42.980469 96 96zm0 0" fill="#ffd89e"/><path d="m270 298c0 30.929688-25.070312 56-56 56s-56-25.070312-56-56 25.070312-56 56-56 56 25.070312 56 56zm0 0" fill="#ffc15a"/><path d="m234 298c0 11.046875-8.953125 20-20 20s-20-8.953125-20-20 8.953125-20 20-20 20 8.953125 20 20zm0 0" fill="#ffd89e"/><path d="m502 298c0 53.019531-42.980469 96-96 96s-96-42.980469-96-96 42.980469-96 96-96 96 42.980469 96 96zm0 0" fill="#ffd89e"/><path d="m462 298c0 30.929688-25.070312 56-56 56s-56-25.070312-56-56 25.070312-56 56-56 56 25.070312 56 56zm0 0" fill="#ffc15a"/><path d="m426 298c0 11.046875-8.953125 20-20 20s-20-8.953125-20-20 8.953125-20 20-20 20 8.953125 20 20zm0 0" fill="#ffd89e"/><path d="m305.332031 172c36.394531 0 66-29.605469 66-66s-29.605469-66-66-66c-36.390625 0-66 29.609375-66 66s29.609375 66 66 66zm0-112c25.363281 0 46 20.636719 46 46s-20.636719 46-46 46-46-20.636719-46-46 20.636719-46 46-46zm0 0"/><path d="m305.332031 136c16.542969 0 30-13.457031 30-30s-13.457031-30-30-30-30 13.457031-30 30 13.460938 30 30 30zm0-40c5.515625 0 10 4.484375 10 10s-4.484375 10-10 10c-5.511719 0-10-4.484375-10-10s4.488281-10 10-10zm0 0"/><path d="m214 232c-36.394531 0-66 29.605469-66 66 0 36.390625 29.609375 66 66 66s66-29.609375 66-66c0-36.394531-29.605469-66-66-66zm0 112c-25.363281 0-46-20.636719-46-46s20.636719-46 46-46 46 20.636719 46 46-20.636719 46-46 46zm0 0"/><path d="m214 268c-16.542969 0-30 13.457031-30 30s13.457031 30 30 30 30-13.457031 30-30-13.457031-30-30-30zm0 40c-5.515625 0-10-4.484375-10-10s4.484375-10 10-10 10 4.484375 10 10-4.484375 10-10 10zm0 0"/><path d="m406 192h-38.773438c26.699219-19.265625 44.109376-50.636719 44.109376-86 0-58.449219-47.554688-106-106-106h-108c-41.316407 0-79.148438 24.269531-96.386719 61.828125-2.300781 5.019531-.101563 10.957031 4.917969 13.261719 1.351562.621094 2.769531.914062 4.164062.914062 3.789062 0 7.414062-2.164062 9.097656-5.832031 13.984375-30.480469 44.683594-50.171875 78.203125-50.171875h46.105469c-26.695312 19.265625-44.105469 50.636719-44.105469 86s17.410157 66.734375 44.105469 86h-29.398438c-.015624 0-.027343 0-.039062 0h-16.695312c-33.507813-.011719-64.191407-19.699219-78.175782-50.167969-2.304687-5.019531-8.238281-7.21875-13.261718-4.917969-5.019532 2.304688-7.21875 8.242188-4.917969 13.261719 7.8125 17.011719 19.855469 31.285157 34.523437 41.824219h-29.472656c-58.449219 0-106 47.550781-106 106s47.550781 106 106 106h300c58.449219 0 106-47.550781 106-106s-47.550781-106-106-106zm-61.894531 20c-14.582031 10.523438-26.390625 24.660156-34.105469 41.089844-7.714844-16.429688-19.523438-30.566406-34.105469-41.089844h29.4375.039063zm-130.105469 172c-47.421875 0-86-38.578125-86-86 0-47.414062 38.570312-85.988281 85.980469-86h.039062c47.410157.011719 85.980469 38.585938 85.980469 86 0 47.421875-38.578125 86-86 86zm5.332031-278c0-47.421875 38.582031-86 86-86 47.421875 0 86 38.578125 86 86 0 47.414062-38.566406 85.988281-85.980469 86h-.039062c-47.410156-.011719-85.980469-38.585938-85.980469-86zm-113.332031 278c-47.421875 0-86-38.578125-86-86s38.578125-86 86-86h46.105469c-26.695313 19.265625-44.105469 50.636719-44.105469 86s17.410156 66.734375 44.105469 86zm169.894531 0c14.582031-10.523438 26.390625-24.660156 34.105469-41.089844 7.714844 16.429688 19.523438 30.566406 34.105469 41.089844zm130.105469 0c-47.421875 0-86-38.578125-86-86s38.578125-86 86-86 86 38.578125 86 86-38.578125 86-86 86zm0 0"/><path d="m406 232c-36.394531 0-66 29.605469-66 66 0 36.390625 29.609375 66 66 66s66-29.609375 66-66c0-36.394531-29.605469-66-66-66zm0 112c-25.363281 0-46-20.636719-46-46s20.636719-46 46-46 46 20.636719 46 46-20.636719 46-46 46zm0 0"/><path d="m406 268c-16.542969 0-30 13.457031-30 30s13.457031 30 30 30 30-13.457031 30-30-13.457031-30-30-30zm0 40c-5.515625 0-10-4.484375-10-10s4.484375-10 10-10 10 4.484375 10 10-4.484375 10-10 10zm0 0"/><path d="m101.328125 116c2.640625 0 5.210937-1.070312 7.070313-2.929688 1.871093-1.859374 2.929687-4.441406 2.929687-7.070312s-1.058594-5.210938-2.929687-7.070312c-1.859376-1.859376-4.429688-2.929688-7.070313-2.929688-2.628906 0-5.207031 1.070312-7.066406 2.929688-1.863281 1.859374-2.933594 4.441406-2.933594 7.070312s1.070313 5.210938 2.933594 7.070312c1.859375 1.859376 4.4375 2.929688 7.066406 2.929688zm0 0"/></svg>