<svg height="512pt" viewBox="0 0 512 512.0005" width="512pt" xmlns="http://www.w3.org/2000/svg"><path d="m410.5 194h-309c-50.535156 0-91.5 40.964844-91.5 91.5v4.5c11.878906 13.871094 29.507812 22.667969 49.199219 22.667969 19.695312 0 37.320312-8.796875 49.199219-22.667969 11.882812 13.871094 29.507812 22.667969 49.203124 22.667969 19.691407 0 37.320313-8.796875 49.199219-22.667969 11.878907 13.871094 29.507813 22.667969 49.199219 22.667969s37.320312-8.796875 49.199219-22.667969c11.878906 13.871094 29.507812 22.667969 49.199219 22.667969 19.695312 0 37.320312-8.796875 49.203124-22.667969 11.878907 13.871094 29.503907 22.667969 49.199219 22.667969 19.691407 0 37.320313-8.796875 49.199219-22.667969v-4.5c0-50.535156-40.964844-91.5-91.5-91.5zm0 0" fill="#dca98b"/><g fill="#cbe558"><path d="m125.910156 61.261719c0 21.585937 11.296875 40.523437 28.285156 51.261719 16.992188-10.738282 28.285157-29.675782 28.285157-51.261719 0-21.585938-11.292969-40.523438-28.285157-51.261719-16.992187 10.738281-28.285156 29.675781-28.285156 51.261719zm0 0"/><path d="m171.9375 96.261719c-15.261719 15.265625-20.667969 36.640625-16.246094 56.246093 19.609375 4.421876 40.984375-.980468 56.246094-16.246093 15.265625-15.261719 20.667969-36.640625 16.246094-56.246094-19.605469-4.421875-40.980469.980469-56.246094 16.246094zm0 0"/><path d="m136.453125 96.261719c15.265625 15.265625 20.667969 36.640625 16.246094 56.246093-19.605469 4.421876-40.984375-.980468-56.246094-16.246093-15.265625-15.261719-20.667969-36.640625-16.246094-56.246094 19.605469-4.421875 40.980469.980469 56.246094 16.246094zm0 0"/><path d="m329.519531 61.261719c0 21.585937 11.292969 40.523437 28.285157 51.261719 16.992187-10.738282 28.285156-29.675782 28.285156-51.261719 0-21.585938-11.292969-40.523438-28.285156-51.261719-16.992188 10.738281-28.285157 29.675781-28.285157 51.261719zm0 0"/><path d="m375.546875 96.261719c-15.261719 15.265625-20.667969 36.640625-16.246094 56.246093 19.609375 4.421876 40.984375-.980468 56.246094-16.246093 15.265625-15.261719 20.667969-36.640625 16.246094-56.246094-19.605469-4.421875-40.984375.980469-56.246094 16.246094zm0 0"/><path d="m340.0625 96.261719c15.265625 15.265625 20.667969 36.640625 16.246094 56.246093-19.605469 4.421876-40.984375-.980468-56.246094-16.246093-15.265625-15.261719-20.667969-36.640625-16.246094-56.246094 19.605469-4.421875 40.980469.980469 56.246094 16.246094zm0 0"/></g><path d="m118.128906 429.820312c-28.738281 0-54.132812 14.265626-69.535156 36.089844 15.402344 21.824219 40.796875 36.089844 69.535156 36.089844 28.742188 0 54.136719-14.265625 69.539063-36.089844-15.402344-21.824218-40.796875-36.089844-69.539063-36.089844zm0 0" fill="#b0e7f8"/><path d="m15.367188 432.683594 33.226562 33.226562-33.226562 33.222656c-1.980469 1.984376-5.367188.578126-5.367188-2.222656v-62.003906c0-2.800781 3.386719-4.203125 5.367188-2.222656zm0 0" fill="#91def5"/><path d="m377.796875 429.820312c-28.742187 0-54.132813 14.265626-69.535156 36.089844 15.398437 21.824219 40.792969 36.089844 69.535156 36.089844s54.136719-14.265625 69.539063-36.089844c-15.402344-21.824218-40.796876-36.089844-69.539063-36.089844zm0 0" fill="#b0e7f8"/><path d="m275.035156 432.683594 33.226563 33.226562-33.226563 33.222656c-1.980468 1.984376-5.367187.578126-5.367187-2.222656v-62.003906c0-2.800781 3.386719-4.203125 5.367187-2.222656zm0 0" fill="#91def5"/><path d="m459.433594 342.640625c-4.195313-3.589844-10.507813-3.105469-14.101563 1.089844-10.4375 12.1875-25.601562 19.175781-41.605469 19.175781-16 0-31.167968-6.992188-41.605468-19.175781-1.898438-2.21875-4.675782-3.496094-7.59375-3.496094-2.921875 0-5.695313 1.277344-7.59375 3.496094-10.4375 12.1875-25.601563 19.175781-41.605469 19.175781-16 0-31.167969-6.992188-41.605469-19.175781-1.898437-2.21875-4.675781-3.496094-7.59375-3.496094-2.921875 0-5.695312 1.277344-7.59375 3.496094-10.441406 12.1875-25.605468 19.175781-41.605468 19.175781-16.003907 0-31.167969-6.992188-41.605469-19.175781-1.902344-2.21875-4.675781-3.496094-7.597657-3.496094-2.917968 0-5.691406 1.277344-7.59375 3.496094-10.4375 12.1875-25.601562 19.175781-41.605468 19.175781-16 0-31.164063-6.992188-41.601563-19.175781-3.59375-4.195313-9.90625-4.683594-14.101562-1.089844-4.195313 3.59375-4.683594 9.90625-1.089844 14.101563 14.242187 16.625 34.945313 26.164062 56.792969 26.164062 18.230468 0 35.65625-6.636719 49.199218-18.488281 13.546876 11.851562 30.976563 18.488281 49.203126 18.488281 18.226562 0 35.652343-6.636719 49.199218-18.488281 13.546875 11.851562 30.972656 18.488281 49.199219 18.488281s35.652344-6.636719 49.199219-18.488281c13.546875 11.851562 30.972656 18.488281 49.199218 18.488281 21.851563 0 42.550782-9.535156 56.796876-26.164062 3.589843-4.195313 3.105468-10.507813-1.089844-14.101563zm0 0"/><path d="m410.5 184h-42.695312v-20.175781c1.679687.117187 3.359374.199219 5.035156.199219 18.496094 0 36.351562-7.261719 49.78125-20.691407 17.21875-17.21875 24.296875-41.710937 18.929687-65.515625-.851562-3.765625-3.789062-6.707031-7.554687-7.558594-13.167969-2.96875-26.539063-2.125-38.777344 2.132813.574219-3.644531.871094-7.363281.871094-11.128906 0-24.355469-12.316406-46.679688-32.941406-59.714844-3.261719-2.0625-7.421876-2.0625-10.683594 0-20.628906 13.035156-32.945313 35.359375-32.945313 59.714844 0 3.765625.296875 7.484375.871094 11.128906-12.238281-4.257813-25.613281-5.101563-38.773437-2.132813-3.769532.851563-6.707032 3.792969-7.558594 7.558594-5.367188 23.800782 1.710937 48.292969 18.933594 65.515625 13.429687 13.429688 31.28125 20.691407 49.777343 20.691407 1.675781 0 3.355469-.082032 5.035157-.199219v20.175781h-51.804688c-5.523438 0-10 4.476562-10 10s4.476562 10 10 10h114.5c44.9375 0 81.5 36.5625 81.5 81.5v.625c-10.292969 10.554688-24.386719 16.542969-39.199219 16.542969-16.003906 0-31.167969-6.988281-41.605469-19.171875-1.898437-2.21875-4.675781-3.496094-7.59375-3.496094-2.921874 0-5.695312 1.277344-7.597656 3.496094-10.4375 12.183594-25.601562 19.171875-41.601562 19.171875-16.003906 0-31.167969-6.988281-41.605469-19.171875-1.902344-2.21875-4.675781-3.496094-7.59375-3.496094-2.921875 0-5.695313 1.277344-7.597656 3.496094-10.4375 12.183594-25.601563 19.171875-41.605469 19.171875-16 0-31.164062-6.988281-41.605469-19.171875-1.898437-2.21875-4.671875-3.496094-7.59375-3.496094-2.917969 0-5.695312 1.277344-7.59375 3.496094-10.4375 12.183594-25.605469 19.171875-41.605469 19.171875-16.003906 0-31.167968-6.988281-41.605468-19.171875-1.898438-2.21875-4.671875-3.496094-7.59375-3.496094s-5.695313 1.277344-7.59375 3.496094c-10.441406 12.183594-25.605469 19.171875-41.609375 19.171875-14.8125 0-28.90625-5.988281-39.199219-16.542969v-.625c0-44.9375 36.5625-81.5 81.5-81.5h114.5c5.523438 0 10-4.476562 10-10s-4.476562-10-10-10h-51.804688v-20.175781c1.683594.117187 3.359376.199219 5.035157.199219 18.496093 0 36.351562-7.261719 49.78125-20.691407 17.21875-17.222656 24.296875-41.714843 18.929687-65.515625-.851562-3.765625-3.789062-6.707031-7.554687-7.558594-13.167969-2.96875-26.539063-2.125-38.777344 2.132813.574219-3.644531.871094-7.363281.871094-11.128906 0-24.355469-12.316407-46.679688-32.941407-59.714844-3.265624-2.0625-7.421874-2.0625-10.6875 0-20.625 13.035156-32.941406 35.359375-32.941406 59.714844 0 3.765625.296875 7.484375.871094 11.128906-12.238281-4.257813-25.613281-5.101563-38.773438-2.132813-3.765624.851563-6.707031 3.792969-7.554687 7.558594-5.371094 23.800782 1.707031 48.296875 18.929687 65.515625 13.429688 13.429688 31.28125 20.691407 49.78125 20.691407 1.671876 0 3.351563-.082032 5.03125-.199219v20.175781h-42.695312c-55.964844 0-101.5 45.535156-101.5 101.5v4.5c0 2.386719.855469 4.695312 2.40625 6.503906 14.242188 16.628906 34.941406 26.164063 56.792969 26.164063 18.230469 0 35.65625-6.632813 49.199219-18.484375 13.546874 11.851562 30.972656 18.484375 49.199218 18.484375 18.230469 0 35.65625-6.632813 49.203125-18.484375 13.542969 11.851562 30.972657 18.484375 49.199219 18.484375s35.652344-6.632813 49.199219-18.484375c13.546875 11.851562 30.972656 18.484375 49.199219 18.484375 18.226562 0 35.65625-6.632813 49.199218-18.484375 13.546875 11.851562 30.972656 18.484375 49.199219 18.484375 21.851563 0 42.554687-9.535157 56.796875-26.164063 1.550781-1.808594 2.40625-4.117187 2.40625-6.503906v-4.5c0-55.964844-45.53125-101.5-101.5-101.5zm12.578125-95.269531c1.40625 14.933593-3.824219 29.6875-14.601563 40.460937-10.773437 10.773438-25.53125 16.003906-40.460937 14.601563-.132813-1.410157-.1875-2.816407-.203125-4.214844.003906-.527344 0-1.054687-.003906-1.578125.257812-12.902344 5.433594-25.292969 14.808594-34.667969 10.777343-10.777343 25.535156-16.003906 40.460937-14.601562zm-65.273437-66.402344c11.554687 9.5625 18.285156 23.695313 18.285156 38.933594s-6.730469 29.371093-18.285156 38.933593c-11.550782-9.5625-18.285157-23.695312-18.285157-38.933593s6.734375-29.371094 18.285157-38.933594zm-50.671876 106.863281c-10.773437-10.773437-16.007812-25.527344-14.601562-40.460937 14.925781-1.40625 29.683594 3.828125 40.460938 14.601562 9.378906 9.378907 14.550781 21.773438 14.808593 34.671875-.007812.519532-.011719 1.039063-.007812 1.554688-.015625 1.40625-.070313 2.820312-.203125 4.234375-14.929688 1.40625-29.683594-3.828125-40.457032-14.601563zm-87.664062-40.460937c1.40625 14.933593-3.824219 29.6875-14.601562 40.460937-10.773438 10.773438-25.527344 16.007813-40.457032 14.601563-.132812-1.414063-.1875-2.828125-.203125-4.234375.003907-.519532 0-1.035156-.007812-1.554688.257812-12.902344 5.429687-25.292968 14.8125-34.671875 10.773437-10.777343 25.535156-16.007812 40.457031-14.601562zm-65.273438-66.402344c11.554688 9.5625 18.285157 23.695313 18.285157 38.933594s-6.730469 29.371093-18.285157 38.933593c-11.554687-9.5625-18.285156-23.695312-18.285156-38.933593s6.734375-29.371094 18.285156-38.933594zm-50.671874 106.863281c-10.773438-10.773437-16.007813-25.527344-14.601563-40.460937 14.925781-1.40625 29.683594 3.828125 40.460937 14.601562 9.378907 9.378907 14.554688 21.777344 14.808594 34.679688-.007812.511719-.011718 1.023437-.007812 1.539062-.015625 1.410157-.070313 2.824219-.203125 4.242188-14.921875 1.402343-29.679688-3.828125-40.457031-14.601563zm0 0"/><path d="m118.128906 419.820312c-26.890625 0-52.421875 11.46875-70.335937 31.148438l-25.351563-25.355469h-.003906c-3.769531-3.773437-9.394531-4.886719-14.324219-2.847656-4.929687 2.039063-8.113281 6.808594-8.113281 12.144531v62c0 5.335938 3.183594 10.101563 8.113281 12.144532 1.636719.679687 3.347657 1.007812 5.042969 1.007812 3.414062 0 6.761719-1.335938 9.28125-3.855469l25.355469-25.355469c17.914062 19.679688 43.445312 31.148438 70.335937 31.148438 30.839844 0 59.890625-15.074219 77.707032-40.324219 2.441406-3.457031 2.441406-8.074219 0-11.53125-17.816407-25.25-46.867188-40.324219-77.707032-40.324219zm-98.128906 60.539063v-28.902344l14.453125 14.453125zm41.269531-14.449219c14.199219-16.457031 34.960938-26.089844 56.859375-26.089844 7.492188 0 14.839844 1.152344 21.84375 3.292969-8.011718 14.082031-8.011718 31.511719 0 45.59375-7.003906 2.140625-14.351562 3.292969-21.84375 3.292969-21.898437 0-42.664062-9.632812-56.859375-26.089844zm96.992188 14.394532c-5.753907-8.691407-5.753907-20.097657 0-28.792969 6.199219 3.929687 11.859375 8.75 16.730469 14.398437-4.871094 5.648438-10.53125 10.46875-16.730469 14.394532zm0 0"/><path d="m213.671875 427.089844c-2.632813 0-5.210937 1.0625-7.070313 2.921875-1.871093 1.867187-2.929687 4.4375-2.929687 7.078125 0 2.628906 1.058594 5.210937 2.929687 7.070312 1.859376 1.859375 4.429688 2.929688 7.070313 2.929688 2.628906 0 5.207031-1.070313 7.070313-2.929688 1.855468-1.871094 2.929687-4.441406 2.929687-7.070312 0-2.640625-1.070313-5.210938-2.929687-7.078125-1.863282-1.859375-4.441407-2.921875-7.070313-2.921875zm0 0"/><path d="m242.332031 394c-2.632812 0-5.210937 1.070312-7.070312 2.929688-1.863281 1.859374-2.929688 4.441406-2.929688 7.070312s1.066407 5.210938 2.929688 7.070312c1.859375 1.859376 4.4375 2.929688 7.070312 2.929688 2.636719 0 5.207031-1.070312 7.066407-2.929688 1.859374-1.859374 2.933593-4.441406 2.933593-7.070312s-1.070312-5.210938-2.933593-7.070312c-1.859376-1.859376-4.429688-2.929688-7.066407-2.929688zm0 0"/><path d="m377.796875 419.820312c-26.894531 0-52.425781 11.46875-70.335937 31.148438l-25.355469-25.355469c-3.769531-3.773437-9.394531-4.886719-14.324219-2.847656-4.929688 2.042969-8.113281 6.808594-8.113281 12.144531v62.003906c0 5.332032 3.183593 10.101563 8.113281 12.140626 1.636719.679687 3.347656 1.007812 5.042969 1.007812 3.414062 0 6.761719-1.335938 9.28125-3.855469l25.355469-25.355469c17.910156 19.679688 43.441406 31.148438 70.335937 31.148438 30.839844 0 59.886719-15.074219 77.707031-40.324219 2.4375-3.457031 2.4375-8.074219 0-11.53125-17.820312-25.25-46.867187-40.324219-77.707031-40.324219zm-98.128906 60.539063v-28.902344l14.449219 14.453125zm41.265625-14.449219c14.199218-16.457031 34.960937-26.089844 56.863281-26.089844 7.488281 0 14.835937 1.152344 21.84375 3.292969-8.011719 14.082031-8.011719 31.511719 0 45.59375-7.007813 2.140625-14.355469 3.292969-21.84375 3.292969-21.902344 0-42.664063-9.632812-56.863281-26.089844zm96.992187 14.394532c-5.753906-8.691407-5.753906-20.097657 0-28.789063 6.199219 3.925781 11.859375 8.746094 16.734375 14.394531-4.875 5.644532-10.535156 10.46875-16.734375 14.394532zm0 0"/><path d="m473.332031 427.089844c-2.632812 0-5.210937 1.0625-7.070312 2.921875-1.863281 1.867187-2.929688 4.4375-2.929688 7.078125 0 2.628906 1.066407 5.199218 2.929688 7.070312 1.859375 1.859375 4.4375 2.929688 7.070312 2.929688 2.628907 0 5.207031-1.070313 7.066407-2.929688 1.871093-1.859375 2.933593-4.441406 2.933593-7.070312 0-2.640625-1.0625-5.210938-2.933593-7.078125-1.859376-1.859375-4.429688-2.921875-7.066407-2.921875zm0 0"/><path d="m502 394c-2.628906 0-5.210938 1.070312-7.070312 2.929688-1.859376 1.859374-2.929688 4.441406-2.929688 7.070312s1.070312 5.210938 2.929688 7.070312c1.863281 1.859376 4.441406 2.929688 7.070312 2.929688s5.210938-1.070312 7.070312-2.929688c1.859376-1.859374 2.929688-4.441406 2.929688-7.070312s-1.070312-5.210938-2.929688-7.070312c-1.859374-1.859376-4.441406-2.929688-7.070312-2.929688zm0 0"/><path d="m256 204c2.628906 0 5.210938-1.070312 7.070312-2.929688 1.859376-1.859374 2.929688-4.441406 2.929688-7.070312s-1.070312-5.210938-2.929688-7.070312c-1.859374-1.859376-4.441406-2.929688-7.070312-2.929688s-5.210938 1.070312-7.070312 2.929688c-1.859376 1.859374-2.929688 4.441406-2.929688 7.070312s1.070312 5.210938 2.929688 7.070312c1.863281 1.859376 4.441406 2.929688 7.070312 2.929688zm0 0"/></svg>