<svg height="512pt" viewBox="-30 0 512 512.00156" width="512pt" xmlns="http://www.w3.org/2000/svg"><path d="m385.980469 291.769531c66.371093-66.628906 67.125-173.25 1.660156-240.765625-17.953125-18.511718-39.019531-32.101562-61.546875-40.773437-3.414062-1.3125-5.964844 3.25-3.050781 5.46875 9.765625 7.433593 17.371093 13.6875 24.464843 20.878906 55.875 56.648437 55.851563 148.546875-.054687 205.164063-38.394531 38.882812-93.128906 51.664062-142.269531 38.355468-8.210938-2.222656-16.980469.105469-22.992188 6.117188l-22.589844 22.589844 43.597657 43.601562 16.066406-16.070312c57.546875 15.570312 121.605469.71875 166.714844-44.566407zm0 0" fill="#d1ddde"/><path d="m209.726562 358.929688-56.652343-56.652344c-5.292969-5.292969-13.878907-5.292969-19.171875 0l-9.972656 9.976562c-5.296876 5.292969-5.296876 13.875 0 19.171875l56.648437 56.648438c5.296875 5.292969 13.878906 5.292969 19.171875 0l9.976562-9.972657c5.292969-5.292968 5.292969-13.878906 0-19.171874zm0 0" fill="#ffd89e"/><path d="m122.3125 433.199219 51.699219-51.695313-43.511719-43.507812-51.695312 51.695312c-7.867188 7.867188-17.292969 13.992188-27.675782 17.984375-10.382812 3.988281-19.8125 10.117188-27.675781 17.980469l-.449219.449219c-17.367187 17.367187-17.367187 45.527343 0 62.894531 17.371094 17.371094 45.527344 17.371094 62.898438 0l.445312-.445312c7.867188-7.867188 13.992188-17.292969 17.984375-27.675782 3.988281-10.382812 10.117188-19.8125 17.980469-27.679687zm0 0" fill="#ffd89e"/><path d="m264.167969 352.289062c33.496093 0 66.730469-9.195312 95.527343-26.980468 4.699219-2.902344 6.15625-9.0625 3.253907-13.761719-2.902344-4.699219-9.0625-6.15625-13.765625-3.253906-37.804688 23.347656-84.207032 30.050781-127.308594 18.390625-3.457031-.933594-7.148438.050781-9.683594 2.582031l-8.992187 8.996094-29.457031-29.457031 15.519531-15.519532c3.464843-3.464844 8.566406-4.820312 13.304687-3.535156 54.277344 14.699219 112.523438-1 152-40.980469 53.734375-54.417969 59.09375-139.59375 16.066406-200.144531 3.382813 2.960938 6.660157 6.074219 9.828126 9.339844 51.535156 53.152344 60.5625 134.136718 21.949218 196.945312-2.890625 4.707032-1.421875 10.863282 3.28125 13.757813 4.707032 2.890625 10.867188 1.421875 13.757813-3.285157 43.402343-70.601562 33.277343-161.621093-24.628907-221.339843-18.554687-19.136719-40.46875-33.652344-65.136718-43.144531-6.175782-2.378907-13 .09375-16.222656 5.871093-3.226563 5.777344-1.742188 12.878907 3.519531 16.886719 10.636719 8.09375 17.417969 13.875 23.40625 19.945312 51.984375 52.703126 51.960937 138.4375-.054688 191.113282-34.421875 34.859375-85.207031 48.550781-132.539062 35.730468-11.640625-3.152343-24.160157.179688-32.679688 8.699219l-15.53125 15.53125c-4.378906-4.109375-10.0625-6.367187-16.09375-6.367187-6.296875 0-12.210937 2.449218-16.65625 6.898437l-9.976562 9.976563c-9.015625 9.015625-9.160157 23.566406-.476563 32.789062l-44.652344 44.648438c-6.917968 6.917968-15.058593 12.207031-24.191406 15.71875-11.765625 4.523437-22.246094 11.332031-31.152344 20.242187l-.453124.449219c-21.238282 21.242188-21.238282 55.800781 0 77.042969 10.621093 10.617187 24.570312 15.925781 38.519531 15.925781s27.902343-5.308594 38.527343-15.929688l.441407-.445312c8.910156-8.910156 15.722656-19.390625 20.246093-31.160156 3.511719-9.132813 8.796876-17.273438 15.71875-24.191406l44.636719-44.636719c4.386719 4.136719 10.089844 6.410156 16.144531 6.410156 6.292969 0 12.207032-2.449219 16.65625-6.898437l9.972657-9.976563c4.449219-4.449219 6.902343-10.363281 6.902343-16.65625 0-6.03125-2.257812-11.714844-6.367187-16.097656l4.992187-4.992188c13.796876 3.257813 27.839844 4.863281 41.847657 4.863281zm-148.925781 73.839844c-8.914063 8.914063-15.726563 19.398438-20.246094 31.160156-3.511719 9.136719-8.800782 17.273438-15.722656 24.195313l-.441407.445313c-13.441406 13.441406-35.3125 13.4375-48.757812 0-13.4375-13.445313-13.4375-35.316407-.003907-48.753907l.453126-.449219c6.917968-6.917968 15.058593-12.210937 24.191406-15.71875 11.765625-4.523437 22.246094-11.335937 31.160156-20.246093l44.625-44.625 29.367188 29.367187zm87.410156-55.097656-9.972656 9.972656c-.90625.90625-1.964844 1.042969-2.515626 1.042969-.550781 0-1.605468-.136719-2.511718-1.042969l-56.652344-56.652344c-1.386719-1.382812-1.386719-3.640624 0-5.027343l9.976562-9.972657c.90625-.90625 1.960938-1.042968 2.515626-1.042968.546874 0 1.605468.136718 2.511718 1.042968l56.648438 56.652344h.003906c.902344.90625 1.039062 1.960938 1.039062 2.511719s-.136718 1.609375-1.042968 2.515625zm0 0"/><path d="m377.726562 398.515625h-16.382812c-5.523438 0-10 4.476563-10 10s4.476562 10 10 10h16.382812c5.523438 0 10-4.476563 10-10s-4.476562-10-10-10zm0 0"/><path d="m442.128906 398.515625h-15.257812c-5.519532 0-10 4.476563-10 10s4.480468 10 10 10h15.257812c5.519532 0 10-4.476563 10-10s-4.476562-10-10-10zm0 0"/><path d="m401.734375 423.570312c-5.523437 0-10 4.476563-10 10v14.453126c0 5.523437 4.476563 10 10 10s10-4.476563 10-10v-14.453126c0-5.523437-4.476563-10-10-10zm0 0"/><path d="m401.734375 359.003906c-5.523437 0-10 4.476563-10 10v11.640625c0 5.523438 4.476563 10 10 10s10-4.476562 10-10v-11.640625c0-5.523437-4.476563-10-10-10zm0 0"/><path d="m58.105469 113.511719h16.386719c5.519531 0 10-4.476563 10-10 0-5.523438-4.480469-10-10-10h-16.386719c-5.523438 0-10 4.476562-10 10 0 5.523437 4.476562 10 10 10zm0 0"/><path d="m123.636719 113.511719h15.253906c5.523437 0 10-4.476563 10-10 0-5.523438-4.476563-10-10-10h-15.253906c-5.523438 0-10 4.476562-10 10 0 5.523437 4.476562 10 10 10zm0 0"/><path d="m98.5 153.019531c5.519531 0 10-4.476562 10-10v-14.453125c0-5.523437-4.480469-10-10-10-5.523438 0-10 4.476563-10 10v14.453125c0 5.523438 4.476562 10 10 10zm0 0"/><path d="m98.5 85.640625c5.519531 0 10-4.476563 10-10v-11.636719c0-5.523437-4.480469-10.003906-10-10.003906-5.523438 0-10 4.480469-10 10.003906v11.636719c0 5.523437 4.476562 10 10 10zm0 0"/><path d="m378.914062 284.695312c-1.871093 1.859376-2.929687 4.4375-2.929687 7.070313 0 2.636719 1.058594 5.207031 2.929687 7.070313 1.859376 1.867187 4.429688 2.9375 7.070313 2.9375 2.632813 0 5.199219-1.070313 7.070313-2.9375 1.859374-1.863282 2.929687-4.433594 2.929687-7.070313 0-2.632813-1.070313-5.210937-2.929687-7.070313-1.859376-1.863281-4.4375-2.933593-7.070313-2.933593-2.640625.003906-5.210937 1.074219-7.070313 2.933593zm0 0"/></svg>