<svg height="512pt" viewBox="0 0 512 512" width="512pt" xmlns="http://www.w3.org/2000/svg"><path d="m10 335.125h492v80h-492zm0 0" fill="#e2f1a1"/><path d="m216.984375 162.035156c3.890625-7.386718 6.105469-15.796875 6.105469-24.726562 0-23.371094-15.085938-43.203125-36.042969-50.332032.101563-1.425781.171875-2.859374.171875-4.3125 0-32.519531-26.363281-58.882812-58.882812-58.882812-32.523438 0-58.886719 26.363281-58.886719 58.882812 0 1.453126.070312 2.886719.175781 4.3125-20.960938 7.128907-36.042969 26.960938-36.042969 50.332032 0 8.929687 2.210938 17.339844 6.101563 24.726562-8.878906 10.3125-14.261719 23.726563-14.261719 38.402344 0 32.519531 26.363281 58.882812 58.882813 58.882812 17.519531 0 33.242187-7.65625 44.03125-19.800781 10.785156 12.144531 26.507812 19.800781 44.027343 19.800781 32.523438 0 58.886719-26.363281 58.886719-58.882812 0-14.675781-5.382812-28.089844-14.265625-38.402344zm0 0" fill="#cbe558"/><path d="m259.230469 502c0-92.015625 74.859375-166.875 166.871093-166.875h75.898438v166.875zm0 0" fill="#d8ec84"/><path d="m339.4375 502c0-92.015625-74.859375-166.875-166.875-166.875h-162.5625v166.875zm0 0" fill="#cbe558"/><path d="m259.4375 502c0-47.902344-38.972656-86.875-86.875-86.875h-162.5625v86.875zm0 0" fill="#d8ec84"/><path d="m339.410156 502c0-47.902344 38.972656-86.875 86.871094-86.875h75.71875v86.875zm0 0" fill="#e2f1a1"/><path d="m231.25 179v156.125h224v-156.125l-112-112.433594zm0 0" fill="#eff3f3"/><path d="m283.25 223.125h120v112h-120zm0 0" fill="#eff3f3"/><path d="m212.78125 197.035156 130.46875-130.46875 130.464844 130.46875 28.285156-28.285156-158.75-158.75-158.753906 158.75zm0 0" fill="#ff6977"/><path d="m283.25 223.125h120v112h-120zm0 0" fill="#ff6977"/><path d="m367.105469 155.144531c0 13.171875-10.679688 23.855469-23.855469 23.855469s-23.855469-10.683594-23.855469-23.855469c0-13.175781 10.679688-23.859375 23.855469-23.859375s23.855469 10.683594 23.855469 23.859375zm0 0" fill="#98a1b3"/><path d="m10 405.128906c-2.628906 0-5.210938 1.058594-7.070312 2.929688-1.859376 1.859375-2.929688 4.429687-2.929688 7.070312 0 2.628906 1.070312 5.210938 2.929688 7.070313 1.859374 1.859375 4.441406 2.929687 7.070312 2.929687s5.210938-1.070312 7.070312-2.929687c1.859376-1.859375 2.929688-4.441407 2.929688-7.070313s-1.070312-5.210937-2.929688-7.070312c-1.859374-1.871094-4.441406-2.929688-7.070312-2.929688zm0 0"/><path d="m172.5625 405.125h-122.5625c-5.523438 0-10 4.476562-10 10s4.476562 10 10 10h122.5625c42.386719 0 76.875 34.484375 76.875 76.875 0 5.523438 4.476562 10 10 10 5.519531 0 10-4.476562 10-10 0-53.417969-43.457031-96.875-96.875-96.875zm0 0"/><path d="m426.101562 345.125h75.898438c5.523438 0 10-4.476562 10-10s-4.476562-10-10-10h-36.75v-122.414062l1.394531 1.394531c1.953125 1.953125 4.511719 2.929687 7.070313 2.929687s5.121094-.976562 7.070312-2.929687l28.285156-28.285157c3.90625-3.90625 3.90625-10.234374 0-14.140624l-158.75-158.75c-3.90625-3.90625-10.234374-3.90625-14.144531 0l-108.613281 108.613281c-6.089844-13.519531-16.851562-24.707031-30.382812-31.207031-1.234376-36.90625-31.644532-66.554688-68.84375-66.554688-37.199219 0-67.605469 29.640625-68.847657 66.542969-21.75 10.386719-35.90625 32.441406-35.90625 56.980469 0 8 1.539063 15.964843 4.484375 23.375-8.195312 11.585937-12.644531 25.472656-12.644531 39.757812 0 37.980469 30.898437 68.882812 68.882813 68.882812 12.046874 0 23.757812-3.171874 34.03125-9.015624v64.820312h-108.335938c-5.523438 0-10 4.476562-10 10s4.476562 10 10 10h162.5625c86.152344 0 156.296875 69.8125 156.859375 155.835938 0 .34375-.011719.6875-.011719 1.035156 0 5.523437 4.476563 10 10 10h.011719.015625c5.519531 0 10-4.476563 10-10 0-.230469-.007812-.460938-.011719-.691406.375-42.066407 34.703125-76.179688 76.855469-76.179688h75.71875c5.523438 0 10-4.476562 10-10s-4.476562-10-10-10h-75.71875c-35.652344 0-66.863281 19.363281-83.679688 48.121094-6.253906-21.769532-16.585937-41.824219-30.105468-59.296875 29.605468-31.109375 70.597656-48.824219 113.605468-48.824219zm-68.195312-66 35.34375-32.988281v65.976562zm-14.65625-13.679688-34.632812-32.320312h69.261718zm-14.65625 13.679688-35.34375 32.988281v-65.976562zm14.65625 13.679688 34.628906 32.320312h-69.261718zm102 32.320312h-32v-102c0-5.523438-4.480469-10-10-10h-120c-5.523438 0-10 4.476562-10 10v102h-32v-142.414062l102-102 102 102zm-102-300.984375 144.605469 144.609375-14.140625 14.140625-123.394532-123.394531c-1.953124-1.953125-4.511718-2.929688-7.070312-2.929688s-5.117188.976563-7.070312 2.929688l-123.398438 123.394531-14.140625-14.140625zm-258.945312 225.179687c-26.953126 0-48.882813-21.929687-48.882813-48.882812 0-11.691406 4.203125-23.007812 11.839844-31.875 2.683593-3.113281 3.1875-7.550781 1.269531-11.183594-3.285156-6.242187-4.949219-12.996094-4.949219-20.074218 0-18.488282 11.757813-34.910157 29.261719-40.863282 4.308594-1.464844 7.085938-5.652344 6.753906-10.191406-.101562-1.382812-.148437-2.523438-.148437-3.585938 0-26.953124 21.933593-48.882812 48.886719-48.882812 26.953124 0 48.886718 21.929688 48.886718 48.882812 0 1.0625-.046875 2.203126-.148437 3.585938-.332031 4.539062 2.445312 8.726562 6.753906 10.191406 14.023437 4.773438 24.621094 16.585938 28.050781 30.789063l-34.449218 34.449219c-3.90625 3.902343-3.90625 10.234374 0 14.140624l28.28125 28.285157c3.90625 3.902343 10.238281 3.902343 14.144531 0l1.335937-1.335938c-1.222656 25.875-22.652344 46.550781-48.828125 46.550781-12.730469 0-24.933593-5.007812-34.027343-13.828124v-52.683594l19.164062-19.164063c3.90625-3.90625 3.90625-10.238281 0-14.144531-3.90625-3.902344-10.234375-3.902344-14.144531 0l-5.019531 5.023438v-37.523438c0-5.523438-4.476563-10-10-10-5.523438 0-10 4.476562-10 10v75.191406l-12.265626-12.265625c-3.90625-3.902343-10.234374-3.902343-14.140624 0-3.90625 3.90625-3.90625 10.238281 0 14.144531l26.40625 26.40625v15.015626c-9.09375 8.820312-21.296876 13.828124-34.03125 13.828124zm54.03125 75.804688v-64.816406c10.273437 5.839844 21.984374 9.011718 34.027343 9.011718 19.097657 0 36.398438-7.8125 48.886719-20.40625v76.210938h-33.222656c-1.035156 0-2.03125.15625-2.964844.449219-4.132812-.292969-8.296875-.449219-12.5-.449219zm115.855468 20h90.324219c-16.613281 8.660156-31.890625 19.976562-45.191406 33.660156-13.101563-13.476562-28.328125-24.878906-45.132813-33.660156zm0 0"/><path d="m309.394531 155.144531c0 18.667969 15.1875 33.855469 33.855469 33.855469s33.855469-15.1875 33.855469-33.855469-15.1875-33.859375-33.855469-33.859375-33.855469 15.1875-33.855469 33.859375zm47.710938 0c0 7.636719-6.214844 13.855469-13.855469 13.855469s-13.855469-6.21875-13.855469-13.855469c0-7.640625 6.214844-13.859375 13.855469-13.859375s13.855469 6.21875 13.855469 13.859375zm0 0"/></svg>